%TF.GenerationSoftware,KiCad,Pcbnew,10.0.6*%
%TF.CreationDate,2026-10-03T15:10:05+02:00*%
%TF.ProjectId,engineering_plane,656e6769-6e65-4657-9269-6e675f706c61,rev?*%
%TF.SameCoordinates,Original*%
%TF.FileFunction,Copper,L4,Bot*%
%TF.FilePolarity,Positive*%
%FSLAX46Y46*%
G04 Gerber Fmt 4.6, Leading zero omitted, Abs format (unit mm)*
G04 Created by KiCad (PCBNEW 10.0.6) date 2026-10-03 15:10:05*
%MOMM*%
%LPD*%
G01*
G04 APERTURE LIST*
G04 Aperture macros list*
%AMRoundRect*
0 Rectangle with rounded corners*
0 $1 Rounding radius*
0 $2 $3 $4 $5 $6 $7 $8 $9 X,Y pos of 4 corners*
0 Add a 4 corners polygon primitive as box body*
4,1,4,$2,$3,$4,$5,$6,$7,$8,$9,$2,$3,0*
0 Add four circle primitives for the rounded corners*
1,1,$1+$1,$2,$3*
1,1,$1+$1,$4,$5*
1,1,$1+$1,$6,$7*
1,1,$1+$1,$8,$9*
0 Add four rect primitives between the rounded corners*
20,1,$1+$1,$2,$3,$4,$5,0*
20,1,$1+$1,$4,$5,$6,$7,0*
20,1,$1+$1,$6,$7,$8,$9,0*
20,1,$1+$1,$8,$9,$2,$3,0*%
G04 Aperture macros list end*
%TA.AperFunction,ComponentPad*%
%ADD10R,1.700000X1.700000*%
%TD*%
%TA.AperFunction,ComponentPad*%
%ADD11C,1.700000*%
%TD*%
%TA.AperFunction,ComponentPad*%
%ADD12C,1.750000*%
%TD*%
%TA.AperFunction,ComponentPad*%
%ADD13RoundRect,0.250002X-1.699998X-1.699998X1.699998X-1.699998X1.699998X1.699998X-1.699998X1.699998X0*%
%TD*%
%TA.AperFunction,ComponentPad*%
%ADD14R,1.710000X1.710000*%
%TD*%
%TA.AperFunction,ComponentPad*%
%ADD15C,1.710000*%
%TD*%
%TA.AperFunction,ComponentPad*%
%ADD16C,6.400000*%
%TD*%
%TA.AperFunction,ComponentPad*%
%ADD17C,1.400000*%
%TD*%
%TA.AperFunction,ComponentPad*%
%ADD18RoundRect,0.770000X-0.980000X0.980000X-0.980000X-0.980000X0.980000X-0.980000X0.980000X0.980000X0*%
%TD*%
%TA.AperFunction,ComponentPad*%
%ADD19C,3.500000*%
%TD*%
%TA.AperFunction,ViaPad*%
%ADD20C,0.500000*%
%TD*%
%TA.AperFunction,Conductor*%
%ADD21C,0.200000*%
%TD*%
G04 APERTURE END LIST*
D10*
%TO.P,J801,1,Pin_1_1*%
%TO.N,Net-(A801-GPIO2)*%
X110710000Y-62900000D03*
D11*
%TO.P,J801,2,Pin_2_2*%
%TO.N,Net-(A801-GPIO3)*%
X113250000Y-62900000D03*
%TO.P,J801,3,Pin_3_3*%
%TO.N,+3V3*%
X115790000Y-62900000D03*
%TO.P,J801,4,Pin_4_4*%
%TO.N,GND*%
X118330000Y-62900000D03*
%TD*%
D12*
%TO.P,J401,1,1_1*%
%TO.N,GND*%
X169920000Y-100000000D03*
%TO.P,J401,2,2_2*%
%TO.N,+6V*%
X172460000Y-100000000D03*
%TO.P,J401,3,3_3*%
%TO.N,Net-(J401-Pad3)*%
X175000000Y-100000000D03*
%TD*%
D13*
%TO.P,J102,1,Pin_1_1*%
%TO.N,VBATT*%
X196325000Y-66000000D03*
%TD*%
D14*
%TO.P,J1101,1,Pin_1_1*%
%TO.N,GND*%
X164550000Y-79640000D03*
D15*
%TO.P,J1101,2,Pin_2_2*%
%TO.N,unconnected-(J1101-Pin_2-Pad2)*%
X164550000Y-77100000D03*
%TO.P,J1101,3,Pin_3_3*%
%TO.N,Net-(J1101-Pin_3)*%
X164550000Y-74560000D03*
%TD*%
D16*
%TO.P,H106,1,1_1*%
%TO.N,GND*%
X195000000Y-98000000D03*
%TD*%
D12*
%TO.P,J403,1,1_1*%
%TO.N,GND*%
X174992000Y-53000000D03*
%TO.P,J403,2,2_2*%
%TO.N,+6V*%
X172452000Y-53000000D03*
%TO.P,J403,3,3_3*%
%TO.N,Net-(J403-Pad3)*%
X169912000Y-53000000D03*
%TD*%
D16*
%TO.P,H105,1,1_1*%
%TO.N,GND*%
X195000000Y-55000000D03*
%TD*%
D12*
%TO.P,J402,1,1_1*%
%TO.N,GND*%
X159920000Y-100000000D03*
%TO.P,J402,2,2_2*%
%TO.N,+6V*%
X162460000Y-100000000D03*
%TO.P,J402,3,3_3*%
%TO.N,Net-(J402-Pad3)*%
X165000000Y-100000000D03*
%TD*%
%TO.P,J404,1,1_1*%
%TO.N,GND*%
X164992000Y-53000000D03*
%TO.P,J404,2,2_2*%
%TO.N,+6V*%
X162452000Y-53000000D03*
%TO.P,J404,3,3_3*%
%TO.N,Net-(J404-Pad3)*%
X159912000Y-53000000D03*
%TD*%
D16*
%TO.P,H101,1,1_1*%
%TO.N,GND*%
X105000000Y-55000000D03*
%TD*%
D13*
%TO.P,J103,1,Pin_1_1*%
%TO.N,GND*%
X196325000Y-87150000D03*
%TD*%
D17*
%TO.P,J101,*%
%TO.N,*%
X196425000Y-71075000D03*
X196425000Y-82075000D03*
D18*
%TO.P,J101,1,Pin_1_1*%
%TO.N,GND*%
X186425000Y-79075000D03*
D19*
%TO.P,J101,2,Pin_2_2*%
%TO.N,VBATT*%
X186425000Y-74075000D03*
%TD*%
D20*
%TO.N,+3V3*%
X106650000Y-73300000D03*
X120175000Y-75950000D03*
X160175000Y-70100000D03*
X160800000Y-70100000D03*
X107400000Y-84225000D03*
X155450000Y-73625000D03*
X121000000Y-73525000D03*
X160175000Y-70675000D03*
X118775000Y-67325000D03*
X159550000Y-69475000D03*
X145825000Y-86100000D03*
X112500000Y-97300000D03*
X105900000Y-90550000D03*
X117800000Y-93800000D03*
X120125000Y-78475000D03*
X159550000Y-70100000D03*
X159550000Y-70675000D03*
X117850000Y-92400000D03*
X160800000Y-69475000D03*
X105700000Y-82650000D03*
X147375000Y-72450000D03*
X160800000Y-70675000D03*
X120000000Y-85950000D03*
X160175000Y-69475000D03*
X102950000Y-101450000D03*
X148750000Y-78750000D03*
X153625000Y-67850000D03*
X155513600Y-76975000D03*
X121000000Y-70625000D03*
X145100000Y-83450000D03*
X153600000Y-80000000D03*
%TO.N,GND*%
X140100000Y-57000000D03*
X171650000Y-75500000D03*
X152463600Y-75850000D03*
X102150000Y-99500000D03*
X178800000Y-80750000D03*
X125850000Y-69650000D03*
X105350000Y-64550000D03*
X164525000Y-88475000D03*
X178800000Y-81350000D03*
X171650000Y-76125000D03*
X145950000Y-76050000D03*
X178800000Y-81950000D03*
X163700000Y-85675000D03*
X146650000Y-101600000D03*
X159250000Y-61775000D03*
X171650000Y-74075000D03*
X113700000Y-101900000D03*
X149025000Y-69975000D03*
X108900000Y-101750000D03*
X145200000Y-82100000D03*
X171775000Y-63225000D03*
X106650000Y-71150000D03*
X160950000Y-89325000D03*
X174125000Y-69550000D03*
X171775000Y-65050000D03*
X121000000Y-95050000D03*
X102975000Y-81775000D03*
X103425000Y-97525000D03*
X163000000Y-85675000D03*
X114950000Y-55750000D03*
X145900000Y-73050000D03*
X183000000Y-101950000D03*
X153600000Y-80650003D03*
X178800000Y-83750000D03*
X103650000Y-102050000D03*
X159200000Y-65525000D03*
X174125000Y-66550000D03*
X145600000Y-95050000D03*
X172250000Y-76450000D03*
X147000000Y-99000000D03*
X164525000Y-87125000D03*
X161650000Y-89325000D03*
X172150000Y-73625000D03*
X172375000Y-72625000D03*
X163000000Y-89325000D03*
X173550000Y-73625000D03*
X158150000Y-68600000D03*
X120975000Y-101925000D03*
X189125000Y-52750000D03*
X174125000Y-67150000D03*
X102150000Y-68950000D03*
X172950000Y-76450000D03*
X171775000Y-61450000D03*
X160250000Y-89325000D03*
X125650000Y-82350000D03*
X172850000Y-73625000D03*
X174125000Y-68350000D03*
X158875000Y-87900000D03*
X174125000Y-65325000D03*
X105525000Y-88125000D03*
X171775000Y-60825000D03*
X172050000Y-95675000D03*
X178800000Y-80125000D03*
X146000000Y-68450000D03*
X178800000Y-83150000D03*
X171650000Y-74775000D03*
X158875000Y-86550000D03*
X113700000Y-68100000D03*
X148500000Y-75892894D03*
X149600000Y-51200000D03*
X160250000Y-85675000D03*
X149063666Y-69163666D03*
X117850000Y-89450000D03*
X162275000Y-89325000D03*
X148500000Y-81292894D03*
X153950000Y-72100000D03*
X178800000Y-82525000D03*
X161650000Y-85675000D03*
X164525000Y-87825000D03*
X162275000Y-85675000D03*
X160950000Y-85675000D03*
X184725000Y-51275000D03*
X171775000Y-62050000D03*
X173675000Y-76450000D03*
X184850000Y-100800000D03*
X125900000Y-56950000D03*
X102150000Y-100250000D03*
X180650000Y-101900000D03*
X172875000Y-89500000D03*
X115600000Y-101925000D03*
X178800000Y-84350000D03*
X174125000Y-68950000D03*
X158875000Y-88550000D03*
X164525000Y-86475000D03*
X173750000Y-56975000D03*
X171775000Y-62650000D03*
X158875000Y-87200000D03*
X118175000Y-77975000D03*
X187225000Y-51325000D03*
X171775000Y-64450000D03*
X149800000Y-76250000D03*
X163700000Y-89325000D03*
X174125000Y-67725000D03*
X174125000Y-65950000D03*
X167300000Y-62025000D03*
X171775000Y-63850000D03*
X106000000Y-95550000D03*
X117750000Y-68950000D03*
X149350000Y-82150000D03*
X153600000Y-78000000D03*
%TO.N,Net-(J401-Pad3)*%
X150750000Y-101800000D03*
X149600000Y-100650000D03*
%TO.N,Net-(J403-Pad3)*%
X164300000Y-58050000D03*
X166729058Y-55620942D03*
%TO.N,/MCU/sd_cs*%
X118650000Y-80750000D03*
X115400000Y-84050000D03*
%TO.N,Net-(U701-SW)*%
X173975000Y-63125000D03*
X174625000Y-62475000D03*
X177075000Y-62475000D03*
X180700000Y-61350000D03*
X180050000Y-61350000D03*
X176425000Y-63125000D03*
X180700000Y-62000000D03*
X177075000Y-63125000D03*
X174625000Y-63125000D03*
X176425000Y-62475000D03*
X173975000Y-62475000D03*
X180050000Y-62000000D03*
%TO.N,+5V*%
X181325000Y-57075000D03*
X153150000Y-54825000D03*
X153775000Y-54825000D03*
X180725000Y-54025000D03*
X106400000Y-60400000D03*
X181350000Y-54025000D03*
X181975000Y-54650000D03*
X180700000Y-56500000D03*
X180725000Y-55225000D03*
X160575000Y-60325000D03*
X180700000Y-55875000D03*
X181975000Y-55225000D03*
X181950000Y-56500000D03*
X153150000Y-54250000D03*
X160575000Y-59750000D03*
X181325000Y-56500000D03*
X153150000Y-53625000D03*
X159950000Y-59750000D03*
X181350000Y-54650000D03*
X152525000Y-54250000D03*
X180700000Y-57075000D03*
X113725000Y-56925000D03*
X153775000Y-54250000D03*
X159950000Y-60325000D03*
X181975000Y-54025000D03*
X181325000Y-55875000D03*
X180725000Y-54650000D03*
X153775000Y-53625000D03*
X152525000Y-53625000D03*
X181950000Y-57075000D03*
X181350000Y-55225000D03*
X152525000Y-54825000D03*
X181950000Y-55875000D03*
%TO.N,/BackupMag/I2C.SCL*%
X106550000Y-64300000D03*
X108025002Y-101675002D03*
X117900000Y-75050000D03*
X106550000Y-62200000D03*
%TO.N,/BackupMag/I2C.SDA*%
X117900000Y-72750000D03*
X107075000Y-101500000D03*
%TO.N,/MCU/bmi_int*%
X146700000Y-78650000D03*
X148500000Y-76950000D03*
%TO.N,/MCU/I2C0.SDA*%
X148000000Y-82750000D03*
X148000000Y-79950000D03*
%TO.N,/GPS/UART.TX*%
X112150000Y-82700000D03*
X120500000Y-67380000D03*
%TO.N,/GPS/UART.RX*%
X111700000Y-82000000D03*
X120000000Y-70420000D03*
%TO.N,/MCU/sd_int*%
X115100000Y-75325000D03*
X110925000Y-80475000D03*
X117800000Y-74400000D03*
%TO.N,/MCU/mmc_int*%
X106575000Y-102075000D03*
X121100000Y-93500000D03*
%TO.N,/MCU/bmp_int*%
X155650000Y-81700000D03*
X145300000Y-89725000D03*
%TO.N,/MCU/adc_v*%
X145250000Y-71175000D03*
X171682500Y-70800000D03*
%TO.N,Net-(U702-SW)*%
X178475000Y-86400000D03*
X182644565Y-85675000D03*
X181994565Y-85675000D03*
X182644565Y-86325000D03*
X176500000Y-86750000D03*
X176500000Y-86100000D03*
X181994565Y-86325000D03*
X175850000Y-86100000D03*
X175850000Y-86750000D03*
%TO.N,Net-(J601-DAT2)*%
X107500000Y-83400000D03*
X107500000Y-80600000D03*
%TO.N,Net-(J601-DAT1)*%
X117400000Y-69800000D03*
X115421446Y-71728554D03*
%TD*%
%TO.N,Net-(J401-Pad3)*%
D21*
X149600000Y-100650000D02*
X150750000Y-101800000D01*
%TO.N,Net-(J403-Pad3)*%
X164300000Y-58050000D02*
X166729058Y-55620942D01*
%TO.N,/MCU/sd_cs*%
X115400000Y-84050000D02*
X115400000Y-84000000D01*
X115400000Y-84000000D02*
X118650000Y-80750000D01*
%TO.N,/BackupMag/I2C.SCL*%
X108025002Y-101675002D02*
X108300000Y-101400003D01*
X106550000Y-64300000D02*
X106550000Y-62200000D01*
X108300000Y-84650000D02*
X117900000Y-75050000D01*
X108300000Y-101400003D02*
X108300000Y-84650000D01*
%TO.N,/BackupMag/I2C.SDA*%
X107075000Y-101500000D02*
X107492896Y-101500000D01*
X107492896Y-101500000D02*
X107950000Y-101042896D01*
X107950000Y-84505026D02*
X117300000Y-75155026D01*
X107950000Y-101042896D02*
X107950000Y-84505026D01*
X117300000Y-75155026D02*
X117300000Y-74192893D01*
X117900000Y-73592893D02*
X117900000Y-72750000D01*
X117300000Y-74192893D02*
X117900000Y-73592893D01*
%TO.N,/MCU/bmi_int*%
X148500000Y-76950000D02*
X146800000Y-78650000D01*
X146800000Y-78650000D02*
X146700000Y-78650000D01*
%TO.N,/MCU/I2C0.SDA*%
X148000000Y-79950000D02*
X148000000Y-82750000D01*
%TO.N,/GPS/UART.TX*%
X120500000Y-67380000D02*
X120500000Y-74350000D01*
X120500000Y-74350000D02*
X112150000Y-82700000D01*
%TO.N,/GPS/UART.RX*%
X120000000Y-70420000D02*
X120000000Y-73700000D01*
X120000000Y-73700000D02*
X111700000Y-82000000D01*
%TO.N,/MCU/sd_int*%
X110925000Y-80475000D02*
X115100000Y-76300000D01*
X115100000Y-76300000D02*
X115100000Y-75325000D01*
X117800000Y-74400000D02*
X117957107Y-74400000D01*
%TO.N,/MCU/mmc_int*%
X106575000Y-102075000D02*
X106750000Y-102250000D01*
X112350000Y-102250000D02*
X121100000Y-93500000D01*
X106750000Y-102250000D02*
X112350000Y-102250000D01*
%TO.N,/MCU/bmp_int*%
X154054841Y-83295159D02*
X151729841Y-83295159D01*
X155650000Y-81700000D02*
X154054841Y-83295159D01*
X151729841Y-83295159D02*
X145300000Y-89725000D01*
%TO.N,/MCU/adc_v*%
X145550000Y-71475000D02*
X145250000Y-71175000D01*
X171682500Y-70800000D02*
X171007500Y-71475000D01*
X171007500Y-71475000D02*
X145550000Y-71475000D01*
%TO.N,Net-(J601-DAT2)*%
X107500000Y-80600000D02*
X107500000Y-83400000D01*
%TO.N,Net-(J601-DAT1)*%
X115421446Y-71728554D02*
X117350000Y-69800000D01*
X117350000Y-69800000D02*
X117400000Y-69800000D01*
%TD*%
M02*
