%TF.GenerationSoftware,KiCad,Pcbnew,10.0.6*%
%TF.CreationDate,2026-10-03T15:10:05+02:00*%
%TF.ProjectId,engineering_plane,656e6769-6e65-4657-9269-6e675f706c61,rev?*%
%TF.SameCoordinates,Original*%
%TF.FileFunction,Copper,L2,Inr*%
%TF.FilePolarity,Positive*%
%FSLAX46Y46*%
G04 Gerber Fmt 4.6, Leading zero omitted, Abs format (unit mm)*
G04 Created by KiCad (PCBNEW 10.0.6) date 2026-10-03 15:10:05*
%MOMM*%
%LPD*%
G01*
G04 APERTURE LIST*
G04 Aperture macros list*
%AMRoundRect*
0 Rectangle with rounded corners*
0 $1 Rounding radius*
0 $2 $3 $4 $5 $6 $7 $8 $9 X,Y pos of 4 corners*
0 Add a 4 corners polygon primitive as box body*
4,1,4,$2,$3,$4,$5,$6,$7,$8,$9,$2,$3,0*
0 Add four circle primitives for the rounded corners*
1,1,$1+$1,$2,$3*
1,1,$1+$1,$4,$5*
1,1,$1+$1,$6,$7*
1,1,$1+$1,$8,$9*
0 Add four rect primitives between the rounded corners*
20,1,$1+$1,$2,$3,$4,$5,0*
20,1,$1+$1,$4,$5,$6,$7,0*
20,1,$1+$1,$6,$7,$8,$9,0*
20,1,$1+$1,$8,$9,$2,$3,0*%
G04 Aperture macros list end*
%TA.AperFunction,ComponentPad*%
%ADD10R,1.700000X1.700000*%
%TD*%
%TA.AperFunction,ComponentPad*%
%ADD11C,1.700000*%
%TD*%
%TA.AperFunction,ComponentPad*%
%ADD12C,1.750000*%
%TD*%
%TA.AperFunction,ComponentPad*%
%ADD13RoundRect,0.250002X-1.699998X-1.699998X1.699998X-1.699998X1.699998X1.699998X-1.699998X1.699998X0*%
%TD*%
%TA.AperFunction,ComponentPad*%
%ADD14R,1.710000X1.710000*%
%TD*%
%TA.AperFunction,ComponentPad*%
%ADD15C,1.710000*%
%TD*%
%TA.AperFunction,ComponentPad*%
%ADD16C,6.400000*%
%TD*%
%TA.AperFunction,ComponentPad*%
%ADD17C,1.400000*%
%TD*%
%TA.AperFunction,ComponentPad*%
%ADD18RoundRect,0.770000X-0.980000X0.980000X-0.980000X-0.980000X0.980000X-0.980000X0.980000X0.980000X0*%
%TD*%
%TA.AperFunction,ComponentPad*%
%ADD19C,3.500000*%
%TD*%
%TA.AperFunction,ViaPad*%
%ADD20C,0.500000*%
%TD*%
G04 APERTURE END LIST*
D10*
%TO.N,Net-(A801-GPIO2)*%
%TO.C,J801*%
X110710000Y-62900000D03*
D11*
%TO.N,Net-(A801-GPIO3)*%
X113250000Y-62900000D03*
%TO.N,+3V3*%
X115790000Y-62900000D03*
%TO.N,GND*%
X118330000Y-62900000D03*
%TD*%
D12*
%TO.N,GND*%
%TO.C,J401*%
X169920000Y-100000000D03*
%TO.N,+6V*%
X172460000Y-100000000D03*
%TO.N,Net-(J401-Pad3)*%
X175000000Y-100000000D03*
%TD*%
D13*
%TO.N,VBATT*%
%TO.C,J102*%
X196325000Y-66000000D03*
%TD*%
D14*
%TO.N,GND*%
%TO.C,J1101*%
X164550000Y-79640000D03*
D15*
%TO.N,unconnected-(J1101-Pin_2-Pad2)*%
X164550000Y-77100000D03*
%TO.N,Net-(J1101-Pin_3)*%
X164550000Y-74560000D03*
%TD*%
D16*
%TO.N,GND*%
%TO.C,H106*%
X195000000Y-98000000D03*
%TD*%
D12*
%TO.N,GND*%
%TO.C,J403*%
X174992000Y-53000000D03*
%TO.N,+6V*%
X172452000Y-53000000D03*
%TO.N,Net-(J403-Pad3)*%
X169912000Y-53000000D03*
%TD*%
D16*
%TO.N,GND*%
%TO.C,H105*%
X195000000Y-55000000D03*
%TD*%
D12*
%TO.N,GND*%
%TO.C,J402*%
X159920000Y-100000000D03*
%TO.N,+6V*%
X162460000Y-100000000D03*
%TO.N,Net-(J402-Pad3)*%
X165000000Y-100000000D03*
%TD*%
%TO.N,GND*%
%TO.C,J404*%
X164992000Y-53000000D03*
%TO.N,+6V*%
X162452000Y-53000000D03*
%TO.N,Net-(J404-Pad3)*%
X159912000Y-53000000D03*
%TD*%
D16*
%TO.N,GND*%
%TO.C,H101*%
X105000000Y-55000000D03*
%TD*%
D13*
%TO.N,GND*%
%TO.C,J103*%
X196325000Y-87150000D03*
%TD*%
D17*
%TO.N,*%
%TO.C,J101*%
X196425000Y-71075000D03*
X196425000Y-82075000D03*
D18*
%TO.N,GND*%
X186425000Y-79075000D03*
D19*
%TO.N,VBATT*%
X186425000Y-74075000D03*
%TD*%
D20*
%TO.N,+3V3*%
X106650000Y-73300000D03*
X120175000Y-75950000D03*
X160175000Y-70100000D03*
X160800000Y-70100000D03*
X107400000Y-84225000D03*
X155450000Y-73625000D03*
X121000000Y-73525000D03*
X160175000Y-70675000D03*
X118775000Y-67325000D03*
X159550000Y-69475000D03*
X145825000Y-86100000D03*
X112500000Y-97300000D03*
X105900000Y-90550000D03*
X117800000Y-93800000D03*
X120125000Y-78475000D03*
X159550000Y-70100000D03*
X159550000Y-70675000D03*
X117850000Y-92400000D03*
X160800000Y-69475000D03*
X105700000Y-82650000D03*
X147375000Y-72450000D03*
X160800000Y-70675000D03*
X120000000Y-85950000D03*
X160175000Y-69475000D03*
X102950000Y-101450000D03*
X148750000Y-78750000D03*
X153625000Y-67850000D03*
X155513600Y-76975000D03*
X121000000Y-70625000D03*
X145100000Y-83450000D03*
X153600000Y-80000000D03*
%TO.N,GND*%
X140100000Y-57000000D03*
X171650000Y-75500000D03*
X152463600Y-75850000D03*
X102150000Y-99500000D03*
X178800000Y-80750000D03*
X125850000Y-69650000D03*
X105350000Y-64550000D03*
X164525000Y-88475000D03*
X178800000Y-81350000D03*
X171650000Y-76125000D03*
X145950000Y-76050000D03*
X178800000Y-81950000D03*
X163700000Y-85675000D03*
X146650000Y-101600000D03*
X159250000Y-61775000D03*
X171650000Y-74075000D03*
X113700000Y-101900000D03*
X149025000Y-69975000D03*
X108900000Y-101750000D03*
X145200000Y-82100000D03*
X171775000Y-63225000D03*
X106650000Y-71150000D03*
X160950000Y-89325000D03*
X174125000Y-69550000D03*
X171775000Y-65050000D03*
X121000000Y-95050000D03*
X102975000Y-81775000D03*
X103425000Y-97525000D03*
X163000000Y-85675000D03*
X114950000Y-55750000D03*
X145900000Y-73050000D03*
X183000000Y-101950000D03*
X153600000Y-80650003D03*
X178800000Y-83750000D03*
X103650000Y-102050000D03*
X159200000Y-65525000D03*
X174125000Y-66550000D03*
X145600000Y-95050000D03*
X172250000Y-76450000D03*
X147000000Y-99000000D03*
X164525000Y-87125000D03*
X161650000Y-89325000D03*
X172150000Y-73625000D03*
X172375000Y-72625000D03*
X163000000Y-89325000D03*
X173550000Y-73625000D03*
X158150000Y-68600000D03*
X120975000Y-101925000D03*
X189125000Y-52750000D03*
X174125000Y-67150000D03*
X102150000Y-68950000D03*
X172950000Y-76450000D03*
X171775000Y-61450000D03*
X160250000Y-89325000D03*
X125650000Y-82350000D03*
X172850000Y-73625000D03*
X174125000Y-68350000D03*
X158875000Y-87900000D03*
X174125000Y-65325000D03*
X105525000Y-88125000D03*
X171775000Y-60825000D03*
X172050000Y-95675000D03*
X178800000Y-80125000D03*
X146000000Y-68450000D03*
X178800000Y-83150000D03*
X171650000Y-74775000D03*
X158875000Y-86550000D03*
X113700000Y-68100000D03*
X148500000Y-75892894D03*
X149600000Y-51200000D03*
X160250000Y-85675000D03*
X149063666Y-69163666D03*
X117850000Y-89450000D03*
X162275000Y-89325000D03*
X148500000Y-81292894D03*
X153950000Y-72100000D03*
X178800000Y-82525000D03*
X161650000Y-85675000D03*
X164525000Y-87825000D03*
X162275000Y-85675000D03*
X160950000Y-85675000D03*
X184725000Y-51275000D03*
X171775000Y-62050000D03*
X173675000Y-76450000D03*
X184850000Y-100800000D03*
X125900000Y-56950000D03*
X102150000Y-100250000D03*
X180650000Y-101900000D03*
X172875000Y-89500000D03*
X115600000Y-101925000D03*
X178800000Y-84350000D03*
X174125000Y-68950000D03*
X158875000Y-88550000D03*
X164525000Y-86475000D03*
X173750000Y-56975000D03*
X171775000Y-62650000D03*
X158875000Y-87200000D03*
X118175000Y-77975000D03*
X187225000Y-51325000D03*
X171775000Y-64450000D03*
X149800000Y-76250000D03*
X163700000Y-89325000D03*
X174125000Y-67725000D03*
X174125000Y-65950000D03*
X167300000Y-62025000D03*
X171775000Y-63850000D03*
X106000000Y-95550000D03*
X117750000Y-68950000D03*
X149350000Y-82150000D03*
X153600000Y-78000000D03*
%TO.N,Net-(J401-Pad3)*%
X150750000Y-101800000D03*
X149600000Y-100650000D03*
%TO.N,Net-(J403-Pad3)*%
X164300000Y-58050000D03*
X166729058Y-55620942D03*
%TO.N,/MCU/sd_cs*%
X118650000Y-80750000D03*
X115400000Y-84050000D03*
%TO.N,Net-(U701-SW)*%
X173975000Y-63125000D03*
X174625000Y-62475000D03*
X177075000Y-62475000D03*
X180700000Y-61350000D03*
X180050000Y-61350000D03*
X176425000Y-63125000D03*
X180700000Y-62000000D03*
X177075000Y-63125000D03*
X174625000Y-63125000D03*
X176425000Y-62475000D03*
X173975000Y-62475000D03*
X180050000Y-62000000D03*
%TO.N,+5V*%
X181325000Y-57075000D03*
X153150000Y-54825000D03*
X153775000Y-54825000D03*
X180725000Y-54025000D03*
X106400000Y-60400000D03*
X181350000Y-54025000D03*
X181975000Y-54650000D03*
X180700000Y-56500000D03*
X180725000Y-55225000D03*
X160575000Y-60325000D03*
X180700000Y-55875000D03*
X181975000Y-55225000D03*
X181950000Y-56500000D03*
X153150000Y-54250000D03*
X160575000Y-59750000D03*
X181325000Y-56500000D03*
X153150000Y-53625000D03*
X159950000Y-59750000D03*
X181350000Y-54650000D03*
X152525000Y-54250000D03*
X180700000Y-57075000D03*
X113725000Y-56925000D03*
X153775000Y-54250000D03*
X159950000Y-60325000D03*
X181975000Y-54025000D03*
X181325000Y-55875000D03*
X180725000Y-54650000D03*
X153775000Y-53625000D03*
X152525000Y-53625000D03*
X181950000Y-57075000D03*
X181350000Y-55225000D03*
X152525000Y-54825000D03*
X181950000Y-55875000D03*
%TO.N,/BackupMag/I2C.SCL*%
X106550000Y-64300000D03*
X108025002Y-101675002D03*
X117900000Y-75050000D03*
X106550000Y-62200000D03*
%TO.N,/BackupMag/I2C.SDA*%
X117900000Y-72750000D03*
X107075000Y-101500000D03*
%TO.N,/MCU/bmi_int*%
X146700000Y-78650000D03*
X148500000Y-76950000D03*
%TO.N,/MCU/I2C0.SDA*%
X148000000Y-82750000D03*
X148000000Y-79950000D03*
%TO.N,/GPS/UART.TX*%
X112150000Y-82700000D03*
X120500000Y-67380000D03*
%TO.N,/GPS/UART.RX*%
X111700000Y-82000000D03*
X120000000Y-70420000D03*
%TO.N,/MCU/sd_int*%
X115100000Y-75325000D03*
X110925000Y-80475000D03*
X117800000Y-74400000D03*
%TO.N,/MCU/mmc_int*%
X106575000Y-102075000D03*
X121100000Y-93500000D03*
%TO.N,/MCU/bmp_int*%
X155650000Y-81700000D03*
X145300000Y-89725000D03*
%TO.N,/MCU/adc_v*%
X145250000Y-71175000D03*
X171682500Y-70800000D03*
%TO.N,Net-(U702-SW)*%
X178475000Y-86400000D03*
X182644565Y-85675000D03*
X181994565Y-85675000D03*
X182644565Y-86325000D03*
X176500000Y-86750000D03*
X176500000Y-86100000D03*
X181994565Y-86325000D03*
X175850000Y-86100000D03*
X175850000Y-86750000D03*
%TO.N,Net-(J601-DAT2)*%
X107500000Y-83400000D03*
X107500000Y-80600000D03*
%TO.N,Net-(J601-DAT1)*%
X117400000Y-69800000D03*
X115421446Y-71728554D03*
%TD*%
%TA.AperFunction,Conductor*%
%TO.N,GND*%
G36*
X129668779Y-50519407D02*
G01*
X129704743Y-50568907D01*
X129704743Y-50630093D01*
X129668779Y-50679593D01*
X129655533Y-50687710D01*
X129585803Y-50723238D01*
X129432928Y-50834309D01*
X129299309Y-50967928D01*
X129188238Y-51120803D01*
X129102453Y-51289167D01*
X129044058Y-51468886D01*
X129014500Y-51655515D01*
X129014500Y-51844484D01*
X129044058Y-52031113D01*
X129056176Y-52068407D01*
X129102453Y-52210832D01*
X129188240Y-52379199D01*
X129299310Y-52532073D01*
X129432927Y-52665690D01*
X129585801Y-52776760D01*
X129754168Y-52862547D01*
X129933882Y-52920940D01*
X129933883Y-52920940D01*
X129933886Y-52920941D01*
X130120516Y-52950500D01*
X130120519Y-52950500D01*
X130309484Y-52950500D01*
X130496113Y-52920941D01*
X130496114Y-52920940D01*
X130496118Y-52920940D01*
X130675832Y-52862547D01*
X130844199Y-52776760D01*
X130997073Y-52665690D01*
X131130690Y-52532073D01*
X131241760Y-52379199D01*
X131327547Y-52210832D01*
X131385940Y-52031118D01*
X131397686Y-51956957D01*
X131415500Y-51844484D01*
X131415500Y-51655515D01*
X131385941Y-51468886D01*
X131385940Y-51468882D01*
X131327547Y-51289168D01*
X131241760Y-51120801D01*
X131130690Y-50967927D01*
X130997073Y-50834310D01*
X130844199Y-50723240D01*
X130844198Y-50723239D01*
X130844196Y-50723238D01*
X130774467Y-50687710D01*
X130731202Y-50644445D01*
X130721631Y-50584013D01*
X130749408Y-50529497D01*
X130803925Y-50501719D01*
X130819412Y-50500500D01*
X135060588Y-50500500D01*
X135118779Y-50519407D01*
X135154743Y-50568907D01*
X135154743Y-50630093D01*
X135118779Y-50679593D01*
X135105533Y-50687710D01*
X135035803Y-50723238D01*
X134882928Y-50834309D01*
X134749309Y-50967928D01*
X134638238Y-51120803D01*
X134552453Y-51289167D01*
X134494058Y-51468886D01*
X134464500Y-51655515D01*
X134464500Y-51844484D01*
X134494058Y-52031113D01*
X134506176Y-52068407D01*
X134552453Y-52210832D01*
X134638240Y-52379199D01*
X134749310Y-52532073D01*
X134882927Y-52665690D01*
X135035801Y-52776760D01*
X135204168Y-52862547D01*
X135383882Y-52920940D01*
X135383883Y-52920940D01*
X135383886Y-52920941D01*
X135570516Y-52950500D01*
X135570519Y-52950500D01*
X135759484Y-52950500D01*
X135946113Y-52920941D01*
X135946114Y-52920940D01*
X135946118Y-52920940D01*
X135975430Y-52911416D01*
X158786500Y-52911416D01*
X158786500Y-53088582D01*
X158814213Y-53263552D01*
X158868957Y-53432040D01*
X158933701Y-53559108D01*
X158949386Y-53589890D01*
X159053517Y-53733214D01*
X159178786Y-53858483D01*
X159322110Y-53962614D01*
X159479958Y-54043042D01*
X159648445Y-54097786D01*
X159699630Y-54105893D01*
X159823418Y-54125500D01*
X159823421Y-54125500D01*
X160000582Y-54125500D01*
X160088067Y-54111643D01*
X160175555Y-54097786D01*
X160344042Y-54043042D01*
X160501890Y-53962614D01*
X160645214Y-53858483D01*
X160770483Y-53733214D01*
X160874614Y-53589890D01*
X160955042Y-53432042D01*
X161009786Y-53263555D01*
X161037500Y-53088579D01*
X161037500Y-52911421D01*
X161037500Y-52911416D01*
X161326500Y-52911416D01*
X161326500Y-53088582D01*
X161354213Y-53263552D01*
X161408957Y-53432040D01*
X161473701Y-53559108D01*
X161489386Y-53589890D01*
X161593517Y-53733214D01*
X161718786Y-53858483D01*
X161862110Y-53962614D01*
X162019958Y-54043042D01*
X162188445Y-54097786D01*
X162239630Y-54105893D01*
X162363418Y-54125500D01*
X162363421Y-54125500D01*
X162540582Y-54125500D01*
X162628067Y-54111643D01*
X162664377Y-54105892D01*
X164593212Y-54105892D01*
X164593212Y-54105894D01*
X164716848Y-54146066D01*
X164716853Y-54146067D01*
X164899523Y-54175000D01*
X165084477Y-54175000D01*
X165267137Y-54146068D01*
X165390786Y-54105893D01*
X164991999Y-53707106D01*
X164593212Y-54105892D01*
X162664377Y-54105892D01*
X162715555Y-54097786D01*
X162884042Y-54043042D01*
X162994260Y-53986883D01*
X162994263Y-53986882D01*
X163041879Y-53962620D01*
X163041886Y-53962616D01*
X163041885Y-53962616D01*
X163041890Y-53962614D01*
X163185214Y-53858483D01*
X163310483Y-53733214D01*
X163414614Y-53589890D01*
X163495042Y-53432042D01*
X163549786Y-53263555D01*
X163577500Y-53088579D01*
X163577500Y-52911421D01*
X163577500Y-52911415D01*
X163577499Y-52911409D01*
X163576883Y-52907522D01*
X163817000Y-52907522D01*
X163817000Y-53092477D01*
X163845931Y-53275141D01*
X163886106Y-53398787D01*
X164284893Y-53000000D01*
X164284893Y-52999999D01*
X164206561Y-52921667D01*
X164397000Y-52921667D01*
X164397000Y-53078333D01*
X164437548Y-53229661D01*
X164515882Y-53365338D01*
X164626662Y-53476118D01*
X164762339Y-53554452D01*
X164913667Y-53595000D01*
X165070333Y-53595000D01*
X165221661Y-53554452D01*
X165357338Y-53476118D01*
X165468118Y-53365338D01*
X165546452Y-53229661D01*
X165587000Y-53078333D01*
X165587000Y-52999999D01*
X165699106Y-52999999D01*
X166097893Y-53398786D01*
X166138068Y-53275137D01*
X166167000Y-53092477D01*
X166167000Y-52911416D01*
X168786500Y-52911416D01*
X168786500Y-53088582D01*
X168814213Y-53263552D01*
X168868957Y-53432040D01*
X168933701Y-53559108D01*
X168949386Y-53589890D01*
X169053517Y-53733214D01*
X169178786Y-53858483D01*
X169322110Y-53962614D01*
X169479958Y-54043042D01*
X169648445Y-54097786D01*
X169699630Y-54105893D01*
X169823418Y-54125500D01*
X169823421Y-54125500D01*
X170000582Y-54125500D01*
X170088067Y-54111643D01*
X170175555Y-54097786D01*
X170344042Y-54043042D01*
X170501890Y-53962614D01*
X170645214Y-53858483D01*
X170770483Y-53733214D01*
X170874614Y-53589890D01*
X170955042Y-53432042D01*
X171009786Y-53263555D01*
X171037500Y-53088579D01*
X171037500Y-52911421D01*
X171037500Y-52911416D01*
X171326500Y-52911416D01*
X171326500Y-53088582D01*
X171354213Y-53263552D01*
X171408957Y-53432040D01*
X171473701Y-53559108D01*
X171489386Y-53589890D01*
X171593517Y-53733214D01*
X171718786Y-53858483D01*
X171862110Y-53962614D01*
X172019958Y-54043042D01*
X172188445Y-54097786D01*
X172239630Y-54105893D01*
X172363418Y-54125500D01*
X172363421Y-54125500D01*
X172540582Y-54125500D01*
X172628067Y-54111643D01*
X172664377Y-54105892D01*
X174593212Y-54105892D01*
X174593212Y-54105894D01*
X174716848Y-54146066D01*
X174716853Y-54146067D01*
X174899523Y-54175000D01*
X175084477Y-54175000D01*
X175267137Y-54146068D01*
X175390786Y-54105893D01*
X174991999Y-53707106D01*
X174593212Y-54105892D01*
X172664377Y-54105892D01*
X172715555Y-54097786D01*
X172884042Y-54043042D01*
X172994260Y-53986883D01*
X172994263Y-53986882D01*
X173041879Y-53962620D01*
X173041886Y-53962616D01*
X173041885Y-53962616D01*
X173041890Y-53962614D01*
X173185214Y-53858483D01*
X173310483Y-53733214D01*
X173414614Y-53589890D01*
X173495042Y-53432042D01*
X173549786Y-53263555D01*
X173577500Y-53088579D01*
X173577500Y-52911421D01*
X173577500Y-52911415D01*
X173577499Y-52911409D01*
X173576883Y-52907522D01*
X173817000Y-52907522D01*
X173817000Y-53092477D01*
X173845931Y-53275141D01*
X173886106Y-53398787D01*
X174284893Y-53000000D01*
X174284893Y-52999999D01*
X174206561Y-52921667D01*
X174397000Y-52921667D01*
X174397000Y-53078333D01*
X174437548Y-53229661D01*
X174515882Y-53365338D01*
X174626662Y-53476118D01*
X174762339Y-53554452D01*
X174913667Y-53595000D01*
X175070333Y-53595000D01*
X175221661Y-53554452D01*
X175357338Y-53476118D01*
X175468118Y-53365338D01*
X175546452Y-53229661D01*
X175587000Y-53078333D01*
X175587000Y-52999999D01*
X175699106Y-52999999D01*
X176097893Y-53398786D01*
X176138068Y-53275137D01*
X176167000Y-53092477D01*
X176167000Y-52907522D01*
X176138067Y-52724853D01*
X176138066Y-52724848D01*
X176097894Y-52601212D01*
X176097892Y-52601212D01*
X175699106Y-52999999D01*
X175587000Y-52999999D01*
X175587000Y-52921667D01*
X175546452Y-52770339D01*
X175468118Y-52634662D01*
X175357338Y-52523882D01*
X175221661Y-52445548D01*
X175070333Y-52405000D01*
X174913667Y-52405000D01*
X174762339Y-52445548D01*
X174626662Y-52523882D01*
X174515882Y-52634662D01*
X174437548Y-52770339D01*
X174397000Y-52921667D01*
X174206561Y-52921667D01*
X173886106Y-52601211D01*
X173845932Y-52724856D01*
X173817000Y-52907522D01*
X173576883Y-52907522D01*
X173549786Y-52736447D01*
X173549786Y-52736445D01*
X173495042Y-52567958D01*
X173414614Y-52410110D01*
X173310483Y-52266786D01*
X173185214Y-52141517D01*
X173041890Y-52037386D01*
X173041886Y-52037383D01*
X173041879Y-52037379D01*
X172994261Y-52013116D01*
X172994258Y-52013116D01*
X172884040Y-51956957D01*
X172715552Y-51902213D01*
X172664367Y-51894106D01*
X174593211Y-51894106D01*
X174991999Y-52292893D01*
X175390787Y-51894106D01*
X175267141Y-51853931D01*
X175084477Y-51825000D01*
X174899523Y-51825000D01*
X174716856Y-51853932D01*
X174593211Y-51894106D01*
X172664367Y-51894106D01*
X172540582Y-51874500D01*
X172540579Y-51874500D01*
X172363421Y-51874500D01*
X172363418Y-51874500D01*
X172188447Y-51902213D01*
X172019959Y-51956957D01*
X171862112Y-52037384D01*
X171718787Y-52141516D01*
X171593516Y-52266787D01*
X171489384Y-52410112D01*
X171408957Y-52567959D01*
X171354213Y-52736447D01*
X171326501Y-52911409D01*
X171326500Y-52911416D01*
X171037500Y-52911416D01*
X171037499Y-52911409D01*
X171009786Y-52736447D01*
X171009786Y-52736445D01*
X170955042Y-52567958D01*
X170874614Y-52410110D01*
X170770483Y-52266786D01*
X170645214Y-52141517D01*
X170501890Y-52037386D01*
X170501889Y-52037385D01*
X170501887Y-52037384D01*
X170344040Y-51956957D01*
X170175552Y-51902213D01*
X170000582Y-51874500D01*
X170000579Y-51874500D01*
X169823421Y-51874500D01*
X169823418Y-51874500D01*
X169648447Y-51902213D01*
X169479959Y-51956957D01*
X169322112Y-52037384D01*
X169178787Y-52141516D01*
X169053516Y-52266787D01*
X168949384Y-52410112D01*
X168868957Y-52567959D01*
X168814213Y-52736447D01*
X168786501Y-52911409D01*
X168786500Y-52911416D01*
X166167000Y-52911416D01*
X166167000Y-52907522D01*
X166138067Y-52724853D01*
X166138066Y-52724848D01*
X166097894Y-52601212D01*
X166097892Y-52601212D01*
X165699106Y-52999999D01*
X165587000Y-52999999D01*
X165587000Y-52921667D01*
X165546452Y-52770339D01*
X165468118Y-52634662D01*
X165357338Y-52523882D01*
X165221661Y-52445548D01*
X165070333Y-52405000D01*
X164913667Y-52405000D01*
X164762339Y-52445548D01*
X164626662Y-52523882D01*
X164515882Y-52634662D01*
X164437548Y-52770339D01*
X164397000Y-52921667D01*
X164206561Y-52921667D01*
X163886106Y-52601211D01*
X163845932Y-52724856D01*
X163817000Y-52907522D01*
X163576883Y-52907522D01*
X163549786Y-52736447D01*
X163549786Y-52736445D01*
X163495042Y-52567958D01*
X163414614Y-52410110D01*
X163310483Y-52266786D01*
X163185214Y-52141517D01*
X163041890Y-52037386D01*
X163041886Y-52037383D01*
X163041879Y-52037379D01*
X162994261Y-52013116D01*
X162994258Y-52013116D01*
X162884040Y-51956957D01*
X162715552Y-51902213D01*
X162664367Y-51894106D01*
X164593211Y-51894106D01*
X164991999Y-52292893D01*
X165390787Y-51894106D01*
X165267141Y-51853931D01*
X165084477Y-51825000D01*
X164899523Y-51825000D01*
X164716856Y-51853932D01*
X164593211Y-51894106D01*
X162664367Y-51894106D01*
X162540582Y-51874500D01*
X162540579Y-51874500D01*
X162363421Y-51874500D01*
X162363418Y-51874500D01*
X162188447Y-51902213D01*
X162019959Y-51956957D01*
X161862112Y-52037384D01*
X161718787Y-52141516D01*
X161593516Y-52266787D01*
X161489384Y-52410112D01*
X161408957Y-52567959D01*
X161354213Y-52736447D01*
X161326501Y-52911409D01*
X161326500Y-52911416D01*
X161037500Y-52911416D01*
X161037499Y-52911409D01*
X161009786Y-52736447D01*
X161009786Y-52736445D01*
X160955042Y-52567958D01*
X160874614Y-52410110D01*
X160770483Y-52266786D01*
X160645214Y-52141517D01*
X160501890Y-52037386D01*
X160501889Y-52037385D01*
X160501887Y-52037384D01*
X160344040Y-51956957D01*
X160175552Y-51902213D01*
X160000582Y-51874500D01*
X160000579Y-51874500D01*
X159823421Y-51874500D01*
X159823418Y-51874500D01*
X159648447Y-51902213D01*
X159479959Y-51956957D01*
X159322112Y-52037384D01*
X159178787Y-52141516D01*
X159053516Y-52266787D01*
X158949384Y-52410112D01*
X158868957Y-52567959D01*
X158814213Y-52736447D01*
X158786501Y-52911409D01*
X158786500Y-52911416D01*
X135975430Y-52911416D01*
X136125832Y-52862547D01*
X136294199Y-52776760D01*
X136447073Y-52665690D01*
X136580690Y-52532073D01*
X136691760Y-52379199D01*
X136777547Y-52210832D01*
X136835940Y-52031118D01*
X136847686Y-51956957D01*
X136865500Y-51844484D01*
X136865500Y-51655515D01*
X136835941Y-51468886D01*
X136835940Y-51468882D01*
X136777547Y-51289168D01*
X136691760Y-51120801D01*
X136580690Y-50967927D01*
X136447073Y-50834310D01*
X136294199Y-50723240D01*
X136294198Y-50723239D01*
X136294196Y-50723238D01*
X136224467Y-50687710D01*
X136181202Y-50644445D01*
X136171631Y-50584013D01*
X136199408Y-50529497D01*
X136253925Y-50501719D01*
X136269412Y-50500500D01*
X197901000Y-50500500D01*
X197959191Y-50519407D01*
X197995155Y-50568907D01*
X198000000Y-50599500D01*
X198000000Y-52000000D01*
X199400500Y-52000000D01*
X199458691Y-52018907D01*
X199494655Y-52068407D01*
X199499500Y-52099000D01*
X199499500Y-102400500D01*
X199480593Y-102458691D01*
X199431093Y-102494655D01*
X199400500Y-102499500D01*
X107079316Y-102499500D01*
X107021125Y-102480593D01*
X106985161Y-102431093D01*
X106985161Y-102369907D01*
X106993580Y-102351000D01*
X107041390Y-102268190D01*
X107041390Y-102268188D01*
X107041392Y-102268186D01*
X107075500Y-102140892D01*
X107075500Y-102093986D01*
X107094407Y-102035795D01*
X107143907Y-101999831D01*
X107148836Y-101998371D01*
X107268186Y-101966392D01*
X107382314Y-101900500D01*
X107414680Y-101868133D01*
X107469193Y-101840358D01*
X107529625Y-101849929D01*
X107570416Y-101888637D01*
X107624502Y-101982316D01*
X107717688Y-102075502D01*
X107717690Y-102075503D01*
X107717692Y-102075505D01*
X107831812Y-102141392D01*
X107831810Y-102141392D01*
X107831814Y-102141393D01*
X107831816Y-102141394D01*
X107959110Y-102175502D01*
X107959112Y-102175502D01*
X108090892Y-102175502D01*
X108090894Y-102175502D01*
X108218188Y-102141394D01*
X108218190Y-102141392D01*
X108218192Y-102141392D01*
X108332311Y-102075505D01*
X108332311Y-102075504D01*
X108332316Y-102075502D01*
X108425502Y-101982316D01*
X108443871Y-101950500D01*
X108491392Y-101868192D01*
X108491392Y-101868190D01*
X108491394Y-101868188D01*
X108525502Y-101740894D01*
X108525502Y-101609110D01*
X108491394Y-101481816D01*
X108491392Y-101481813D01*
X108491392Y-101481811D01*
X108425505Y-101367692D01*
X108425503Y-101367690D01*
X108425502Y-101367688D01*
X108332316Y-101274502D01*
X108332313Y-101274500D01*
X108332311Y-101274498D01*
X108218191Y-101208611D01*
X108218193Y-101208611D01*
X108158758Y-101192686D01*
X108090894Y-101174502D01*
X107959110Y-101174502D01*
X107891246Y-101192686D01*
X107831811Y-101208611D01*
X107717692Y-101274498D01*
X107685323Y-101306867D01*
X107630806Y-101334643D01*
X107570374Y-101325071D01*
X107529585Y-101286364D01*
X107475500Y-101192686D01*
X107382314Y-101099500D01*
X107382311Y-101099498D01*
X107382309Y-101099496D01*
X107268189Y-101033609D01*
X107268191Y-101033609D01*
X107218799Y-101020375D01*
X107140892Y-100999500D01*
X107009108Y-100999500D01*
X106931200Y-101020375D01*
X106881809Y-101033609D01*
X106767690Y-101099496D01*
X106674496Y-101192690D01*
X106608609Y-101306809D01*
X106574500Y-101434109D01*
X106574500Y-101481013D01*
X106555593Y-101539204D01*
X106506093Y-101575168D01*
X106501138Y-101576635D01*
X106433394Y-101594787D01*
X106381809Y-101608609D01*
X106267690Y-101674496D01*
X106174496Y-101767690D01*
X106108609Y-101881809D01*
X106108608Y-101881814D01*
X106074500Y-102009108D01*
X106074500Y-102140892D01*
X106074635Y-102141394D01*
X106108609Y-102268190D01*
X106156420Y-102351000D01*
X106169142Y-102410848D01*
X106144255Y-102466744D01*
X106091267Y-102497337D01*
X106070684Y-102499500D01*
X102099000Y-102499500D01*
X102040809Y-102480593D01*
X102004845Y-102431093D01*
X102000000Y-102400500D01*
X102000000Y-101384108D01*
X102449500Y-101384108D01*
X102449500Y-101515892D01*
X102474478Y-101609111D01*
X102483609Y-101643190D01*
X102549496Y-101757309D01*
X102549498Y-101757311D01*
X102549500Y-101757314D01*
X102642686Y-101850500D01*
X102642688Y-101850501D01*
X102642690Y-101850503D01*
X102756810Y-101916390D01*
X102756808Y-101916390D01*
X102756812Y-101916391D01*
X102756814Y-101916392D01*
X102884108Y-101950500D01*
X102884110Y-101950500D01*
X103015890Y-101950500D01*
X103015892Y-101950500D01*
X103143186Y-101916392D01*
X103143188Y-101916390D01*
X103143190Y-101916390D01*
X103257309Y-101850503D01*
X103257309Y-101850502D01*
X103257314Y-101850500D01*
X103350500Y-101757314D01*
X103359981Y-101740892D01*
X103416390Y-101643190D01*
X103416390Y-101643188D01*
X103416392Y-101643186D01*
X103450500Y-101515892D01*
X103450500Y-101384108D01*
X103416392Y-101256814D01*
X103416390Y-101256811D01*
X103416390Y-101256809D01*
X103350503Y-101142690D01*
X103350501Y-101142688D01*
X103350500Y-101142686D01*
X103257314Y-101049500D01*
X103257311Y-101049498D01*
X103257309Y-101049496D01*
X103143189Y-100983609D01*
X103143191Y-100983609D01*
X103064838Y-100962615D01*
X103015892Y-100949500D01*
X102884108Y-100949500D01*
X102835162Y-100962615D01*
X102756809Y-100983609D01*
X102642690Y-101049496D01*
X102549496Y-101142690D01*
X102483609Y-101256809D01*
X102475691Y-101286362D01*
X102449500Y-101384108D01*
X102000000Y-101384108D01*
X102000000Y-101000001D01*
X102000000Y-101000000D01*
X101999999Y-101000000D01*
X100599500Y-101000000D01*
X100541309Y-100981093D01*
X100505345Y-100931593D01*
X100500500Y-100901000D01*
X100500500Y-97234108D01*
X111999500Y-97234108D01*
X111999500Y-97365892D01*
X112029579Y-97478151D01*
X112033609Y-97493190D01*
X112099496Y-97607309D01*
X112099498Y-97607311D01*
X112099500Y-97607314D01*
X112192686Y-97700500D01*
X112192688Y-97700501D01*
X112192690Y-97700503D01*
X112306810Y-97766390D01*
X112306808Y-97766390D01*
X112306812Y-97766391D01*
X112306814Y-97766392D01*
X112434108Y-97800500D01*
X112434110Y-97800500D01*
X112565890Y-97800500D01*
X112565892Y-97800500D01*
X112693186Y-97766392D01*
X112693188Y-97766390D01*
X112693190Y-97766390D01*
X112807309Y-97700503D01*
X112807309Y-97700502D01*
X112807314Y-97700500D01*
X112900500Y-97607314D01*
X112966392Y-97493186D01*
X113000500Y-97365892D01*
X113000500Y-97234108D01*
X112966392Y-97106814D01*
X112966390Y-97106811D01*
X112966390Y-97106809D01*
X112956625Y-97089895D01*
X125840000Y-97089895D01*
X130380257Y-100615839D01*
X130501723Y-100710169D01*
X130536085Y-100760794D01*
X130540000Y-100788360D01*
X130540000Y-101750000D01*
X130540001Y-101750000D01*
X135339999Y-101750000D01*
X135340000Y-101750000D01*
X135340000Y-101734108D01*
X150249500Y-101734108D01*
X150249500Y-101865892D01*
X150276428Y-101966390D01*
X150283609Y-101993190D01*
X150349496Y-102107309D01*
X150349498Y-102107311D01*
X150349500Y-102107314D01*
X150442686Y-102200500D01*
X150442688Y-102200501D01*
X150442690Y-102200503D01*
X150556810Y-102266390D01*
X150556808Y-102266390D01*
X150556812Y-102266391D01*
X150556814Y-102266392D01*
X150684108Y-102300500D01*
X150684110Y-102300500D01*
X150815890Y-102300500D01*
X150815892Y-102300500D01*
X150943186Y-102266392D01*
X150943188Y-102266390D01*
X150943190Y-102266390D01*
X151057309Y-102200503D01*
X151057309Y-102200502D01*
X151057314Y-102200500D01*
X151150500Y-102107314D01*
X151207199Y-102009109D01*
X151216390Y-101993190D01*
X151216390Y-101993188D01*
X151216392Y-101993186D01*
X151250500Y-101865892D01*
X151250500Y-101734108D01*
X151216392Y-101606814D01*
X151216390Y-101606811D01*
X151216390Y-101606809D01*
X151150503Y-101492690D01*
X151150501Y-101492688D01*
X151150500Y-101492686D01*
X151057314Y-101399500D01*
X151057311Y-101399498D01*
X151057309Y-101399496D01*
X150943189Y-101333609D01*
X150943191Y-101333609D01*
X150893799Y-101320375D01*
X150815892Y-101299500D01*
X150684108Y-101299500D01*
X150606200Y-101320375D01*
X150556809Y-101333609D01*
X150442690Y-101399496D01*
X150349496Y-101492690D01*
X150283609Y-101606809D01*
X150273862Y-101643186D01*
X150249500Y-101734108D01*
X135340000Y-101734108D01*
X135340000Y-100788360D01*
X135358907Y-100730169D01*
X135378277Y-100710169D01*
X135499743Y-100615839D01*
X135540602Y-100584108D01*
X149099500Y-100584108D01*
X149099500Y-100715892D01*
X149118918Y-100788360D01*
X149133609Y-100843190D01*
X149199496Y-100957309D01*
X149199498Y-100957311D01*
X149199500Y-100957314D01*
X149292686Y-101050500D01*
X149292688Y-101050501D01*
X149292690Y-101050503D01*
X149406810Y-101116390D01*
X149406808Y-101116390D01*
X149406812Y-101116391D01*
X149406814Y-101116392D01*
X149534108Y-101150500D01*
X149534110Y-101150500D01*
X149665890Y-101150500D01*
X149665892Y-101150500D01*
X149793186Y-101116392D01*
X149793188Y-101116390D01*
X149793190Y-101116390D01*
X149907309Y-101050503D01*
X149907309Y-101050502D01*
X149907314Y-101050500D01*
X150000500Y-100957314D01*
X150000503Y-100957309D01*
X150066361Y-100843241D01*
X150066361Y-100843240D01*
X150066366Y-100843230D01*
X150066392Y-100843186D01*
X150100500Y-100715892D01*
X150100500Y-100584108D01*
X150066392Y-100456814D01*
X150066390Y-100456811D01*
X150066390Y-100456809D01*
X150000503Y-100342690D01*
X150000501Y-100342688D01*
X150000500Y-100342686D01*
X149907314Y-100249500D01*
X149907311Y-100249498D01*
X149907309Y-100249496D01*
X149793189Y-100183609D01*
X149793191Y-100183609D01*
X149743799Y-100170375D01*
X149665892Y-100149500D01*
X149534108Y-100149500D01*
X149456200Y-100170375D01*
X149406809Y-100183609D01*
X149292690Y-100249496D01*
X149199496Y-100342690D01*
X149133609Y-100456809D01*
X149122190Y-100499428D01*
X149099500Y-100584108D01*
X135540602Y-100584108D01*
X136411822Y-99907522D01*
X158745000Y-99907522D01*
X158745000Y-100092477D01*
X158773932Y-100275143D01*
X158831084Y-100451041D01*
X158915049Y-100615833D01*
X158915053Y-100615839D01*
X158989525Y-100718340D01*
X159406783Y-100301081D01*
X159443882Y-100365338D01*
X159554662Y-100476118D01*
X159618915Y-100513215D01*
X159201658Y-100930472D01*
X159201658Y-100930473D01*
X159304160Y-101004946D01*
X159304166Y-101004950D01*
X159468958Y-101088915D01*
X159644856Y-101146067D01*
X159827523Y-101175000D01*
X160012477Y-101175000D01*
X160195143Y-101146067D01*
X160371041Y-101088915D01*
X160535833Y-101004950D01*
X160535838Y-101004946D01*
X160638340Y-100930474D01*
X160638340Y-100930473D01*
X160221083Y-100513216D01*
X160285338Y-100476118D01*
X160396118Y-100365338D01*
X160433216Y-100301083D01*
X160850473Y-100718340D01*
X160850474Y-100718340D01*
X160924946Y-100615838D01*
X160924950Y-100615833D01*
X161008915Y-100451041D01*
X161066067Y-100275143D01*
X161095000Y-100092477D01*
X161095000Y-99911416D01*
X161334500Y-99911416D01*
X161334500Y-100088582D01*
X161362213Y-100263552D01*
X161416957Y-100432040D01*
X161494439Y-100584108D01*
X161497386Y-100589890D01*
X161601517Y-100733214D01*
X161726786Y-100858483D01*
X161870110Y-100962614D01*
X162027958Y-101043042D01*
X162196445Y-101097786D01*
X162266435Y-101108871D01*
X162371418Y-101125500D01*
X162371421Y-101125500D01*
X162548582Y-101125500D01*
X162636067Y-101111643D01*
X162723555Y-101097786D01*
X162892042Y-101043042D01*
X163049890Y-100962614D01*
X163193214Y-100858483D01*
X163318483Y-100733214D01*
X163422614Y-100589890D01*
X163503042Y-100432042D01*
X163557786Y-100263555D01*
X163585500Y-100088579D01*
X163585500Y-99911421D01*
X163585500Y-99911416D01*
X163874500Y-99911416D01*
X163874500Y-100088582D01*
X163902213Y-100263552D01*
X163956957Y-100432040D01*
X164034439Y-100584108D01*
X164037386Y-100589890D01*
X164141517Y-100733214D01*
X164266786Y-100858483D01*
X164410110Y-100962614D01*
X164567958Y-101043042D01*
X164736445Y-101097786D01*
X164806435Y-101108871D01*
X164911418Y-101125500D01*
X164911421Y-101125500D01*
X165088582Y-101125500D01*
X165176067Y-101111643D01*
X165263555Y-101097786D01*
X165432042Y-101043042D01*
X165589890Y-100962614D01*
X165733214Y-100858483D01*
X165858483Y-100733214D01*
X165962614Y-100589890D01*
X166043042Y-100432042D01*
X166097786Y-100263555D01*
X166125500Y-100088579D01*
X166125500Y-99911421D01*
X166125500Y-99911415D01*
X166125499Y-99911409D01*
X166124883Y-99907522D01*
X168745000Y-99907522D01*
X168745000Y-100092477D01*
X168773932Y-100275143D01*
X168831084Y-100451041D01*
X168915049Y-100615833D01*
X168915053Y-100615839D01*
X168989525Y-100718340D01*
X169406783Y-100301081D01*
X169443882Y-100365338D01*
X169554662Y-100476118D01*
X169618915Y-100513215D01*
X169201658Y-100930472D01*
X169201658Y-100930473D01*
X169304160Y-101004946D01*
X169304166Y-101004950D01*
X169468958Y-101088915D01*
X169644856Y-101146067D01*
X169827523Y-101175000D01*
X170012477Y-101175000D01*
X170195143Y-101146067D01*
X170371041Y-101088915D01*
X170535833Y-101004950D01*
X170535838Y-101004946D01*
X170638340Y-100930474D01*
X170638340Y-100930473D01*
X170221083Y-100513216D01*
X170285338Y-100476118D01*
X170396118Y-100365338D01*
X170433216Y-100301083D01*
X170850473Y-100718340D01*
X170850474Y-100718340D01*
X170924946Y-100615838D01*
X170924950Y-100615833D01*
X171008915Y-100451041D01*
X171066067Y-100275143D01*
X171095000Y-100092477D01*
X171095000Y-99911416D01*
X171334500Y-99911416D01*
X171334500Y-100088582D01*
X171362213Y-100263552D01*
X171416957Y-100432040D01*
X171494439Y-100584108D01*
X171497386Y-100589890D01*
X171601517Y-100733214D01*
X171726786Y-100858483D01*
X171870110Y-100962614D01*
X172027958Y-101043042D01*
X172196445Y-101097786D01*
X172266435Y-101108871D01*
X172371418Y-101125500D01*
X172371421Y-101125500D01*
X172548582Y-101125500D01*
X172636067Y-101111643D01*
X172723555Y-101097786D01*
X172892042Y-101043042D01*
X173049890Y-100962614D01*
X173193214Y-100858483D01*
X173318483Y-100733214D01*
X173422614Y-100589890D01*
X173503042Y-100432042D01*
X173557786Y-100263555D01*
X173585500Y-100088579D01*
X173585500Y-99911421D01*
X173585500Y-99911416D01*
X173874500Y-99911416D01*
X173874500Y-100088582D01*
X173902213Y-100263552D01*
X173956957Y-100432040D01*
X174034439Y-100584108D01*
X174037386Y-100589890D01*
X174141517Y-100733214D01*
X174266786Y-100858483D01*
X174410110Y-100962614D01*
X174567958Y-101043042D01*
X174736445Y-101097786D01*
X174806435Y-101108871D01*
X174911418Y-101125500D01*
X174911421Y-101125500D01*
X175088582Y-101125500D01*
X175176067Y-101111643D01*
X175263555Y-101097786D01*
X175432042Y-101043042D01*
X175589890Y-100962614D01*
X175733214Y-100858483D01*
X175858483Y-100733214D01*
X175962614Y-100589890D01*
X176043042Y-100432042D01*
X176097786Y-100263555D01*
X176125500Y-100088579D01*
X176125500Y-99911421D01*
X176125500Y-99911416D01*
X176125499Y-99911409D01*
X176097786Y-99736447D01*
X176097786Y-99736445D01*
X176043042Y-99567958D01*
X175962614Y-99410110D01*
X175858483Y-99266786D01*
X175733214Y-99141517D01*
X175589890Y-99037386D01*
X175589889Y-99037385D01*
X175589887Y-99037384D01*
X175432040Y-98956957D01*
X175263552Y-98902213D01*
X175088582Y-98874500D01*
X175088579Y-98874500D01*
X174911421Y-98874500D01*
X174911418Y-98874500D01*
X174736447Y-98902213D01*
X174567959Y-98956957D01*
X174410112Y-99037384D01*
X174266787Y-99141516D01*
X174141516Y-99266787D01*
X174037384Y-99410112D01*
X173956957Y-99567959D01*
X173902213Y-99736447D01*
X173874501Y-99911409D01*
X173874500Y-99911416D01*
X173585500Y-99911416D01*
X173585499Y-99911409D01*
X173557786Y-99736447D01*
X173557786Y-99736445D01*
X173503042Y-99567958D01*
X173422614Y-99410110D01*
X173318483Y-99266786D01*
X173193214Y-99141517D01*
X173049890Y-99037386D01*
X173049889Y-99037385D01*
X173049887Y-99037384D01*
X172892040Y-98956957D01*
X172723552Y-98902213D01*
X172548582Y-98874500D01*
X172548579Y-98874500D01*
X172371421Y-98874500D01*
X172371418Y-98874500D01*
X172196447Y-98902213D01*
X172027959Y-98956957D01*
X171870112Y-99037384D01*
X171726787Y-99141516D01*
X171601516Y-99266787D01*
X171497384Y-99410112D01*
X171416957Y-99567959D01*
X171362213Y-99736447D01*
X171334501Y-99911409D01*
X171334500Y-99911416D01*
X171095000Y-99911416D01*
X171095000Y-99907522D01*
X171066067Y-99724856D01*
X171008915Y-99548958D01*
X170924950Y-99384166D01*
X170924946Y-99384160D01*
X170850473Y-99281658D01*
X170850472Y-99281658D01*
X170433215Y-99698915D01*
X170396118Y-99634662D01*
X170285338Y-99523882D01*
X170221081Y-99486783D01*
X170638340Y-99069525D01*
X170535839Y-98995053D01*
X170535833Y-98995049D01*
X170371041Y-98911084D01*
X170195143Y-98853932D01*
X170012477Y-98825000D01*
X169827523Y-98825000D01*
X169644856Y-98853932D01*
X169468958Y-98911084D01*
X169304166Y-98995049D01*
X169304162Y-98995051D01*
X169201658Y-99069525D01*
X169618916Y-99486783D01*
X169554662Y-99523882D01*
X169443882Y-99634662D01*
X169406783Y-99698916D01*
X168989525Y-99281658D01*
X168915051Y-99384162D01*
X168915049Y-99384166D01*
X168831084Y-99548958D01*
X168773932Y-99724856D01*
X168745000Y-99907522D01*
X166124883Y-99907522D01*
X166097786Y-99736447D01*
X166097786Y-99736445D01*
X166043042Y-99567958D01*
X165962614Y-99410110D01*
X165858483Y-99266786D01*
X165733214Y-99141517D01*
X165589890Y-99037386D01*
X165589889Y-99037385D01*
X165589887Y-99037384D01*
X165432040Y-98956957D01*
X165263552Y-98902213D01*
X165088582Y-98874500D01*
X165088579Y-98874500D01*
X164911421Y-98874500D01*
X164911418Y-98874500D01*
X164736447Y-98902213D01*
X164567959Y-98956957D01*
X164410112Y-99037384D01*
X164266787Y-99141516D01*
X164141516Y-99266787D01*
X164037384Y-99410112D01*
X163956957Y-99567959D01*
X163902213Y-99736447D01*
X163874501Y-99911409D01*
X163874500Y-99911416D01*
X163585500Y-99911416D01*
X163585499Y-99911409D01*
X163557786Y-99736447D01*
X163557786Y-99736445D01*
X163503042Y-99567958D01*
X163422614Y-99410110D01*
X163318483Y-99266786D01*
X163193214Y-99141517D01*
X163049890Y-99037386D01*
X163049889Y-99037385D01*
X163049887Y-99037384D01*
X162892040Y-98956957D01*
X162723552Y-98902213D01*
X162548582Y-98874500D01*
X162548579Y-98874500D01*
X162371421Y-98874500D01*
X162371418Y-98874500D01*
X162196447Y-98902213D01*
X162027959Y-98956957D01*
X161870112Y-99037384D01*
X161726787Y-99141516D01*
X161601516Y-99266787D01*
X161497384Y-99410112D01*
X161416957Y-99567959D01*
X161362213Y-99736447D01*
X161334501Y-99911409D01*
X161334500Y-99911416D01*
X161095000Y-99911416D01*
X161095000Y-99907522D01*
X161066067Y-99724856D01*
X161008915Y-99548958D01*
X160924950Y-99384166D01*
X160924946Y-99384160D01*
X160850473Y-99281658D01*
X160850472Y-99281658D01*
X160433215Y-99698915D01*
X160396118Y-99634662D01*
X160285338Y-99523882D01*
X160221081Y-99486783D01*
X160638340Y-99069525D01*
X160535839Y-98995053D01*
X160535833Y-98995049D01*
X160371041Y-98911084D01*
X160195143Y-98853932D01*
X160012477Y-98825000D01*
X159827523Y-98825000D01*
X159644856Y-98853932D01*
X159468958Y-98911084D01*
X159304166Y-98995049D01*
X159304162Y-98995051D01*
X159201658Y-99069525D01*
X159618916Y-99486783D01*
X159554662Y-99523882D01*
X159443882Y-99634662D01*
X159406783Y-99698916D01*
X158989525Y-99281658D01*
X158915051Y-99384162D01*
X158915049Y-99384166D01*
X158831084Y-99548958D01*
X158773932Y-99724856D01*
X158745000Y-99907522D01*
X136411822Y-99907522D01*
X140040000Y-97089895D01*
X140040000Y-92750000D01*
X125840000Y-92750000D01*
X125840000Y-97089895D01*
X112956625Y-97089895D01*
X112900503Y-96992690D01*
X112900501Y-96992688D01*
X112900500Y-96992686D01*
X112807314Y-96899500D01*
X112807311Y-96899498D01*
X112807309Y-96899496D01*
X112693189Y-96833609D01*
X112693191Y-96833609D01*
X112643799Y-96820375D01*
X112565892Y-96799500D01*
X112434108Y-96799500D01*
X112356200Y-96820375D01*
X112306809Y-96833609D01*
X112192690Y-96899496D01*
X112099496Y-96992690D01*
X112033609Y-97106809D01*
X112033608Y-97106814D01*
X111999500Y-97234108D01*
X100500500Y-97234108D01*
X100500500Y-93734108D01*
X117299500Y-93734108D01*
X117299500Y-93865892D01*
X117308773Y-93900500D01*
X117333609Y-93993190D01*
X117399496Y-94107309D01*
X117399498Y-94107311D01*
X117399500Y-94107314D01*
X117492686Y-94200500D01*
X117492688Y-94200501D01*
X117492690Y-94200503D01*
X117606810Y-94266390D01*
X117606808Y-94266390D01*
X117606812Y-94266391D01*
X117606814Y-94266392D01*
X117734108Y-94300500D01*
X117734110Y-94300500D01*
X117865890Y-94300500D01*
X117865892Y-94300500D01*
X117993186Y-94266392D01*
X117993188Y-94266390D01*
X117993190Y-94266390D01*
X118107309Y-94200503D01*
X118107309Y-94200502D01*
X118107314Y-94200500D01*
X118200500Y-94107314D01*
X118200503Y-94107309D01*
X118266390Y-93993190D01*
X118266390Y-93993188D01*
X118266392Y-93993186D01*
X118300500Y-93865892D01*
X118300500Y-93734108D01*
X118266392Y-93606814D01*
X118266390Y-93606811D01*
X118266390Y-93606809D01*
X118200503Y-93492690D01*
X118200501Y-93492688D01*
X118200500Y-93492686D01*
X118141922Y-93434108D01*
X120599500Y-93434108D01*
X120599500Y-93565892D01*
X120610464Y-93606809D01*
X120633609Y-93693190D01*
X120699496Y-93807309D01*
X120699498Y-93807311D01*
X120699500Y-93807314D01*
X120792686Y-93900500D01*
X120792688Y-93900501D01*
X120792690Y-93900503D01*
X120906810Y-93966390D01*
X120906808Y-93966390D01*
X120906812Y-93966391D01*
X120906814Y-93966392D01*
X121034108Y-94000500D01*
X121034110Y-94000500D01*
X121165890Y-94000500D01*
X121165892Y-94000500D01*
X121293186Y-93966392D01*
X121293188Y-93966390D01*
X121293190Y-93966390D01*
X121407309Y-93900503D01*
X121407309Y-93900502D01*
X121407314Y-93900500D01*
X121500500Y-93807314D01*
X121566392Y-93693186D01*
X121600500Y-93565892D01*
X121600500Y-93434108D01*
X121566392Y-93306814D01*
X121566390Y-93306811D01*
X121566390Y-93306809D01*
X121500503Y-93192690D01*
X121500501Y-93192688D01*
X121500500Y-93192686D01*
X121407314Y-93099500D01*
X121407311Y-93099498D01*
X121407309Y-93099496D01*
X121293189Y-93033609D01*
X121293191Y-93033609D01*
X121243799Y-93020375D01*
X121165892Y-92999500D01*
X121034108Y-92999500D01*
X120956200Y-93020375D01*
X120906809Y-93033609D01*
X120792690Y-93099496D01*
X120699496Y-93192690D01*
X120633609Y-93306809D01*
X120626428Y-93333609D01*
X120599500Y-93434108D01*
X118141922Y-93434108D01*
X118107314Y-93399500D01*
X118107311Y-93399498D01*
X118107309Y-93399496D01*
X117993189Y-93333609D01*
X117993191Y-93333609D01*
X117943799Y-93320375D01*
X117865892Y-93299500D01*
X117734108Y-93299500D01*
X117656200Y-93320375D01*
X117606809Y-93333609D01*
X117492690Y-93399496D01*
X117399496Y-93492690D01*
X117333609Y-93606809D01*
X117333608Y-93606814D01*
X117299500Y-93734108D01*
X100500500Y-93734108D01*
X100500500Y-92334108D01*
X117349500Y-92334108D01*
X117349500Y-92465892D01*
X117379579Y-92578151D01*
X117383609Y-92593190D01*
X117449496Y-92707309D01*
X117449498Y-92707311D01*
X117449500Y-92707314D01*
X117542686Y-92800500D01*
X117542688Y-92800501D01*
X117542690Y-92800503D01*
X117656810Y-92866390D01*
X117656808Y-92866390D01*
X117656812Y-92866391D01*
X117656814Y-92866392D01*
X117784108Y-92900500D01*
X117784110Y-92900500D01*
X117915890Y-92900500D01*
X117915892Y-92900500D01*
X118043186Y-92866392D01*
X118043188Y-92866390D01*
X118043190Y-92866390D01*
X118157309Y-92800503D01*
X118157309Y-92800502D01*
X118157314Y-92800500D01*
X118250500Y-92707314D01*
X118316392Y-92593186D01*
X118350500Y-92465892D01*
X118350500Y-92334108D01*
X118316392Y-92206814D01*
X118316390Y-92206811D01*
X118316390Y-92206809D01*
X118250503Y-92092690D01*
X118250501Y-92092688D01*
X118250500Y-92092686D01*
X118157314Y-91999500D01*
X118157311Y-91999498D01*
X118157309Y-91999496D01*
X118043189Y-91933609D01*
X118043191Y-91933609D01*
X117993799Y-91920375D01*
X117915892Y-91899500D01*
X117784108Y-91899500D01*
X117706200Y-91920375D01*
X117656809Y-91933609D01*
X117542690Y-91999496D01*
X117449496Y-92092690D01*
X117383609Y-92206809D01*
X117383608Y-92206814D01*
X117349500Y-92334108D01*
X100500500Y-92334108D01*
X100500500Y-90484108D01*
X105399500Y-90484108D01*
X105399500Y-90615892D01*
X105429579Y-90728151D01*
X105433609Y-90743190D01*
X105499496Y-90857309D01*
X105499498Y-90857311D01*
X105499500Y-90857314D01*
X105592686Y-90950500D01*
X105592688Y-90950501D01*
X105592690Y-90950503D01*
X105706810Y-91016390D01*
X105706808Y-91016390D01*
X105706812Y-91016391D01*
X105706814Y-91016392D01*
X105834108Y-91050500D01*
X105834110Y-91050500D01*
X105965890Y-91050500D01*
X105965892Y-91050500D01*
X106093186Y-91016392D01*
X106093188Y-91016390D01*
X106093190Y-91016390D01*
X106207309Y-90950503D01*
X106207309Y-90950502D01*
X106207314Y-90950500D01*
X106300500Y-90857314D01*
X106366392Y-90743186D01*
X106400500Y-90615892D01*
X106400500Y-90484108D01*
X106366392Y-90356814D01*
X106366390Y-90356811D01*
X106366390Y-90356809D01*
X106300503Y-90242690D01*
X106300501Y-90242688D01*
X106300500Y-90242686D01*
X106207314Y-90149500D01*
X106207311Y-90149498D01*
X106207309Y-90149496D01*
X106093189Y-90083609D01*
X106093191Y-90083609D01*
X106043799Y-90070375D01*
X105965892Y-90049500D01*
X105834108Y-90049500D01*
X105756200Y-90070375D01*
X105706809Y-90083609D01*
X105592690Y-90149496D01*
X105499496Y-90242690D01*
X105433609Y-90356809D01*
X105433608Y-90356814D01*
X105399500Y-90484108D01*
X100500500Y-90484108D01*
X100500500Y-89659108D01*
X144799500Y-89659108D01*
X144799500Y-89790892D01*
X144829579Y-89903151D01*
X144833609Y-89918190D01*
X144899496Y-90032309D01*
X144899498Y-90032311D01*
X144899500Y-90032314D01*
X144992686Y-90125500D01*
X144992688Y-90125501D01*
X144992690Y-90125503D01*
X145106810Y-90191390D01*
X145106808Y-90191390D01*
X145106812Y-90191391D01*
X145106814Y-90191392D01*
X145234108Y-90225500D01*
X145234110Y-90225500D01*
X145365890Y-90225500D01*
X145365892Y-90225500D01*
X145493186Y-90191392D01*
X145493188Y-90191390D01*
X145493190Y-90191390D01*
X145607309Y-90125503D01*
X145607309Y-90125502D01*
X145607314Y-90125500D01*
X145700500Y-90032314D01*
X145766392Y-89918186D01*
X145800500Y-89790892D01*
X145800500Y-89659108D01*
X145766392Y-89531814D01*
X145766390Y-89531811D01*
X145766390Y-89531809D01*
X145700503Y-89417690D01*
X145700501Y-89417688D01*
X145700500Y-89417686D01*
X145607314Y-89324500D01*
X145607311Y-89324498D01*
X145607309Y-89324496D01*
X145493189Y-89258609D01*
X145493191Y-89258609D01*
X145443799Y-89245375D01*
X145365892Y-89224500D01*
X145234108Y-89224500D01*
X145156200Y-89245375D01*
X145106809Y-89258609D01*
X144992690Y-89324496D01*
X144899496Y-89417690D01*
X144833609Y-89531809D01*
X144833608Y-89531814D01*
X144799500Y-89659108D01*
X100500500Y-89659108D01*
X100500500Y-85884108D01*
X119499500Y-85884108D01*
X119499500Y-86015892D01*
X119520077Y-86092686D01*
X119533609Y-86143190D01*
X119599496Y-86257309D01*
X119599498Y-86257311D01*
X119599500Y-86257314D01*
X119692686Y-86350500D01*
X119692688Y-86350501D01*
X119692690Y-86350503D01*
X119806810Y-86416390D01*
X119806808Y-86416390D01*
X119806812Y-86416391D01*
X119806814Y-86416392D01*
X119934108Y-86450500D01*
X119934110Y-86450500D01*
X120065890Y-86450500D01*
X120065892Y-86450500D01*
X120193186Y-86416392D01*
X120193188Y-86416390D01*
X120193190Y-86416390D01*
X120307309Y-86350503D01*
X120307309Y-86350502D01*
X120307314Y-86350500D01*
X120400500Y-86257314D01*
X120466392Y-86143186D01*
X120495619Y-86034108D01*
X145324500Y-86034108D01*
X145324500Y-86165892D01*
X145335464Y-86206809D01*
X145358609Y-86293190D01*
X145424496Y-86407309D01*
X145424498Y-86407311D01*
X145424500Y-86407314D01*
X145517686Y-86500500D01*
X145517688Y-86500501D01*
X145517690Y-86500503D01*
X145631810Y-86566390D01*
X145631808Y-86566390D01*
X145631812Y-86566391D01*
X145631814Y-86566392D01*
X145759108Y-86600500D01*
X145759110Y-86600500D01*
X145890890Y-86600500D01*
X145890892Y-86600500D01*
X146018186Y-86566392D01*
X146018188Y-86566390D01*
X146018190Y-86566390D01*
X146132309Y-86500503D01*
X146132309Y-86500502D01*
X146132314Y-86500500D01*
X146225500Y-86407314D01*
X146234981Y-86390892D01*
X146291390Y-86293190D01*
X146291391Y-86293187D01*
X146291392Y-86293186D01*
X146325500Y-86165892D01*
X146325500Y-86034108D01*
X175349500Y-86034108D01*
X175349500Y-86165892D01*
X175360464Y-86206809D01*
X175383608Y-86293187D01*
X175431132Y-86375500D01*
X175443853Y-86435348D01*
X175431132Y-86474500D01*
X175383608Y-86556812D01*
X175373862Y-86593186D01*
X175349500Y-86684108D01*
X175349500Y-86815892D01*
X175379579Y-86928151D01*
X175383609Y-86943190D01*
X175449496Y-87057309D01*
X175449498Y-87057311D01*
X175449500Y-87057314D01*
X175542686Y-87150500D01*
X175542688Y-87150501D01*
X175542690Y-87150503D01*
X175656810Y-87216390D01*
X175656808Y-87216390D01*
X175656812Y-87216391D01*
X175656814Y-87216392D01*
X175784108Y-87250500D01*
X175784110Y-87250500D01*
X175915890Y-87250500D01*
X175915892Y-87250500D01*
X176043186Y-87216392D01*
X176125500Y-87168867D01*
X176185348Y-87156146D01*
X176224499Y-87168867D01*
X176306814Y-87216392D01*
X176434108Y-87250500D01*
X176434110Y-87250500D01*
X176565890Y-87250500D01*
X176565892Y-87250500D01*
X176693186Y-87216392D01*
X176693188Y-87216390D01*
X176693190Y-87216390D01*
X176807309Y-87150503D01*
X176807309Y-87150502D01*
X176807314Y-87150500D01*
X176900500Y-87057314D01*
X176966392Y-86943186D01*
X177000500Y-86815892D01*
X177000500Y-86684108D01*
X176966392Y-86556814D01*
X176918867Y-86474499D01*
X176914682Y-86454813D01*
X176906277Y-86436524D01*
X176908502Y-86425737D01*
X176906146Y-86414652D01*
X176918282Y-86376528D01*
X176918553Y-86376044D01*
X176942765Y-86334108D01*
X177974500Y-86334108D01*
X177974500Y-86465892D01*
X177998862Y-86556812D01*
X178008609Y-86593190D01*
X178074496Y-86707309D01*
X178074498Y-86707311D01*
X178074500Y-86707314D01*
X178167686Y-86800500D01*
X178167688Y-86800501D01*
X178167690Y-86800503D01*
X178281810Y-86866390D01*
X178281808Y-86866390D01*
X178281812Y-86866391D01*
X178281814Y-86866392D01*
X178409108Y-86900500D01*
X178409110Y-86900500D01*
X178540890Y-86900500D01*
X178540892Y-86900500D01*
X178668186Y-86866392D01*
X178668188Y-86866390D01*
X178668190Y-86866390D01*
X178782309Y-86800503D01*
X178782309Y-86800502D01*
X178782314Y-86800500D01*
X178875500Y-86707314D01*
X178875503Y-86707309D01*
X178941390Y-86593190D01*
X178941390Y-86593188D01*
X178941392Y-86593186D01*
X178975500Y-86465892D01*
X178975500Y-86334108D01*
X178941392Y-86206814D01*
X178941390Y-86206811D01*
X178941390Y-86206809D01*
X178875503Y-86092690D01*
X178875501Y-86092688D01*
X178875500Y-86092686D01*
X178782314Y-85999500D01*
X178782311Y-85999498D01*
X178782309Y-85999496D01*
X178668189Y-85933609D01*
X178668191Y-85933609D01*
X178618799Y-85920375D01*
X178540892Y-85899500D01*
X178409108Y-85899500D01*
X178331200Y-85920375D01*
X178281809Y-85933609D01*
X178167690Y-85999496D01*
X178074496Y-86092690D01*
X178008609Y-86206809D01*
X178008608Y-86206814D01*
X177974500Y-86334108D01*
X176942765Y-86334108D01*
X176966392Y-86293186D01*
X177000500Y-86165892D01*
X177000500Y-86034108D01*
X176966392Y-85906814D01*
X176966390Y-85906811D01*
X176966390Y-85906809D01*
X176900503Y-85792690D01*
X176900501Y-85792688D01*
X176900500Y-85792686D01*
X176807314Y-85699500D01*
X176807311Y-85699498D01*
X176788011Y-85688355D01*
X176788009Y-85688353D01*
X176693189Y-85633609D01*
X176693191Y-85633609D01*
X176643799Y-85620375D01*
X176601750Y-85609108D01*
X181494065Y-85609108D01*
X181494065Y-85740892D01*
X181507943Y-85792686D01*
X181528173Y-85868187D01*
X181575697Y-85950500D01*
X181588418Y-86010348D01*
X181575697Y-86049500D01*
X181528173Y-86131812D01*
X181519042Y-86165890D01*
X181494065Y-86259108D01*
X181494065Y-86390892D01*
X181516468Y-86474501D01*
X181528174Y-86518190D01*
X181594061Y-86632309D01*
X181594063Y-86632311D01*
X181594065Y-86632314D01*
X181687251Y-86725500D01*
X181687253Y-86725501D01*
X181687255Y-86725503D01*
X181801375Y-86791390D01*
X181801373Y-86791390D01*
X181801377Y-86791391D01*
X181801379Y-86791392D01*
X181928673Y-86825500D01*
X181928675Y-86825500D01*
X182060455Y-86825500D01*
X182060457Y-86825500D01*
X182187751Y-86791392D01*
X182270065Y-86743867D01*
X182329913Y-86731146D01*
X182369064Y-86743867D01*
X182451379Y-86791392D01*
X182578673Y-86825500D01*
X182578675Y-86825500D01*
X182710455Y-86825500D01*
X182710457Y-86825500D01*
X182837751Y-86791392D01*
X182837753Y-86791390D01*
X182837755Y-86791390D01*
X182951874Y-86725503D01*
X182951874Y-86725502D01*
X182951879Y-86725500D01*
X183045065Y-86632314D01*
X183083125Y-86566392D01*
X183110955Y-86518190D01*
X183110955Y-86518188D01*
X183110957Y-86518186D01*
X183145065Y-86390892D01*
X183145065Y-86259108D01*
X183110957Y-86131814D01*
X183063432Y-86049499D01*
X183050711Y-85989652D01*
X183063433Y-85950499D01*
X183110957Y-85868186D01*
X183145065Y-85740892D01*
X183145065Y-85609108D01*
X183110957Y-85481814D01*
X183110955Y-85481811D01*
X183110955Y-85481809D01*
X183045068Y-85367690D01*
X183045066Y-85367688D01*
X183045065Y-85367686D01*
X182951879Y-85274500D01*
X182951876Y-85274498D01*
X182951874Y-85274496D01*
X182837754Y-85208609D01*
X182837756Y-85208609D01*
X182788364Y-85195375D01*
X182710457Y-85174500D01*
X182578673Y-85174500D01*
X182515026Y-85191554D01*
X182451377Y-85208608D01*
X182369065Y-85256132D01*
X182309217Y-85268853D01*
X182270065Y-85256132D01*
X182187752Y-85208608D01*
X182145319Y-85197238D01*
X182060457Y-85174500D01*
X181928673Y-85174500D01*
X181850765Y-85195375D01*
X181801374Y-85208609D01*
X181687255Y-85274496D01*
X181594061Y-85367690D01*
X181528174Y-85481809D01*
X181528173Y-85481814D01*
X181494065Y-85609108D01*
X176601750Y-85609108D01*
X176565892Y-85599500D01*
X176434108Y-85599500D01*
X176370461Y-85616554D01*
X176306812Y-85633608D01*
X176224500Y-85681132D01*
X176164652Y-85693853D01*
X176125500Y-85681132D01*
X176043187Y-85633608D01*
X176000754Y-85622238D01*
X175915892Y-85599500D01*
X175784108Y-85599500D01*
X175706200Y-85620375D01*
X175656809Y-85633609D01*
X175542690Y-85699496D01*
X175449496Y-85792690D01*
X175383609Y-85906809D01*
X175376428Y-85933609D01*
X175349500Y-86034108D01*
X146325500Y-86034108D01*
X146291392Y-85906814D01*
X146291390Y-85906811D01*
X146291390Y-85906809D01*
X146225503Y-85792690D01*
X146225501Y-85792688D01*
X146225500Y-85792686D01*
X146132314Y-85699500D01*
X146132311Y-85699498D01*
X146132309Y-85699496D01*
X146018189Y-85633609D01*
X146018191Y-85633609D01*
X145968799Y-85620375D01*
X145890892Y-85599500D01*
X145759108Y-85599500D01*
X145681200Y-85620375D01*
X145631809Y-85633609D01*
X145517690Y-85699496D01*
X145424496Y-85792690D01*
X145358609Y-85906809D01*
X145351428Y-85933609D01*
X145324500Y-86034108D01*
X120495619Y-86034108D01*
X120500500Y-86015892D01*
X120500500Y-85884108D01*
X120466392Y-85756814D01*
X120466390Y-85756811D01*
X120466390Y-85756809D01*
X120400503Y-85642690D01*
X120400501Y-85642688D01*
X120400500Y-85642686D01*
X120307314Y-85549500D01*
X120307311Y-85549498D01*
X120307309Y-85549496D01*
X120193189Y-85483609D01*
X120193191Y-85483609D01*
X120143799Y-85470375D01*
X120065892Y-85449500D01*
X119934108Y-85449500D01*
X119856200Y-85470375D01*
X119806809Y-85483609D01*
X119692690Y-85549496D01*
X119599496Y-85642690D01*
X119533609Y-85756809D01*
X119533608Y-85756814D01*
X119499500Y-85884108D01*
X100500500Y-85884108D01*
X100500500Y-84159108D01*
X106899500Y-84159108D01*
X106899500Y-84290892D01*
X106917296Y-84357309D01*
X106933609Y-84418190D01*
X106999496Y-84532309D01*
X106999498Y-84532311D01*
X106999500Y-84532314D01*
X107092686Y-84625500D01*
X107092688Y-84625501D01*
X107092690Y-84625503D01*
X107206810Y-84691390D01*
X107206808Y-84691390D01*
X107206812Y-84691391D01*
X107206814Y-84691392D01*
X107334108Y-84725500D01*
X107334110Y-84725500D01*
X107465890Y-84725500D01*
X107465892Y-84725500D01*
X107593186Y-84691392D01*
X107593188Y-84691390D01*
X107593190Y-84691390D01*
X107707309Y-84625503D01*
X107707309Y-84625502D01*
X107707314Y-84625500D01*
X107800500Y-84532314D01*
X107847734Y-84450503D01*
X107866390Y-84418190D01*
X107866390Y-84418188D01*
X107866392Y-84418186D01*
X107900500Y-84290892D01*
X107900500Y-84159108D01*
X107866392Y-84031814D01*
X107838849Y-83984108D01*
X114899500Y-83984108D01*
X114899500Y-84115892D01*
X114911080Y-84159108D01*
X114933609Y-84243190D01*
X114999496Y-84357309D01*
X114999498Y-84357311D01*
X114999500Y-84357314D01*
X115092686Y-84450500D01*
X115092688Y-84450501D01*
X115092690Y-84450503D01*
X115206810Y-84516390D01*
X115206808Y-84516390D01*
X115206812Y-84516391D01*
X115206814Y-84516392D01*
X115334108Y-84550500D01*
X115334110Y-84550500D01*
X115465890Y-84550500D01*
X115465892Y-84550500D01*
X115593186Y-84516392D01*
X115593188Y-84516390D01*
X115593190Y-84516390D01*
X115707309Y-84450503D01*
X115707309Y-84450502D01*
X115707314Y-84450500D01*
X115800500Y-84357314D01*
X115866392Y-84243186D01*
X115900500Y-84115892D01*
X115900500Y-83984108D01*
X115866392Y-83856814D01*
X115866390Y-83856811D01*
X115866390Y-83856809D01*
X115800503Y-83742690D01*
X115800501Y-83742688D01*
X115800500Y-83742686D01*
X115707314Y-83649500D01*
X115707311Y-83649498D01*
X115707309Y-83649496D01*
X115593189Y-83583609D01*
X115593191Y-83583609D01*
X115543799Y-83570375D01*
X115465892Y-83549500D01*
X115334108Y-83549500D01*
X115256200Y-83570375D01*
X115206809Y-83583609D01*
X115092690Y-83649496D01*
X114999496Y-83742690D01*
X114933609Y-83856809D01*
X114933608Y-83856814D01*
X114899500Y-83984108D01*
X107838849Y-83984108D01*
X107800500Y-83917686D01*
X107800499Y-83917685D01*
X107798083Y-83913500D01*
X107785362Y-83853652D01*
X107810249Y-83797756D01*
X107813798Y-83794015D01*
X107900500Y-83707314D01*
X107933879Y-83649500D01*
X107966390Y-83593190D01*
X107966390Y-83593188D01*
X107966392Y-83593186D01*
X108000500Y-83465892D01*
X108000500Y-83384108D01*
X144599500Y-83384108D01*
X144599500Y-83515892D01*
X144617644Y-83583608D01*
X144633609Y-83643190D01*
X144699496Y-83757309D01*
X144699498Y-83757311D01*
X144699500Y-83757314D01*
X144792686Y-83850500D01*
X144792688Y-83850501D01*
X144792690Y-83850503D01*
X144906810Y-83916390D01*
X144906808Y-83916390D01*
X144906812Y-83916391D01*
X144906814Y-83916392D01*
X145034108Y-83950500D01*
X145034110Y-83950500D01*
X145165890Y-83950500D01*
X145165892Y-83950500D01*
X145293186Y-83916392D01*
X145293188Y-83916390D01*
X145293190Y-83916390D01*
X145407309Y-83850503D01*
X145407309Y-83850502D01*
X145407314Y-83850500D01*
X145500500Y-83757314D01*
X145529368Y-83707314D01*
X145566390Y-83643190D01*
X145566390Y-83643188D01*
X145566392Y-83643186D01*
X145600500Y-83515892D01*
X145600500Y-83384108D01*
X145566392Y-83256814D01*
X145566390Y-83256811D01*
X145566390Y-83256809D01*
X145500503Y-83142690D01*
X145500501Y-83142688D01*
X145500500Y-83142686D01*
X145407314Y-83049500D01*
X145407311Y-83049498D01*
X145407309Y-83049496D01*
X145293189Y-82983609D01*
X145293191Y-82983609D01*
X145243799Y-82970375D01*
X145165892Y-82949500D01*
X145034108Y-82949500D01*
X144956200Y-82970375D01*
X144906809Y-82983609D01*
X144792690Y-83049496D01*
X144699496Y-83142690D01*
X144633609Y-83256809D01*
X144633608Y-83256814D01*
X144599500Y-83384108D01*
X108000500Y-83384108D01*
X108000500Y-83334108D01*
X107966392Y-83206814D01*
X107966390Y-83206811D01*
X107966390Y-83206809D01*
X107900503Y-83092690D01*
X107900501Y-83092688D01*
X107900500Y-83092686D01*
X107807314Y-82999500D01*
X107807311Y-82999498D01*
X107807309Y-82999496D01*
X107693189Y-82933609D01*
X107693191Y-82933609D01*
X107632390Y-82917318D01*
X107565892Y-82899500D01*
X107434108Y-82899500D01*
X107367610Y-82917318D01*
X107306809Y-82933609D01*
X107192690Y-82999496D01*
X107099496Y-83092690D01*
X107033609Y-83206809D01*
X107021902Y-83250500D01*
X106999500Y-83334108D01*
X106999500Y-83465892D01*
X107029579Y-83578151D01*
X107033609Y-83593190D01*
X107101915Y-83711498D01*
X107114637Y-83771346D01*
X107089750Y-83827242D01*
X107086183Y-83831001D01*
X106999500Y-83917684D01*
X106999496Y-83917690D01*
X106933609Y-84031809D01*
X106933608Y-84031814D01*
X106899500Y-84159108D01*
X100500500Y-84159108D01*
X100500500Y-82584108D01*
X105199500Y-82584108D01*
X105199500Y-82715892D01*
X105225600Y-82813298D01*
X105233609Y-82843190D01*
X105299496Y-82957309D01*
X105299498Y-82957311D01*
X105299500Y-82957314D01*
X105392686Y-83050500D01*
X105392688Y-83050501D01*
X105392690Y-83050503D01*
X105506810Y-83116390D01*
X105506808Y-83116390D01*
X105506812Y-83116391D01*
X105506814Y-83116392D01*
X105634108Y-83150500D01*
X105634110Y-83150500D01*
X105765890Y-83150500D01*
X105765892Y-83150500D01*
X105893186Y-83116392D01*
X105893188Y-83116390D01*
X105893190Y-83116390D01*
X106007309Y-83050503D01*
X106007309Y-83050502D01*
X106007314Y-83050500D01*
X106100500Y-82957314D01*
X106100503Y-82957309D01*
X106166390Y-82843190D01*
X106166390Y-82843188D01*
X106166392Y-82843186D01*
X106200500Y-82715892D01*
X106200500Y-82584108D01*
X106166392Y-82456814D01*
X106166390Y-82456811D01*
X106166390Y-82456809D01*
X106100503Y-82342690D01*
X106100501Y-82342688D01*
X106100500Y-82342686D01*
X106007314Y-82249500D01*
X106007311Y-82249498D01*
X106007309Y-82249496D01*
X105893189Y-82183609D01*
X105893191Y-82183609D01*
X105837242Y-82168618D01*
X105765892Y-82149500D01*
X105634108Y-82149500D01*
X105562758Y-82168618D01*
X105506809Y-82183609D01*
X105392690Y-82249496D01*
X105299496Y-82342690D01*
X105233609Y-82456809D01*
X105225339Y-82487674D01*
X105199500Y-82584108D01*
X100500500Y-82584108D01*
X100500500Y-81934108D01*
X111199500Y-81934108D01*
X111199500Y-82065892D01*
X111226428Y-82166390D01*
X111233609Y-82193190D01*
X111299496Y-82307309D01*
X111299498Y-82307311D01*
X111299500Y-82307314D01*
X111392686Y-82400500D01*
X111392688Y-82400501D01*
X111392690Y-82400503D01*
X111506810Y-82466390D01*
X111506811Y-82466390D01*
X111506814Y-82466392D01*
X111586244Y-82487675D01*
X111637558Y-82520998D01*
X111659485Y-82578119D01*
X111656248Y-82608923D01*
X111649500Y-82634108D01*
X111649500Y-82765892D01*
X111670211Y-82843186D01*
X111683609Y-82893190D01*
X111749496Y-83007309D01*
X111749498Y-83007311D01*
X111749500Y-83007314D01*
X111842686Y-83100500D01*
X111842688Y-83100501D01*
X111842690Y-83100503D01*
X111956810Y-83166390D01*
X111956808Y-83166390D01*
X111956812Y-83166391D01*
X111956814Y-83166392D01*
X112084108Y-83200500D01*
X112084110Y-83200500D01*
X112215890Y-83200500D01*
X112215892Y-83200500D01*
X112343186Y-83166392D01*
X112343188Y-83166390D01*
X112343190Y-83166390D01*
X112457309Y-83100503D01*
X112457309Y-83100502D01*
X112457314Y-83100500D01*
X112550500Y-83007314D01*
X112550503Y-83007309D01*
X112616390Y-82893190D01*
X112616390Y-82893188D01*
X112616392Y-82893186D01*
X112650500Y-82765892D01*
X112650500Y-82684108D01*
X147499500Y-82684108D01*
X147499500Y-82815892D01*
X147526677Y-82917318D01*
X147533609Y-82943190D01*
X147599496Y-83057309D01*
X147599498Y-83057311D01*
X147599500Y-83057314D01*
X147692686Y-83150500D01*
X147692688Y-83150501D01*
X147692690Y-83150503D01*
X147806810Y-83216390D01*
X147806808Y-83216390D01*
X147806812Y-83216391D01*
X147806814Y-83216392D01*
X147934108Y-83250500D01*
X147934110Y-83250500D01*
X148065890Y-83250500D01*
X148065892Y-83250500D01*
X148193186Y-83216392D01*
X148193188Y-83216390D01*
X148193190Y-83216390D01*
X148307309Y-83150503D01*
X148307309Y-83150502D01*
X148307314Y-83150500D01*
X148400500Y-83057314D01*
X148404434Y-83050500D01*
X148466390Y-82943190D01*
X148466390Y-82943188D01*
X148466392Y-82943186D01*
X148500500Y-82815892D01*
X148500500Y-82684108D01*
X148466392Y-82556814D01*
X148466390Y-82556811D01*
X148466390Y-82556809D01*
X148400503Y-82442690D01*
X148400501Y-82442688D01*
X148400500Y-82442686D01*
X148307314Y-82349500D01*
X148307311Y-82349498D01*
X148307309Y-82349496D01*
X148193189Y-82283609D01*
X148193191Y-82283609D01*
X148143799Y-82270375D01*
X148065892Y-82249500D01*
X147934108Y-82249500D01*
X147856200Y-82270375D01*
X147806809Y-82283609D01*
X147692690Y-82349496D01*
X147599496Y-82442690D01*
X147533609Y-82556809D01*
X147514539Y-82627978D01*
X147499500Y-82684108D01*
X112650500Y-82684108D01*
X112650500Y-82634108D01*
X112616392Y-82506814D01*
X112616390Y-82506811D01*
X112616390Y-82506809D01*
X112550503Y-82392690D01*
X112550501Y-82392688D01*
X112550500Y-82392686D01*
X112457314Y-82299500D01*
X112457311Y-82299498D01*
X112457309Y-82299496D01*
X112343189Y-82233609D01*
X112343191Y-82233609D01*
X112298917Y-82221746D01*
X112263754Y-82212324D01*
X112212441Y-82179001D01*
X112190514Y-82121879D01*
X112193751Y-82091078D01*
X112200500Y-82065892D01*
X112200500Y-81934108D01*
X112166392Y-81806814D01*
X112166390Y-81806811D01*
X112166390Y-81806809D01*
X112100503Y-81692690D01*
X112100501Y-81692688D01*
X112100500Y-81692686D01*
X112041922Y-81634108D01*
X155149500Y-81634108D01*
X155149500Y-81765892D01*
X155160464Y-81806809D01*
X155183609Y-81893190D01*
X155249496Y-82007309D01*
X155249498Y-82007311D01*
X155249500Y-82007314D01*
X155342686Y-82100500D01*
X155342688Y-82100501D01*
X155342690Y-82100503D01*
X155456810Y-82166390D01*
X155456808Y-82166390D01*
X155456812Y-82166391D01*
X155456814Y-82166392D01*
X155584108Y-82200500D01*
X155584110Y-82200500D01*
X155715890Y-82200500D01*
X155715892Y-82200500D01*
X155843186Y-82166392D01*
X155843188Y-82166390D01*
X155843190Y-82166390D01*
X155957309Y-82100503D01*
X155957309Y-82100502D01*
X155957314Y-82100500D01*
X156050500Y-82007314D01*
X156065471Y-81981384D01*
X156065473Y-81981381D01*
X195474500Y-81981381D01*
X195474500Y-82168618D01*
X195511026Y-82352249D01*
X195582677Y-82525229D01*
X195582681Y-82525238D01*
X195638599Y-82608923D01*
X195686698Y-82680908D01*
X195819092Y-82813302D01*
X195863817Y-82843186D01*
X195974761Y-82917318D01*
X195974767Y-82917320D01*
X195974769Y-82917322D01*
X196147749Y-82988973D01*
X196331384Y-83025500D01*
X196331385Y-83025500D01*
X196518615Y-83025500D01*
X196518616Y-83025500D01*
X196702251Y-82988973D01*
X196875231Y-82917322D01*
X196875234Y-82917319D01*
X196875238Y-82917318D01*
X196920187Y-82887282D01*
X197030908Y-82813302D01*
X197163302Y-82680908D01*
X197246222Y-82556809D01*
X197267318Y-82525238D01*
X197267319Y-82525234D01*
X197267322Y-82525231D01*
X197338973Y-82352251D01*
X197375500Y-82168616D01*
X197375500Y-81981384D01*
X197338973Y-81797749D01*
X197267322Y-81624769D01*
X197267320Y-81624767D01*
X197267318Y-81624761D01*
X197188507Y-81506814D01*
X197163302Y-81469092D01*
X197030908Y-81336698D01*
X196975237Y-81299500D01*
X196875238Y-81232681D01*
X196875229Y-81232677D01*
X196702249Y-81161026D01*
X196518618Y-81124500D01*
X196518616Y-81124500D01*
X196331384Y-81124500D01*
X196331381Y-81124500D01*
X196147750Y-81161026D01*
X195974770Y-81232677D01*
X195974761Y-81232681D01*
X195819092Y-81336698D01*
X195819088Y-81336701D01*
X195686701Y-81469088D01*
X195686698Y-81469092D01*
X195582681Y-81624761D01*
X195582677Y-81624770D01*
X195511026Y-81797750D01*
X195474500Y-81981381D01*
X156065473Y-81981381D01*
X156096854Y-81927027D01*
X156096858Y-81927020D01*
X156101148Y-81919589D01*
X156116392Y-81893186D01*
X156150500Y-81765892D01*
X156150500Y-81634108D01*
X156116392Y-81506814D01*
X156116390Y-81506811D01*
X156116390Y-81506809D01*
X156050503Y-81392690D01*
X156050501Y-81392688D01*
X156050500Y-81392686D01*
X155957314Y-81299500D01*
X155957311Y-81299498D01*
X155957309Y-81299496D01*
X155843189Y-81233609D01*
X155843191Y-81233609D01*
X155778927Y-81216390D01*
X155715892Y-81199500D01*
X155584108Y-81199500D01*
X155521073Y-81216390D01*
X155456809Y-81233609D01*
X155342690Y-81299496D01*
X155249496Y-81392690D01*
X155183609Y-81506809D01*
X155176428Y-81533609D01*
X155149500Y-81634108D01*
X112041922Y-81634108D01*
X112007314Y-81599500D01*
X112007311Y-81599498D01*
X112007309Y-81599496D01*
X111893189Y-81533609D01*
X111893191Y-81533609D01*
X111843799Y-81520375D01*
X111765892Y-81499500D01*
X111634108Y-81499500D01*
X111556200Y-81520375D01*
X111506809Y-81533609D01*
X111392690Y-81599496D01*
X111299496Y-81692690D01*
X111233609Y-81806809D01*
X111233608Y-81806814D01*
X111199500Y-81934108D01*
X100500500Y-81934108D01*
X100500500Y-80534108D01*
X106999500Y-80534108D01*
X106999500Y-80665892D01*
X107029579Y-80778151D01*
X107033609Y-80793190D01*
X107099496Y-80907309D01*
X107099498Y-80907311D01*
X107099500Y-80907314D01*
X107192686Y-81000500D01*
X107192688Y-81000501D01*
X107192690Y-81000503D01*
X107306810Y-81066390D01*
X107306808Y-81066390D01*
X107306812Y-81066391D01*
X107306814Y-81066392D01*
X107434108Y-81100500D01*
X107434110Y-81100500D01*
X107565890Y-81100500D01*
X107565892Y-81100500D01*
X107693186Y-81066392D01*
X107693188Y-81066390D01*
X107693190Y-81066390D01*
X107807309Y-81000503D01*
X107807309Y-81000502D01*
X107807314Y-81000500D01*
X107900500Y-80907314D01*
X107953284Y-80815890D01*
X107966390Y-80793190D01*
X107966390Y-80793188D01*
X107966392Y-80793186D01*
X108000500Y-80665892D01*
X108000500Y-80534108D01*
X107967007Y-80409108D01*
X110424500Y-80409108D01*
X110424500Y-80540892D01*
X110454269Y-80651994D01*
X110458609Y-80668190D01*
X110524496Y-80782309D01*
X110524498Y-80782311D01*
X110524500Y-80782314D01*
X110617686Y-80875500D01*
X110617688Y-80875501D01*
X110617690Y-80875503D01*
X110731810Y-80941390D01*
X110731808Y-80941390D01*
X110731812Y-80941391D01*
X110731814Y-80941392D01*
X110859108Y-80975500D01*
X110859110Y-80975500D01*
X110990890Y-80975500D01*
X110990892Y-80975500D01*
X111118186Y-80941392D01*
X111118188Y-80941390D01*
X111118190Y-80941390D01*
X111232309Y-80875503D01*
X111232309Y-80875502D01*
X111232314Y-80875500D01*
X111325500Y-80782314D01*
X111382199Y-80684108D01*
X118149500Y-80684108D01*
X118149500Y-80815892D01*
X118165472Y-80875500D01*
X118183609Y-80943190D01*
X118249496Y-81057309D01*
X118249498Y-81057311D01*
X118249500Y-81057314D01*
X118342686Y-81150500D01*
X118342688Y-81150501D01*
X118342690Y-81150503D01*
X118456810Y-81216390D01*
X118456808Y-81216390D01*
X118456812Y-81216391D01*
X118456814Y-81216392D01*
X118584108Y-81250500D01*
X118584110Y-81250500D01*
X118715890Y-81250500D01*
X118715892Y-81250500D01*
X118843186Y-81216392D01*
X118843188Y-81216390D01*
X118843190Y-81216390D01*
X118957309Y-81150503D01*
X118957309Y-81150502D01*
X118957314Y-81150500D01*
X119050500Y-81057314D01*
X119089184Y-80990312D01*
X119116390Y-80943190D01*
X119116390Y-80943188D01*
X119116392Y-80943186D01*
X119150500Y-80815892D01*
X119150500Y-80684108D01*
X119121265Y-80575000D01*
X184509686Y-80575000D01*
X184551015Y-80652324D01*
X184551022Y-80652334D01*
X184684730Y-80815259D01*
X184684740Y-80815269D01*
X184847660Y-80948974D01*
X184847666Y-80948978D01*
X184924999Y-80990312D01*
X184925000Y-80990312D01*
X184925000Y-80575001D01*
X187925000Y-80575001D01*
X187925000Y-80990312D01*
X188002333Y-80948978D01*
X188002339Y-80948974D01*
X188165259Y-80815269D01*
X188165269Y-80815259D01*
X188298977Y-80652334D01*
X188298984Y-80652324D01*
X188340314Y-80575000D01*
X187925001Y-80575000D01*
X187925000Y-80575001D01*
X184925000Y-80575001D01*
X184924999Y-80575000D01*
X184509686Y-80575000D01*
X119121265Y-80575000D01*
X119116392Y-80556814D01*
X119116390Y-80556811D01*
X119116390Y-80556809D01*
X119050503Y-80442690D01*
X119050501Y-80442688D01*
X119050500Y-80442686D01*
X118957314Y-80349500D01*
X118957311Y-80349498D01*
X118957309Y-80349496D01*
X118843189Y-80283609D01*
X118843191Y-80283609D01*
X118793799Y-80270375D01*
X118715892Y-80249500D01*
X118584108Y-80249500D01*
X118506200Y-80270375D01*
X118456809Y-80283609D01*
X118342690Y-80349496D01*
X118249496Y-80442690D01*
X118183609Y-80556809D01*
X118183608Y-80556814D01*
X118149500Y-80684108D01*
X111382199Y-80684108D01*
X111391392Y-80668186D01*
X111394177Y-80657788D01*
X111395731Y-80651994D01*
X111408597Y-80603972D01*
X111425500Y-80540892D01*
X111425500Y-80409108D01*
X111391392Y-80281814D01*
X111391390Y-80281811D01*
X111391390Y-80281809D01*
X111325503Y-80167690D01*
X111325501Y-80167688D01*
X111325500Y-80167686D01*
X111232314Y-80074500D01*
X111232311Y-80074498D01*
X111232309Y-80074496D01*
X111118189Y-80008609D01*
X111118191Y-80008609D01*
X111043111Y-79988492D01*
X110990892Y-79974500D01*
X110859108Y-79974500D01*
X110806889Y-79988492D01*
X110731809Y-80008609D01*
X110617690Y-80074496D01*
X110524496Y-80167690D01*
X110458609Y-80281809D01*
X110451775Y-80307314D01*
X110424500Y-80409108D01*
X107967007Y-80409108D01*
X107966392Y-80406814D01*
X107966390Y-80406811D01*
X107966390Y-80406809D01*
X107900503Y-80292690D01*
X107900501Y-80292688D01*
X107900500Y-80292686D01*
X107807314Y-80199500D01*
X107807311Y-80199498D01*
X107807309Y-80199496D01*
X107693189Y-80133609D01*
X107693191Y-80133609D01*
X107643799Y-80120375D01*
X107565892Y-80099500D01*
X107434108Y-80099500D01*
X107356200Y-80120375D01*
X107306809Y-80133609D01*
X107192690Y-80199496D01*
X107099496Y-80292690D01*
X107033609Y-80406809D01*
X107027866Y-80428242D01*
X106999500Y-80534108D01*
X100500500Y-80534108D01*
X100500500Y-79884108D01*
X147499500Y-79884108D01*
X147499500Y-80015892D01*
X147529579Y-80128151D01*
X147533609Y-80143190D01*
X147599496Y-80257309D01*
X147599498Y-80257311D01*
X147599500Y-80257314D01*
X147692686Y-80350500D01*
X147692688Y-80350501D01*
X147692690Y-80350503D01*
X147806810Y-80416390D01*
X147806808Y-80416390D01*
X147806812Y-80416391D01*
X147806814Y-80416392D01*
X147934108Y-80450500D01*
X147934110Y-80450500D01*
X148065890Y-80450500D01*
X148065892Y-80450500D01*
X148193186Y-80416392D01*
X148193188Y-80416390D01*
X148193190Y-80416390D01*
X148307309Y-80350503D01*
X148307309Y-80350502D01*
X148307314Y-80350500D01*
X148400500Y-80257314D01*
X148400503Y-80257309D01*
X148466390Y-80143190D01*
X148466390Y-80143188D01*
X148466392Y-80143186D01*
X148500500Y-80015892D01*
X148500500Y-79934108D01*
X153099500Y-79934108D01*
X153099500Y-80065892D01*
X153117644Y-80133608D01*
X153133609Y-80193190D01*
X153199496Y-80307309D01*
X153199498Y-80307311D01*
X153199500Y-80307314D01*
X153292686Y-80400500D01*
X153292688Y-80400501D01*
X153292690Y-80400503D01*
X153406810Y-80466390D01*
X153406808Y-80466390D01*
X153406812Y-80466391D01*
X153406814Y-80466392D01*
X153534108Y-80500500D01*
X153534110Y-80500500D01*
X153665890Y-80500500D01*
X153665892Y-80500500D01*
X153793186Y-80466392D01*
X153793188Y-80466390D01*
X153793190Y-80466390D01*
X153907309Y-80400503D01*
X153907309Y-80400502D01*
X153907314Y-80400500D01*
X154000500Y-80307314D01*
X154014187Y-80283608D01*
X154066390Y-80193190D01*
X154066390Y-80193188D01*
X154066392Y-80193186D01*
X154100500Y-80065892D01*
X154100500Y-79934108D01*
X154066392Y-79806814D01*
X154066390Y-79806811D01*
X154066390Y-79806809D01*
X154000503Y-79692690D01*
X154000501Y-79692688D01*
X154000500Y-79692686D01*
X153907314Y-79599500D01*
X153907311Y-79599498D01*
X153907309Y-79599496D01*
X153793189Y-79533609D01*
X153793191Y-79533609D01*
X153743799Y-79520375D01*
X153665892Y-79499500D01*
X153534108Y-79499500D01*
X153456200Y-79520375D01*
X153406809Y-79533609D01*
X153292690Y-79599496D01*
X153199496Y-79692690D01*
X153133609Y-79806809D01*
X153114539Y-79877978D01*
X153099500Y-79934108D01*
X148500500Y-79934108D01*
X148500500Y-79884108D01*
X148466392Y-79756814D01*
X148466390Y-79756811D01*
X148466390Y-79756809D01*
X148400503Y-79642690D01*
X148400501Y-79642688D01*
X148400500Y-79642686D01*
X148307314Y-79549500D01*
X148307311Y-79549498D01*
X148307309Y-79549496D01*
X148193189Y-79483609D01*
X148193191Y-79483609D01*
X148143799Y-79470375D01*
X148065892Y-79449500D01*
X147934108Y-79449500D01*
X147856200Y-79470375D01*
X147806809Y-79483609D01*
X147692690Y-79549496D01*
X147599496Y-79642690D01*
X147533609Y-79756809D01*
X147533608Y-79756814D01*
X147499500Y-79884108D01*
X100500500Y-79884108D01*
X100500500Y-78409108D01*
X119624500Y-78409108D01*
X119624500Y-78540892D01*
X119636080Y-78584108D01*
X119658609Y-78668190D01*
X119724496Y-78782309D01*
X119724498Y-78782311D01*
X119724500Y-78782314D01*
X119817686Y-78875500D01*
X119817688Y-78875501D01*
X119817690Y-78875503D01*
X119931810Y-78941390D01*
X119931808Y-78941390D01*
X119931812Y-78941391D01*
X119931814Y-78941392D01*
X120059108Y-78975500D01*
X120059110Y-78975500D01*
X120190890Y-78975500D01*
X120190892Y-78975500D01*
X120318186Y-78941392D01*
X120318188Y-78941390D01*
X120318190Y-78941390D01*
X120432309Y-78875503D01*
X120432309Y-78875502D01*
X120432314Y-78875500D01*
X120525500Y-78782314D01*
X120582199Y-78684109D01*
X120591390Y-78668190D01*
X120591390Y-78668188D01*
X120591392Y-78668186D01*
X120613920Y-78584108D01*
X146199500Y-78584108D01*
X146199500Y-78715892D01*
X146226294Y-78815890D01*
X146233609Y-78843190D01*
X146299496Y-78957309D01*
X146299498Y-78957311D01*
X146299500Y-78957314D01*
X146392686Y-79050500D01*
X146392688Y-79050501D01*
X146392690Y-79050503D01*
X146506810Y-79116390D01*
X146506808Y-79116390D01*
X146506812Y-79116391D01*
X146506814Y-79116392D01*
X146634108Y-79150500D01*
X146634110Y-79150500D01*
X146765890Y-79150500D01*
X146765892Y-79150500D01*
X146893186Y-79116392D01*
X146893188Y-79116390D01*
X146893190Y-79116390D01*
X147007309Y-79050503D01*
X147007309Y-79050502D01*
X147007314Y-79050500D01*
X147100500Y-78957314D01*
X147147734Y-78875503D01*
X147166390Y-78843190D01*
X147166390Y-78843188D01*
X147166392Y-78843186D01*
X147200500Y-78715892D01*
X147200500Y-78684108D01*
X148249500Y-78684108D01*
X148249500Y-78815892D01*
X148265472Y-78875500D01*
X148283609Y-78943190D01*
X148349496Y-79057309D01*
X148349498Y-79057311D01*
X148349500Y-79057314D01*
X148442686Y-79150500D01*
X148442688Y-79150501D01*
X148442690Y-79150503D01*
X148556810Y-79216390D01*
X148556808Y-79216390D01*
X148556812Y-79216391D01*
X148556814Y-79216392D01*
X148684108Y-79250500D01*
X148684110Y-79250500D01*
X148815890Y-79250500D01*
X148815892Y-79250500D01*
X148943186Y-79216392D01*
X148943188Y-79216390D01*
X148943190Y-79216390D01*
X149057309Y-79150503D01*
X149057309Y-79150502D01*
X149057314Y-79150500D01*
X149150500Y-79057314D01*
X149194310Y-78981433D01*
X185475000Y-78981433D01*
X185475000Y-79168567D01*
X185511508Y-79352105D01*
X185583121Y-79524994D01*
X185687087Y-79680590D01*
X185819410Y-79812913D01*
X185975006Y-79916879D01*
X186147895Y-79988492D01*
X186331433Y-80025000D01*
X186518567Y-80025000D01*
X186702105Y-79988492D01*
X186874994Y-79916879D01*
X187030590Y-79812913D01*
X187162913Y-79680590D01*
X187266879Y-79524994D01*
X187338492Y-79352105D01*
X187375000Y-79168567D01*
X187375000Y-78981433D01*
X187338492Y-78797895D01*
X187266879Y-78625006D01*
X187162913Y-78469410D01*
X187030590Y-78337087D01*
X186874994Y-78233121D01*
X186702105Y-78161508D01*
X186518567Y-78125000D01*
X186331433Y-78125000D01*
X186147895Y-78161508D01*
X185975006Y-78233121D01*
X185819410Y-78337087D01*
X185687087Y-78469410D01*
X185583121Y-78625006D01*
X185511508Y-78797895D01*
X185475000Y-78981433D01*
X149194310Y-78981433D01*
X149216390Y-78943190D01*
X149216390Y-78943188D01*
X149216392Y-78943186D01*
X149250500Y-78815892D01*
X149250500Y-78684108D01*
X149216392Y-78556814D01*
X149216390Y-78556811D01*
X149216390Y-78556809D01*
X149150503Y-78442690D01*
X149150501Y-78442688D01*
X149150500Y-78442686D01*
X149057314Y-78349500D01*
X149057311Y-78349498D01*
X149057309Y-78349496D01*
X148943189Y-78283609D01*
X148943191Y-78283609D01*
X148893799Y-78270375D01*
X148815892Y-78249500D01*
X148684108Y-78249500D01*
X148606200Y-78270375D01*
X148556809Y-78283609D01*
X148442690Y-78349496D01*
X148349496Y-78442690D01*
X148283609Y-78556809D01*
X148276294Y-78584109D01*
X148249500Y-78684108D01*
X147200500Y-78684108D01*
X147200500Y-78584108D01*
X147166392Y-78456814D01*
X147166390Y-78456811D01*
X147166390Y-78456809D01*
X147100503Y-78342690D01*
X147100501Y-78342688D01*
X147100500Y-78342686D01*
X147007314Y-78249500D01*
X147007311Y-78249498D01*
X147007309Y-78249496D01*
X146893189Y-78183609D01*
X146893191Y-78183609D01*
X146843799Y-78170375D01*
X146765892Y-78149500D01*
X146634108Y-78149500D01*
X146556200Y-78170375D01*
X146506809Y-78183609D01*
X146392690Y-78249496D01*
X146299496Y-78342690D01*
X146233609Y-78456809D01*
X146233608Y-78456814D01*
X146199500Y-78584108D01*
X120613920Y-78584108D01*
X120625500Y-78540892D01*
X120625500Y-78409108D01*
X120591392Y-78281814D01*
X120591390Y-78281811D01*
X120591390Y-78281809D01*
X120525503Y-78167690D01*
X120525501Y-78167688D01*
X120525500Y-78167686D01*
X120432314Y-78074500D01*
X120432311Y-78074498D01*
X120432309Y-78074496D01*
X120318189Y-78008609D01*
X120318191Y-78008609D01*
X120268799Y-77995375D01*
X120190892Y-77974500D01*
X120059108Y-77974500D01*
X119981200Y-77995375D01*
X119931809Y-78008609D01*
X119817690Y-78074496D01*
X119724496Y-78167690D01*
X119658609Y-78281809D01*
X119658608Y-78281814D01*
X119624500Y-78409108D01*
X100500500Y-78409108D01*
X100500500Y-76884108D01*
X147999500Y-76884108D01*
X147999500Y-77015892D01*
X148006199Y-77040892D01*
X148033609Y-77143190D01*
X148099496Y-77257309D01*
X148099498Y-77257311D01*
X148099500Y-77257314D01*
X148192686Y-77350500D01*
X148192688Y-77350501D01*
X148192690Y-77350503D01*
X148306810Y-77416390D01*
X148306808Y-77416390D01*
X148306812Y-77416391D01*
X148306814Y-77416392D01*
X148434108Y-77450500D01*
X148434110Y-77450500D01*
X148565890Y-77450500D01*
X148565892Y-77450500D01*
X148693186Y-77416392D01*
X148693188Y-77416390D01*
X148693190Y-77416390D01*
X148807309Y-77350503D01*
X148807309Y-77350502D01*
X148807314Y-77350500D01*
X148900500Y-77257314D01*
X148933000Y-77201022D01*
X148966390Y-77143190D01*
X148966390Y-77143188D01*
X148966392Y-77143186D01*
X149000500Y-77015892D01*
X149000500Y-76909108D01*
X155013100Y-76909108D01*
X155013100Y-77040892D01*
X155040509Y-77143186D01*
X155047209Y-77168190D01*
X155113096Y-77282309D01*
X155113098Y-77282311D01*
X155113100Y-77282314D01*
X155206286Y-77375500D01*
X155206288Y-77375501D01*
X155206290Y-77375503D01*
X155320410Y-77441390D01*
X155320408Y-77441390D01*
X155320412Y-77441391D01*
X155320414Y-77441392D01*
X155447708Y-77475500D01*
X155447710Y-77475500D01*
X155579490Y-77475500D01*
X155579492Y-77475500D01*
X155706786Y-77441392D01*
X155706788Y-77441390D01*
X155706790Y-77441390D01*
X155820909Y-77375503D01*
X155820909Y-77375502D01*
X155820914Y-77375500D01*
X155914100Y-77282314D01*
X155979992Y-77168186D01*
X156014100Y-77040892D01*
X156014100Y-77012991D01*
X163444500Y-77012991D01*
X163444500Y-77187008D01*
X163471719Y-77358867D01*
X163490410Y-77416392D01*
X163525493Y-77524365D01*
X163604492Y-77679408D01*
X163706772Y-77820185D01*
X163829815Y-77943228D01*
X163970592Y-78045508D01*
X164125635Y-78124507D01*
X164291128Y-78178279D01*
X164291129Y-78178279D01*
X164291132Y-78178280D01*
X164462992Y-78205500D01*
X164462995Y-78205500D01*
X164637008Y-78205500D01*
X164808867Y-78178280D01*
X164808868Y-78178279D01*
X164808872Y-78178279D01*
X164974365Y-78124507D01*
X165129408Y-78045508D01*
X165270185Y-77943228D01*
X165393228Y-77820185D01*
X165495508Y-77679408D01*
X165548707Y-77574999D01*
X184509685Y-77574999D01*
X184509686Y-77575000D01*
X184924999Y-77575000D01*
X184925000Y-77574999D01*
X187925000Y-77574999D01*
X187925001Y-77575000D01*
X188340314Y-77575000D01*
X188340314Y-77574999D01*
X188298984Y-77497675D01*
X188298977Y-77497665D01*
X188165269Y-77334740D01*
X188165259Y-77334730D01*
X188002334Y-77201022D01*
X188002324Y-77201015D01*
X187925000Y-77159685D01*
X187925000Y-77574999D01*
X184925000Y-77574999D01*
X184925000Y-77159686D01*
X184924999Y-77159685D01*
X184847675Y-77201015D01*
X184847665Y-77201022D01*
X184684740Y-77334730D01*
X184684730Y-77334740D01*
X184551022Y-77497665D01*
X184551015Y-77497675D01*
X184509685Y-77574999D01*
X165548707Y-77574999D01*
X165574507Y-77524365D01*
X165628279Y-77358872D01*
X165640405Y-77282314D01*
X165655500Y-77187008D01*
X165655500Y-77012991D01*
X165628280Y-76841132D01*
X165628279Y-76841128D01*
X165574507Y-76675635D01*
X165495508Y-76520592D01*
X165393228Y-76379815D01*
X165270185Y-76256772D01*
X165129408Y-76154492D01*
X165129407Y-76154491D01*
X165129405Y-76154490D01*
X165056316Y-76117249D01*
X164974365Y-76075493D01*
X164869038Y-76041270D01*
X164808867Y-76021719D01*
X164637008Y-75994500D01*
X164637005Y-75994500D01*
X164462995Y-75994500D01*
X164462992Y-75994500D01*
X164291132Y-76021719D01*
X164125637Y-76075492D01*
X163970594Y-76154490D01*
X163900203Y-76205632D01*
X163829815Y-76256772D01*
X163706772Y-76379815D01*
X163656143Y-76449500D01*
X163604490Y-76520594D01*
X163525492Y-76675637D01*
X163471719Y-76841132D01*
X163444500Y-77012991D01*
X156014100Y-77012991D01*
X156014100Y-76909108D01*
X155979992Y-76781814D01*
X155979990Y-76781811D01*
X155979990Y-76781809D01*
X155914103Y-76667690D01*
X155914101Y-76667688D01*
X155914100Y-76667686D01*
X155820914Y-76574500D01*
X155820911Y-76574498D01*
X155820909Y-76574496D01*
X155706789Y-76508609D01*
X155706791Y-76508609D01*
X155657399Y-76495375D01*
X155579492Y-76474500D01*
X155447708Y-76474500D01*
X155369800Y-76495375D01*
X155320409Y-76508609D01*
X155206290Y-76574496D01*
X155113096Y-76667690D01*
X155047209Y-76781809D01*
X155047208Y-76781814D01*
X155013100Y-76909108D01*
X149000500Y-76909108D01*
X149000500Y-76884108D01*
X148966392Y-76756814D01*
X148966390Y-76756811D01*
X148966390Y-76756809D01*
X148900503Y-76642690D01*
X148900501Y-76642688D01*
X148900500Y-76642686D01*
X148807314Y-76549500D01*
X148807311Y-76549498D01*
X148807309Y-76549496D01*
X148693189Y-76483609D01*
X148693191Y-76483609D01*
X148643799Y-76470375D01*
X148565892Y-76449500D01*
X148434108Y-76449500D01*
X148356200Y-76470375D01*
X148306809Y-76483609D01*
X148192690Y-76549496D01*
X148099496Y-76642690D01*
X148033609Y-76756809D01*
X148026909Y-76781814D01*
X147999500Y-76884108D01*
X100500500Y-76884108D01*
X100500500Y-75884108D01*
X119674500Y-75884108D01*
X119674500Y-76015892D01*
X119690472Y-76075500D01*
X119708609Y-76143190D01*
X119774496Y-76257309D01*
X119774498Y-76257311D01*
X119774500Y-76257314D01*
X119867686Y-76350500D01*
X119867688Y-76350501D01*
X119867690Y-76350503D01*
X119981810Y-76416390D01*
X119981808Y-76416390D01*
X119981812Y-76416391D01*
X119981814Y-76416392D01*
X120109108Y-76450500D01*
X120109110Y-76450500D01*
X120240890Y-76450500D01*
X120240892Y-76450500D01*
X120368186Y-76416392D01*
X120368188Y-76416390D01*
X120368190Y-76416390D01*
X120482309Y-76350503D01*
X120482309Y-76350502D01*
X120482314Y-76350500D01*
X120575500Y-76257314D01*
X120575813Y-76256772D01*
X120641390Y-76143190D01*
X120641390Y-76143188D01*
X120641392Y-76143186D01*
X120675500Y-76015892D01*
X120675500Y-75884108D01*
X120641392Y-75756814D01*
X120641390Y-75756811D01*
X120641390Y-75756809D01*
X120575503Y-75642690D01*
X120575501Y-75642688D01*
X120575500Y-75642686D01*
X120482314Y-75549500D01*
X120482311Y-75549498D01*
X120482309Y-75549496D01*
X120368189Y-75483609D01*
X120368191Y-75483609D01*
X120318799Y-75470375D01*
X120240892Y-75449500D01*
X120109108Y-75449500D01*
X120031200Y-75470375D01*
X119981809Y-75483609D01*
X119867690Y-75549496D01*
X119774496Y-75642690D01*
X119708609Y-75756809D01*
X119708608Y-75756814D01*
X119674500Y-75884108D01*
X100500500Y-75884108D01*
X100500500Y-75259108D01*
X114599500Y-75259108D01*
X114599500Y-75390892D01*
X114615204Y-75449500D01*
X114633609Y-75518190D01*
X114699496Y-75632309D01*
X114699498Y-75632311D01*
X114699500Y-75632314D01*
X114792686Y-75725500D01*
X114792688Y-75725501D01*
X114792690Y-75725503D01*
X114906810Y-75791390D01*
X114906808Y-75791390D01*
X114906812Y-75791391D01*
X114906814Y-75791392D01*
X115034108Y-75825500D01*
X115034110Y-75825500D01*
X115165890Y-75825500D01*
X115165892Y-75825500D01*
X115293186Y-75791392D01*
X115293188Y-75791390D01*
X115293190Y-75791390D01*
X115407309Y-75725503D01*
X115407309Y-75725502D01*
X115407314Y-75725500D01*
X115500500Y-75632314D01*
X115500503Y-75632309D01*
X115566390Y-75518190D01*
X115566390Y-75518188D01*
X115566392Y-75518186D01*
X115600500Y-75390892D01*
X115600500Y-75259108D01*
X115566392Y-75131814D01*
X115566390Y-75131811D01*
X115566390Y-75131809D01*
X115500503Y-75017690D01*
X115500501Y-75017688D01*
X115500500Y-75017686D01*
X115407314Y-74924500D01*
X115407311Y-74924498D01*
X115407309Y-74924496D01*
X115293189Y-74858609D01*
X115293191Y-74858609D01*
X115241993Y-74844891D01*
X115165892Y-74824500D01*
X115034108Y-74824500D01*
X114958007Y-74844891D01*
X114906809Y-74858609D01*
X114792690Y-74924496D01*
X114699496Y-75017690D01*
X114633609Y-75131809D01*
X114633608Y-75131814D01*
X114599500Y-75259108D01*
X100500500Y-75259108D01*
X100500500Y-74334108D01*
X117299500Y-74334108D01*
X117299500Y-74465892D01*
X117329579Y-74578151D01*
X117333609Y-74593190D01*
X117399496Y-74707309D01*
X117399498Y-74707311D01*
X117399500Y-74707314D01*
X117422130Y-74729944D01*
X117449906Y-74784459D01*
X117440335Y-74844891D01*
X117437863Y-74849443D01*
X117433609Y-74856810D01*
X117433608Y-74856814D01*
X117399500Y-74984108D01*
X117399500Y-75115892D01*
X117405801Y-75139408D01*
X117433609Y-75243190D01*
X117499496Y-75357309D01*
X117499498Y-75357311D01*
X117499500Y-75357314D01*
X117592686Y-75450500D01*
X117592688Y-75450501D01*
X117592690Y-75450503D01*
X117706810Y-75516390D01*
X117706808Y-75516390D01*
X117706812Y-75516391D01*
X117706814Y-75516392D01*
X117834108Y-75550500D01*
X117834110Y-75550500D01*
X117965890Y-75550500D01*
X117965892Y-75550500D01*
X118093186Y-75516392D01*
X118093188Y-75516390D01*
X118093190Y-75516390D01*
X118207309Y-75450503D01*
X118207309Y-75450502D01*
X118207314Y-75450500D01*
X118300500Y-75357314D01*
X118357199Y-75259109D01*
X118366390Y-75243190D01*
X118366390Y-75243188D01*
X118366392Y-75243186D01*
X118400500Y-75115892D01*
X118400500Y-74984108D01*
X118366392Y-74856814D01*
X118366390Y-74856810D01*
X118366390Y-74856809D01*
X118300503Y-74742690D01*
X118300501Y-74742688D01*
X118300500Y-74742686D01*
X118277868Y-74720054D01*
X118250093Y-74665540D01*
X118252673Y-74622891D01*
X118256025Y-74611141D01*
X118266392Y-74593186D01*
X118298598Y-74472991D01*
X163444500Y-74472991D01*
X163444500Y-74647008D01*
X163471719Y-74818867D01*
X163480175Y-74844891D01*
X163525493Y-74984365D01*
X163542471Y-75017686D01*
X163600622Y-75131814D01*
X163604492Y-75139408D01*
X163706772Y-75280185D01*
X163829815Y-75403228D01*
X163970592Y-75505508D01*
X164125635Y-75584507D01*
X164291128Y-75638279D01*
X164291129Y-75638279D01*
X164291132Y-75638280D01*
X164462992Y-75665500D01*
X164462995Y-75665500D01*
X164637008Y-75665500D01*
X164808867Y-75638280D01*
X164808868Y-75638279D01*
X164808872Y-75638279D01*
X164974365Y-75584507D01*
X165129408Y-75505508D01*
X165270185Y-75403228D01*
X165393228Y-75280185D01*
X165495508Y-75139408D01*
X165574507Y-74984365D01*
X165628279Y-74818872D01*
X165628280Y-74818867D01*
X165655500Y-74647008D01*
X165655500Y-74472991D01*
X165628280Y-74301132D01*
X165597634Y-74206814D01*
X165574507Y-74135635D01*
X165520671Y-74029977D01*
X165498052Y-73985584D01*
X165495509Y-73980594D01*
X165495508Y-73980592D01*
X165468835Y-73943879D01*
X184424500Y-73943879D01*
X184424500Y-74206120D01*
X184458700Y-74465892D01*
X184458730Y-74466116D01*
X184526600Y-74719411D01*
X184526604Y-74719424D01*
X184626953Y-74961689D01*
X184626955Y-74961693D01*
X184626957Y-74961697D01*
X184704860Y-75096630D01*
X184725173Y-75131814D01*
X184758076Y-75188803D01*
X184917718Y-75396851D01*
X185103149Y-75582282D01*
X185311197Y-75741924D01*
X185538303Y-75873043D01*
X185780581Y-75973398D01*
X186033884Y-76041270D01*
X186293880Y-76075500D01*
X186293881Y-76075500D01*
X186556119Y-76075500D01*
X186556120Y-76075500D01*
X186816116Y-76041270D01*
X187069419Y-75973398D01*
X187311697Y-75873043D01*
X187538803Y-75741924D01*
X187746851Y-75582282D01*
X187932282Y-75396851D01*
X188091924Y-75188803D01*
X188223043Y-74961697D01*
X188323398Y-74719419D01*
X188391270Y-74466116D01*
X188425500Y-74206120D01*
X188425500Y-73943880D01*
X188391270Y-73683884D01*
X188323398Y-73430581D01*
X188223043Y-73188303D01*
X188091924Y-72961197D01*
X187932282Y-72753149D01*
X187746851Y-72567718D01*
X187583913Y-72442690D01*
X187538802Y-72408075D01*
X187437339Y-72349496D01*
X187311697Y-72276957D01*
X187311693Y-72276955D01*
X187311689Y-72276953D01*
X187069424Y-72176604D01*
X187069423Y-72176603D01*
X187069419Y-72176602D01*
X186816116Y-72108730D01*
X186816111Y-72108729D01*
X186816110Y-72108729D01*
X186556120Y-72074500D01*
X186293880Y-72074500D01*
X186293879Y-72074500D01*
X186033889Y-72108729D01*
X186033886Y-72108729D01*
X186033884Y-72108730D01*
X185907158Y-72142686D01*
X185780588Y-72176600D01*
X185780575Y-72176604D01*
X185538310Y-72276953D01*
X185311197Y-72408075D01*
X185103152Y-72567715D01*
X184917715Y-72753152D01*
X184758075Y-72961197D01*
X184626953Y-73188310D01*
X184526604Y-73430575D01*
X184526600Y-73430588D01*
X184520193Y-73454500D01*
X184477324Y-73614492D01*
X184458729Y-73683889D01*
X184424500Y-73943879D01*
X165468835Y-73943879D01*
X165393228Y-73839815D01*
X165270185Y-73716772D01*
X165129408Y-73614492D01*
X165129407Y-73614491D01*
X165129405Y-73614490D01*
X165056316Y-73577249D01*
X164974365Y-73535493D01*
X164974362Y-73535492D01*
X164808867Y-73481719D01*
X164637008Y-73454500D01*
X164637005Y-73454500D01*
X164462995Y-73454500D01*
X164462992Y-73454500D01*
X164291132Y-73481719D01*
X164125637Y-73535492D01*
X163970594Y-73614490D01*
X163900203Y-73665632D01*
X163829815Y-73716772D01*
X163706772Y-73839815D01*
X163663409Y-73899500D01*
X163604490Y-73980594D01*
X163525492Y-74135637D01*
X163471719Y-74301132D01*
X163444500Y-74472991D01*
X118298598Y-74472991D01*
X118300500Y-74465892D01*
X118300500Y-74334108D01*
X118266392Y-74206814D01*
X118266390Y-74206811D01*
X118266390Y-74206809D01*
X118200503Y-74092690D01*
X118200501Y-74092688D01*
X118200500Y-74092686D01*
X118107314Y-73999500D01*
X118107311Y-73999498D01*
X118107309Y-73999496D01*
X117993189Y-73933609D01*
X117993191Y-73933609D01*
X117943799Y-73920375D01*
X117865892Y-73899500D01*
X117734108Y-73899500D01*
X117656200Y-73920375D01*
X117606809Y-73933609D01*
X117492690Y-73999496D01*
X117399496Y-74092690D01*
X117333609Y-74206809D01*
X117333608Y-74206814D01*
X117299500Y-74334108D01*
X100500500Y-74334108D01*
X100500500Y-73234108D01*
X106149500Y-73234108D01*
X106149500Y-73365892D01*
X106165873Y-73426996D01*
X106183609Y-73493190D01*
X106249496Y-73607309D01*
X106249498Y-73607311D01*
X106249500Y-73607314D01*
X106342686Y-73700500D01*
X106342688Y-73700501D01*
X106342690Y-73700503D01*
X106456810Y-73766390D01*
X106456808Y-73766390D01*
X106456812Y-73766391D01*
X106456814Y-73766392D01*
X106584108Y-73800500D01*
X106584110Y-73800500D01*
X106715890Y-73800500D01*
X106715892Y-73800500D01*
X106843186Y-73766392D01*
X106843188Y-73766390D01*
X106843190Y-73766390D01*
X106957309Y-73700503D01*
X106957309Y-73700502D01*
X106957314Y-73700500D01*
X107050500Y-73607314D01*
X107059981Y-73590892D01*
X107116390Y-73493190D01*
X107116390Y-73493188D01*
X107116392Y-73493186D01*
X107125523Y-73459108D01*
X120499500Y-73459108D01*
X120499500Y-73590892D01*
X120505823Y-73614490D01*
X120533609Y-73718190D01*
X120599496Y-73832309D01*
X120599498Y-73832311D01*
X120599500Y-73832314D01*
X120692686Y-73925500D01*
X120692688Y-73925501D01*
X120692690Y-73925503D01*
X120806810Y-73991390D01*
X120806808Y-73991390D01*
X120806812Y-73991391D01*
X120806814Y-73991392D01*
X120934108Y-74025500D01*
X120934110Y-74025500D01*
X121065890Y-74025500D01*
X121065892Y-74025500D01*
X121193186Y-73991392D01*
X121193188Y-73991390D01*
X121193190Y-73991390D01*
X121307309Y-73925503D01*
X121307309Y-73925502D01*
X121307314Y-73925500D01*
X121400500Y-73832314D01*
X121438560Y-73766392D01*
X121466390Y-73718190D01*
X121466390Y-73718188D01*
X121466392Y-73718186D01*
X121500500Y-73590892D01*
X121500500Y-73559108D01*
X154949500Y-73559108D01*
X154949500Y-73690892D01*
X154969730Y-73766392D01*
X154983609Y-73818190D01*
X155049496Y-73932309D01*
X155049498Y-73932311D01*
X155049500Y-73932314D01*
X155142686Y-74025500D01*
X155142688Y-74025501D01*
X155142690Y-74025503D01*
X155256810Y-74091390D01*
X155256808Y-74091390D01*
X155256812Y-74091391D01*
X155256814Y-74091392D01*
X155384108Y-74125500D01*
X155384110Y-74125500D01*
X155515890Y-74125500D01*
X155515892Y-74125500D01*
X155643186Y-74091392D01*
X155643188Y-74091390D01*
X155643190Y-74091390D01*
X155757309Y-74025503D01*
X155757309Y-74025502D01*
X155757314Y-74025500D01*
X155850500Y-73932314D01*
X155869445Y-73899500D01*
X155916390Y-73818190D01*
X155916390Y-73818188D01*
X155916392Y-73818186D01*
X155950500Y-73690892D01*
X155950500Y-73559108D01*
X155916392Y-73431814D01*
X155916390Y-73431811D01*
X155916390Y-73431809D01*
X155850503Y-73317690D01*
X155850501Y-73317688D01*
X155850500Y-73317686D01*
X155757314Y-73224500D01*
X155757311Y-73224498D01*
X155757309Y-73224496D01*
X155643189Y-73158609D01*
X155643191Y-73158609D01*
X155593799Y-73145375D01*
X155515892Y-73124500D01*
X155384108Y-73124500D01*
X155306200Y-73145375D01*
X155256809Y-73158609D01*
X155142690Y-73224496D01*
X155049496Y-73317690D01*
X154983609Y-73431809D01*
X154964539Y-73502978D01*
X154949500Y-73559108D01*
X121500500Y-73559108D01*
X121500500Y-73459108D01*
X121466392Y-73331814D01*
X121466390Y-73331811D01*
X121466390Y-73331809D01*
X121400503Y-73217690D01*
X121400501Y-73217688D01*
X121400500Y-73217686D01*
X121307314Y-73124500D01*
X121307311Y-73124498D01*
X121307309Y-73124496D01*
X121193189Y-73058609D01*
X121193191Y-73058609D01*
X121143799Y-73045375D01*
X121065892Y-73024500D01*
X120934108Y-73024500D01*
X120856200Y-73045375D01*
X120806809Y-73058609D01*
X120692690Y-73124496D01*
X120599496Y-73217690D01*
X120533609Y-73331809D01*
X120533608Y-73331814D01*
X120499500Y-73459108D01*
X107125523Y-73459108D01*
X107150500Y-73365892D01*
X107150500Y-73234108D01*
X107116392Y-73106814D01*
X107116390Y-73106811D01*
X107116390Y-73106809D01*
X107050503Y-72992690D01*
X107050501Y-72992688D01*
X107050500Y-72992686D01*
X106957314Y-72899500D01*
X106957311Y-72899498D01*
X106957309Y-72899496D01*
X106843189Y-72833609D01*
X106843191Y-72833609D01*
X106777068Y-72815892D01*
X106715892Y-72799500D01*
X106584108Y-72799500D01*
X106522932Y-72815892D01*
X106456809Y-72833609D01*
X106342690Y-72899496D01*
X106249496Y-72992690D01*
X106183609Y-73106809D01*
X106183608Y-73106814D01*
X106149500Y-73234108D01*
X100500500Y-73234108D01*
X100500500Y-72684108D01*
X117399500Y-72684108D01*
X117399500Y-72815892D01*
X117426428Y-72916390D01*
X117433609Y-72943190D01*
X117499496Y-73057309D01*
X117499498Y-73057311D01*
X117499500Y-73057314D01*
X117592686Y-73150500D01*
X117592688Y-73150501D01*
X117592690Y-73150503D01*
X117706810Y-73216390D01*
X117706808Y-73216390D01*
X117706812Y-73216391D01*
X117706814Y-73216392D01*
X117834108Y-73250500D01*
X117834110Y-73250500D01*
X117965890Y-73250500D01*
X117965892Y-73250500D01*
X118093186Y-73216392D01*
X118093188Y-73216390D01*
X118093190Y-73216390D01*
X118207309Y-73150503D01*
X118207309Y-73150502D01*
X118207314Y-73150500D01*
X118300500Y-73057314D01*
X118337813Y-72992686D01*
X118366390Y-72943190D01*
X118366390Y-72943188D01*
X118366392Y-72943186D01*
X118400500Y-72815892D01*
X118400500Y-72684108D01*
X118366392Y-72556814D01*
X118366390Y-72556811D01*
X118366390Y-72556809D01*
X118300503Y-72442690D01*
X118300501Y-72442688D01*
X118300500Y-72442686D01*
X118241922Y-72384108D01*
X146874500Y-72384108D01*
X146874500Y-72515892D01*
X146885464Y-72556809D01*
X146908609Y-72643190D01*
X146974496Y-72757309D01*
X146974498Y-72757311D01*
X146974500Y-72757314D01*
X147067686Y-72850500D01*
X147067688Y-72850501D01*
X147067690Y-72850503D01*
X147181810Y-72916390D01*
X147181808Y-72916390D01*
X147181812Y-72916391D01*
X147181814Y-72916392D01*
X147309108Y-72950500D01*
X147309110Y-72950500D01*
X147440890Y-72950500D01*
X147440892Y-72950500D01*
X147568186Y-72916392D01*
X147568188Y-72916390D01*
X147568190Y-72916390D01*
X147682309Y-72850503D01*
X147682309Y-72850502D01*
X147682314Y-72850500D01*
X147775500Y-72757314D01*
X147841392Y-72643186D01*
X147875500Y-72515892D01*
X147875500Y-72384108D01*
X147841392Y-72256814D01*
X147841390Y-72256811D01*
X147841390Y-72256809D01*
X147775503Y-72142690D01*
X147775501Y-72142688D01*
X147775500Y-72142686D01*
X147682314Y-72049500D01*
X147682311Y-72049498D01*
X147682309Y-72049496D01*
X147568189Y-71983609D01*
X147568191Y-71983609D01*
X147518799Y-71970375D01*
X147440892Y-71949500D01*
X147309108Y-71949500D01*
X147231200Y-71970375D01*
X147181809Y-71983609D01*
X147067690Y-72049496D01*
X146974496Y-72142690D01*
X146908609Y-72256809D01*
X146901428Y-72283609D01*
X146874500Y-72384108D01*
X118241922Y-72384108D01*
X118207314Y-72349500D01*
X118207311Y-72349498D01*
X118207309Y-72349496D01*
X118093189Y-72283609D01*
X118093191Y-72283609D01*
X118043799Y-72270375D01*
X117965892Y-72249500D01*
X117834108Y-72249500D01*
X117756200Y-72270375D01*
X117706809Y-72283609D01*
X117592690Y-72349496D01*
X117499496Y-72442690D01*
X117433609Y-72556809D01*
X117433608Y-72556814D01*
X117399500Y-72684108D01*
X100500500Y-72684108D01*
X100500500Y-71662662D01*
X114920946Y-71662662D01*
X114920946Y-71794446D01*
X114951025Y-71906705D01*
X114955055Y-71921744D01*
X115020942Y-72035863D01*
X115020944Y-72035865D01*
X115020946Y-72035868D01*
X115114132Y-72129054D01*
X115114134Y-72129055D01*
X115114136Y-72129057D01*
X115228256Y-72194944D01*
X115228254Y-72194944D01*
X115228258Y-72194945D01*
X115228260Y-72194946D01*
X115355554Y-72229054D01*
X115355556Y-72229054D01*
X115487336Y-72229054D01*
X115487338Y-72229054D01*
X115614632Y-72194946D01*
X115614634Y-72194944D01*
X115614636Y-72194944D01*
X115728755Y-72129057D01*
X115728755Y-72129056D01*
X115728760Y-72129054D01*
X115821946Y-72035868D01*
X115852118Y-71983609D01*
X115887836Y-71921744D01*
X115887836Y-71921742D01*
X115887838Y-71921740D01*
X115921946Y-71794446D01*
X115921946Y-71662662D01*
X115887838Y-71535368D01*
X115887836Y-71535365D01*
X115887836Y-71535363D01*
X115821949Y-71421244D01*
X115821947Y-71421242D01*
X115821946Y-71421240D01*
X115728760Y-71328054D01*
X115728757Y-71328052D01*
X115728755Y-71328050D01*
X115614635Y-71262163D01*
X115614637Y-71262163D01*
X115565245Y-71248929D01*
X115487338Y-71228054D01*
X115355554Y-71228054D01*
X115277646Y-71248929D01*
X115228255Y-71262163D01*
X115114136Y-71328050D01*
X115020942Y-71421244D01*
X114955055Y-71535363D01*
X114955054Y-71535368D01*
X114920946Y-71662662D01*
X100500500Y-71662662D01*
X100500500Y-70354108D01*
X119499500Y-70354108D01*
X119499500Y-70485892D01*
X119501322Y-70492690D01*
X119533609Y-70613190D01*
X119599496Y-70727309D01*
X119599498Y-70727311D01*
X119599500Y-70727314D01*
X119692686Y-70820500D01*
X119692688Y-70820501D01*
X119692690Y-70820503D01*
X119806810Y-70886390D01*
X119806808Y-70886390D01*
X119806812Y-70886391D01*
X119806814Y-70886392D01*
X119934108Y-70920500D01*
X119934110Y-70920500D01*
X120065890Y-70920500D01*
X120065892Y-70920500D01*
X120193186Y-70886392D01*
X120193188Y-70886390D01*
X120193190Y-70886390D01*
X120307309Y-70820503D01*
X120307309Y-70820502D01*
X120307314Y-70820500D01*
X120365027Y-70762786D01*
X120419541Y-70735010D01*
X120479973Y-70744581D01*
X120523238Y-70787845D01*
X120530655Y-70807167D01*
X120533607Y-70818185D01*
X120533609Y-70818189D01*
X120599496Y-70932309D01*
X120599498Y-70932311D01*
X120599500Y-70932314D01*
X120692686Y-71025500D01*
X120692688Y-71025501D01*
X120692690Y-71025503D01*
X120806810Y-71091390D01*
X120806808Y-71091390D01*
X120806812Y-71091391D01*
X120806814Y-71091392D01*
X120934108Y-71125500D01*
X120934110Y-71125500D01*
X121065890Y-71125500D01*
X121065892Y-71125500D01*
X121127068Y-71109108D01*
X144749500Y-71109108D01*
X144749500Y-71240892D01*
X144756333Y-71266392D01*
X144783609Y-71368190D01*
X144849496Y-71482309D01*
X144849498Y-71482311D01*
X144849500Y-71482314D01*
X144942686Y-71575500D01*
X144942688Y-71575501D01*
X144942690Y-71575503D01*
X145056810Y-71641390D01*
X145056808Y-71641390D01*
X145056812Y-71641391D01*
X145056814Y-71641392D01*
X145184108Y-71675500D01*
X145184110Y-71675500D01*
X145315890Y-71675500D01*
X145315892Y-71675500D01*
X145443186Y-71641392D01*
X145443188Y-71641390D01*
X145443190Y-71641390D01*
X145557309Y-71575503D01*
X145557309Y-71575502D01*
X145557314Y-71575500D01*
X145650500Y-71482314D01*
X145716392Y-71368186D01*
X145750500Y-71240892D01*
X145750500Y-71109108D01*
X145716392Y-70981814D01*
X145716390Y-70981811D01*
X145716390Y-70981809D01*
X145650503Y-70867690D01*
X145650501Y-70867688D01*
X145650500Y-70867686D01*
X145557314Y-70774500D01*
X145557311Y-70774498D01*
X145557309Y-70774496D01*
X145443189Y-70708609D01*
X145443191Y-70708609D01*
X145377068Y-70690892D01*
X145315892Y-70674500D01*
X145184108Y-70674500D01*
X145122932Y-70690892D01*
X145056809Y-70708609D01*
X144942690Y-70774496D01*
X144849496Y-70867690D01*
X144783609Y-70981809D01*
X144783608Y-70981814D01*
X144749500Y-71109108D01*
X121127068Y-71109108D01*
X121193186Y-71091392D01*
X121193188Y-71091390D01*
X121193190Y-71091390D01*
X121307309Y-71025503D01*
X121307309Y-71025502D01*
X121307314Y-71025500D01*
X121400500Y-70932314D01*
X121437522Y-70868190D01*
X121466390Y-70818190D01*
X121466390Y-70818188D01*
X121466392Y-70818186D01*
X121500500Y-70690892D01*
X121500500Y-70559108D01*
X121466392Y-70431814D01*
X121466390Y-70431811D01*
X121466390Y-70431809D01*
X121400503Y-70317690D01*
X121400501Y-70317688D01*
X121400500Y-70317686D01*
X121307314Y-70224500D01*
X121307311Y-70224498D01*
X121307309Y-70224496D01*
X121193189Y-70158609D01*
X121193191Y-70158609D01*
X121143799Y-70145375D01*
X121065892Y-70124500D01*
X120934108Y-70124500D01*
X120856200Y-70145375D01*
X120806809Y-70158609D01*
X120692690Y-70224496D01*
X120692685Y-70224500D01*
X120634973Y-70282212D01*
X120580456Y-70309989D01*
X120520024Y-70300417D01*
X120476760Y-70257152D01*
X120469343Y-70237828D01*
X120467963Y-70232677D01*
X120466392Y-70226814D01*
X120465054Y-70224496D01*
X120400503Y-70112690D01*
X120400501Y-70112688D01*
X120400500Y-70112686D01*
X120307314Y-70019500D01*
X120307311Y-70019498D01*
X120307309Y-70019496D01*
X120193189Y-69953609D01*
X120193191Y-69953609D01*
X120143799Y-69940375D01*
X120065892Y-69919500D01*
X119934108Y-69919500D01*
X119856200Y-69940375D01*
X119806809Y-69953609D01*
X119692690Y-70019496D01*
X119599496Y-70112690D01*
X119533609Y-70226809D01*
X119524211Y-70261883D01*
X119499500Y-70354108D01*
X100500500Y-70354108D01*
X100500500Y-69734108D01*
X116899500Y-69734108D01*
X116899500Y-69865892D01*
X116929579Y-69978151D01*
X116933609Y-69993190D01*
X116999496Y-70107309D01*
X116999498Y-70107311D01*
X116999500Y-70107314D01*
X117092686Y-70200500D01*
X117092688Y-70200501D01*
X117092690Y-70200503D01*
X117206810Y-70266390D01*
X117206808Y-70266390D01*
X117206812Y-70266391D01*
X117206814Y-70266392D01*
X117334108Y-70300500D01*
X117334110Y-70300500D01*
X117465890Y-70300500D01*
X117465892Y-70300500D01*
X117593186Y-70266392D01*
X117707314Y-70200500D01*
X117800500Y-70107314D01*
X117866392Y-69993186D01*
X117900500Y-69865892D01*
X117900500Y-69734108D01*
X117866392Y-69606814D01*
X117866390Y-69606811D01*
X117866390Y-69606809D01*
X117800503Y-69492690D01*
X117800501Y-69492688D01*
X117800500Y-69492686D01*
X117716922Y-69409108D01*
X159049500Y-69409108D01*
X159049500Y-69540892D01*
X159067162Y-69606809D01*
X159083608Y-69668187D01*
X159123915Y-69738000D01*
X159136636Y-69797849D01*
X159123915Y-69837000D01*
X159083608Y-69906812D01*
X159071069Y-69953609D01*
X159049500Y-70034108D01*
X159049500Y-70165892D01*
X159058773Y-70200500D01*
X159083608Y-70293187D01*
X159109481Y-70338001D01*
X159122202Y-70397850D01*
X159109481Y-70436999D01*
X159083608Y-70481812D01*
X159062897Y-70559108D01*
X159049500Y-70609108D01*
X159049500Y-70740892D01*
X159070831Y-70820500D01*
X159083609Y-70868190D01*
X159149496Y-70982309D01*
X159149498Y-70982311D01*
X159149500Y-70982314D01*
X159242686Y-71075500D01*
X159242688Y-71075501D01*
X159242690Y-71075503D01*
X159356810Y-71141390D01*
X159356808Y-71141390D01*
X159356812Y-71141391D01*
X159356814Y-71141392D01*
X159484108Y-71175500D01*
X159484110Y-71175500D01*
X159615890Y-71175500D01*
X159615892Y-71175500D01*
X159743186Y-71141392D01*
X159812999Y-71101084D01*
X159872848Y-71088363D01*
X159911999Y-71101084D01*
X159981814Y-71141392D01*
X160109108Y-71175500D01*
X160109110Y-71175500D01*
X160240890Y-71175500D01*
X160240892Y-71175500D01*
X160368186Y-71141392D01*
X160437999Y-71101084D01*
X160497848Y-71088363D01*
X160536999Y-71101084D01*
X160606814Y-71141392D01*
X160734108Y-71175500D01*
X160734110Y-71175500D01*
X160865890Y-71175500D01*
X160865892Y-71175500D01*
X160993186Y-71141392D01*
X160993188Y-71141390D01*
X160993190Y-71141390D01*
X161107309Y-71075503D01*
X161107309Y-71075502D01*
X161107314Y-71075500D01*
X161200500Y-70982314D01*
X161229368Y-70932314D01*
X161266390Y-70868190D01*
X161266390Y-70868188D01*
X161266392Y-70868186D01*
X161300500Y-70740892D01*
X161300500Y-70734108D01*
X171182000Y-70734108D01*
X171182000Y-70865892D01*
X171187493Y-70886392D01*
X171216109Y-70993190D01*
X171281996Y-71107309D01*
X171281998Y-71107311D01*
X171282000Y-71107314D01*
X171375186Y-71200500D01*
X171375188Y-71200501D01*
X171375190Y-71200503D01*
X171489310Y-71266390D01*
X171489308Y-71266390D01*
X171489312Y-71266391D01*
X171489314Y-71266392D01*
X171616608Y-71300500D01*
X171616610Y-71300500D01*
X171748390Y-71300500D01*
X171748392Y-71300500D01*
X171875686Y-71266392D01*
X171875688Y-71266390D01*
X171875690Y-71266390D01*
X171989809Y-71200503D01*
X171989809Y-71200502D01*
X171989814Y-71200500D01*
X172083000Y-71107314D01*
X172092194Y-71091390D01*
X172148890Y-70993190D01*
X172148890Y-70993188D01*
X172148892Y-70993186D01*
X172152055Y-70981381D01*
X195474500Y-70981381D01*
X195474500Y-71168618D01*
X195511026Y-71352249D01*
X195582677Y-71525229D01*
X195582681Y-71525238D01*
X195657065Y-71636559D01*
X195686698Y-71680908D01*
X195819092Y-71813302D01*
X195885463Y-71857649D01*
X195974761Y-71917318D01*
X195974767Y-71917320D01*
X195974769Y-71917322D01*
X196147749Y-71988973D01*
X196331384Y-72025500D01*
X196331385Y-72025500D01*
X196518615Y-72025500D01*
X196518616Y-72025500D01*
X196702251Y-71988973D01*
X196875231Y-71917322D01*
X196875234Y-71917319D01*
X196875238Y-71917318D01*
X196920187Y-71887282D01*
X197030908Y-71813302D01*
X197163302Y-71680908D01*
X197260549Y-71535368D01*
X197267318Y-71525238D01*
X197267319Y-71525234D01*
X197267322Y-71525231D01*
X197338973Y-71352251D01*
X197375500Y-71168616D01*
X197375500Y-70981384D01*
X197338973Y-70797749D01*
X197267322Y-70624769D01*
X197267320Y-70624767D01*
X197267318Y-70624761D01*
X197207649Y-70535463D01*
X197163302Y-70469092D01*
X197030908Y-70336698D01*
X196975237Y-70299500D01*
X196875238Y-70232681D01*
X196875229Y-70232677D01*
X196702249Y-70161026D01*
X196518618Y-70124500D01*
X196518616Y-70124500D01*
X196331384Y-70124500D01*
X196331381Y-70124500D01*
X196147750Y-70161026D01*
X195974770Y-70232677D01*
X195974761Y-70232681D01*
X195819092Y-70336698D01*
X195819088Y-70336701D01*
X195686701Y-70469088D01*
X195686698Y-70469092D01*
X195582681Y-70624761D01*
X195582677Y-70624770D01*
X195511026Y-70797750D01*
X195474500Y-70981381D01*
X172152055Y-70981381D01*
X172183000Y-70865892D01*
X172183000Y-70734108D01*
X172148892Y-70606814D01*
X172148890Y-70606811D01*
X172148890Y-70606809D01*
X172083003Y-70492690D01*
X172083001Y-70492688D01*
X172083000Y-70492686D01*
X171989814Y-70399500D01*
X171989811Y-70399498D01*
X171989809Y-70399496D01*
X171875689Y-70333609D01*
X171875691Y-70333609D01*
X171826299Y-70320375D01*
X171748392Y-70299500D01*
X171616608Y-70299500D01*
X171538700Y-70320375D01*
X171489309Y-70333609D01*
X171375190Y-70399496D01*
X171281996Y-70492690D01*
X171216109Y-70606809D01*
X171197972Y-70674500D01*
X171182000Y-70734108D01*
X161300500Y-70734108D01*
X161300500Y-70609108D01*
X161266392Y-70481814D01*
X161240518Y-70436999D01*
X161227796Y-70377154D01*
X161240519Y-70337998D01*
X161252247Y-70317686D01*
X161266392Y-70293186D01*
X161300500Y-70165892D01*
X161300500Y-70034108D01*
X161266392Y-69906814D01*
X161226084Y-69837000D01*
X161213363Y-69777152D01*
X161226085Y-69737999D01*
X161228331Y-69734109D01*
X161266392Y-69668186D01*
X161300500Y-69540892D01*
X161300500Y-69409108D01*
X161266392Y-69281814D01*
X161266390Y-69281811D01*
X161266390Y-69281809D01*
X161200503Y-69167690D01*
X161200501Y-69167688D01*
X161200500Y-69167686D01*
X161107314Y-69074500D01*
X161107311Y-69074498D01*
X161107309Y-69074496D01*
X160993189Y-69008609D01*
X160993191Y-69008609D01*
X160943799Y-68995375D01*
X160865892Y-68974500D01*
X160734108Y-68974500D01*
X160670461Y-68991554D01*
X160606812Y-69008608D01*
X160537000Y-69048915D01*
X160477151Y-69061636D01*
X160438000Y-69048915D01*
X160368187Y-69008608D01*
X160325754Y-68997238D01*
X160240892Y-68974500D01*
X160109108Y-68974500D01*
X160045461Y-68991554D01*
X159981812Y-69008608D01*
X159912000Y-69048915D01*
X159852151Y-69061636D01*
X159813000Y-69048915D01*
X159743187Y-69008608D01*
X159700754Y-68997238D01*
X159615892Y-68974500D01*
X159484108Y-68974500D01*
X159406200Y-68995375D01*
X159356809Y-69008609D01*
X159242690Y-69074496D01*
X159149496Y-69167690D01*
X159083609Y-69281809D01*
X159083608Y-69281814D01*
X159049500Y-69409108D01*
X117716922Y-69409108D01*
X117707314Y-69399500D01*
X117707311Y-69399498D01*
X117707309Y-69399496D01*
X117593189Y-69333609D01*
X117593191Y-69333609D01*
X117543799Y-69320375D01*
X117465892Y-69299500D01*
X117334108Y-69299500D01*
X117256200Y-69320375D01*
X117206809Y-69333609D01*
X117092690Y-69399496D01*
X116999496Y-69492690D01*
X116933609Y-69606809D01*
X116933608Y-69606814D01*
X116899500Y-69734108D01*
X100500500Y-69734108D01*
X100500500Y-67259108D01*
X118274500Y-67259108D01*
X118274500Y-67390892D01*
X118289237Y-67445890D01*
X118308609Y-67518190D01*
X118374496Y-67632309D01*
X118374498Y-67632311D01*
X118374500Y-67632314D01*
X118467686Y-67725500D01*
X118467688Y-67725501D01*
X118467690Y-67725503D01*
X118581810Y-67791390D01*
X118581808Y-67791390D01*
X118581812Y-67791391D01*
X118581814Y-67791392D01*
X118709108Y-67825500D01*
X118709110Y-67825500D01*
X118840890Y-67825500D01*
X118840892Y-67825500D01*
X118968186Y-67791392D01*
X118968188Y-67791390D01*
X118968190Y-67791390D01*
X119082309Y-67725503D01*
X119082309Y-67725502D01*
X119082314Y-67725500D01*
X119175500Y-67632314D01*
X119175503Y-67632309D01*
X119241390Y-67518190D01*
X119241390Y-67518188D01*
X119241392Y-67518186D01*
X119275500Y-67390892D01*
X119275500Y-67314108D01*
X119999500Y-67314108D01*
X119999500Y-67445892D01*
X120000466Y-67449496D01*
X120033609Y-67573190D01*
X120099496Y-67687309D01*
X120099498Y-67687311D01*
X120099500Y-67687314D01*
X120192686Y-67780500D01*
X120192688Y-67780501D01*
X120192690Y-67780503D01*
X120306810Y-67846390D01*
X120306808Y-67846390D01*
X120306812Y-67846391D01*
X120306814Y-67846392D01*
X120434108Y-67880500D01*
X120434110Y-67880500D01*
X120565890Y-67880500D01*
X120565892Y-67880500D01*
X120693186Y-67846392D01*
X120693188Y-67846390D01*
X120693190Y-67846390D01*
X120801065Y-67784108D01*
X153124500Y-67784108D01*
X153124500Y-67915892D01*
X153131584Y-67942330D01*
X153158609Y-68043190D01*
X153224496Y-68157309D01*
X153224498Y-68157311D01*
X153224500Y-68157314D01*
X153317686Y-68250500D01*
X153317688Y-68250501D01*
X153317690Y-68250503D01*
X153431810Y-68316390D01*
X153431808Y-68316390D01*
X153431812Y-68316391D01*
X153431814Y-68316392D01*
X153559108Y-68350500D01*
X153559110Y-68350500D01*
X153690890Y-68350500D01*
X153690892Y-68350500D01*
X153818186Y-68316392D01*
X153818188Y-68316390D01*
X153818190Y-68316390D01*
X153932309Y-68250503D01*
X153932309Y-68250502D01*
X153932314Y-68250500D01*
X154025500Y-68157314D01*
X154033305Y-68143796D01*
X154091390Y-68043190D01*
X154091390Y-68043188D01*
X154091392Y-68043186D01*
X154125500Y-67915892D01*
X154125500Y-67784108D01*
X154091392Y-67656814D01*
X154091390Y-67656811D01*
X154091390Y-67656809D01*
X154025503Y-67542690D01*
X154025501Y-67542688D01*
X154025500Y-67542686D01*
X153932314Y-67449500D01*
X153932311Y-67449498D01*
X153932309Y-67449496D01*
X153818189Y-67383609D01*
X153818191Y-67383609D01*
X153768799Y-67370375D01*
X153690892Y-67349500D01*
X153559108Y-67349500D01*
X153481200Y-67370375D01*
X153431809Y-67383609D01*
X153317690Y-67449496D01*
X153224496Y-67542690D01*
X153158609Y-67656809D01*
X153144996Y-67707615D01*
X153124500Y-67784108D01*
X120801065Y-67784108D01*
X120807309Y-67780503D01*
X120807309Y-67780502D01*
X120807314Y-67780500D01*
X120900500Y-67687314D01*
X120918112Y-67656809D01*
X120966390Y-67573190D01*
X120966390Y-67573188D01*
X120966392Y-67573186D01*
X121000500Y-67445892D01*
X121000500Y-67314108D01*
X120966392Y-67186814D01*
X120966390Y-67186811D01*
X120966390Y-67186809D01*
X120900503Y-67072690D01*
X120900501Y-67072688D01*
X120900500Y-67072686D01*
X120807314Y-66979500D01*
X120807311Y-66979498D01*
X120807309Y-66979496D01*
X120693189Y-66913609D01*
X120693191Y-66913609D01*
X120643799Y-66900375D01*
X120565892Y-66879500D01*
X120434108Y-66879500D01*
X120356200Y-66900375D01*
X120306809Y-66913609D01*
X120192690Y-66979496D01*
X120099496Y-67072690D01*
X120033609Y-67186809D01*
X120033608Y-67186814D01*
X119999500Y-67314108D01*
X119275500Y-67314108D01*
X119275500Y-67259108D01*
X119241392Y-67131814D01*
X119241390Y-67131811D01*
X119241390Y-67131809D01*
X119175503Y-67017690D01*
X119175501Y-67017688D01*
X119175500Y-67017686D01*
X119082314Y-66924500D01*
X119082311Y-66924498D01*
X119082309Y-66924496D01*
X118968189Y-66858609D01*
X118968191Y-66858609D01*
X118918799Y-66845375D01*
X118840892Y-66824500D01*
X118709108Y-66824500D01*
X118631200Y-66845375D01*
X118581809Y-66858609D01*
X118467690Y-66924496D01*
X118374496Y-67017690D01*
X118308609Y-67131809D01*
X118308608Y-67131814D01*
X118274500Y-67259108D01*
X100500500Y-67259108D01*
X100500500Y-64234108D01*
X106049500Y-64234108D01*
X106049500Y-64365892D01*
X106079579Y-64478151D01*
X106083609Y-64493190D01*
X106149496Y-64607309D01*
X106149498Y-64607311D01*
X106149500Y-64607314D01*
X106242686Y-64700500D01*
X106242688Y-64700501D01*
X106242690Y-64700503D01*
X106356810Y-64766390D01*
X106356808Y-64766390D01*
X106356812Y-64766391D01*
X106356814Y-64766392D01*
X106484108Y-64800500D01*
X106484110Y-64800500D01*
X106615890Y-64800500D01*
X106615892Y-64800500D01*
X106743186Y-64766392D01*
X106743188Y-64766390D01*
X106743190Y-64766390D01*
X106857309Y-64700503D01*
X106857309Y-64700502D01*
X106857314Y-64700500D01*
X106950500Y-64607314D01*
X107016392Y-64493186D01*
X107050500Y-64365892D01*
X107050500Y-64252131D01*
X194124500Y-64252131D01*
X194124500Y-67747864D01*
X194124500Y-67747867D01*
X194124501Y-67747870D01*
X194130908Y-67807475D01*
X194130909Y-67807481D01*
X194130910Y-67807487D01*
X194181202Y-67942328D01*
X194256704Y-68043186D01*
X194267454Y-68057546D01*
X194267457Y-68057548D01*
X194267458Y-68057549D01*
X194382671Y-68143797D01*
X194517513Y-68194089D01*
X194517514Y-68194089D01*
X194517519Y-68194091D01*
X194577129Y-68200500D01*
X198072870Y-68200499D01*
X198132481Y-68194091D01*
X198132485Y-68194089D01*
X198132487Y-68194089D01*
X198267328Y-68143797D01*
X198267328Y-68143796D01*
X198267330Y-68143796D01*
X198382546Y-68057546D01*
X198468796Y-67942330D01*
X198478658Y-67915890D01*
X198519089Y-67807486D01*
X198519088Y-67807486D01*
X198519091Y-67807481D01*
X198525500Y-67747871D01*
X198525499Y-64252130D01*
X198519091Y-64192519D01*
X198519089Y-64192513D01*
X198519089Y-64192512D01*
X198468797Y-64057671D01*
X198382549Y-63942458D01*
X198382548Y-63942457D01*
X198382546Y-63942454D01*
X198366714Y-63930602D01*
X198267328Y-63856202D01*
X198132486Y-63805910D01*
X198132481Y-63805909D01*
X198132479Y-63805908D01*
X198132475Y-63805908D01*
X198101247Y-63802550D01*
X198072871Y-63799500D01*
X198072868Y-63799500D01*
X194577135Y-63799500D01*
X194577131Y-63799500D01*
X194577130Y-63799501D01*
X194547324Y-63802705D01*
X194517518Y-63805909D01*
X194517512Y-63805910D01*
X194382671Y-63856202D01*
X194267458Y-63942450D01*
X194267450Y-63942458D01*
X194181202Y-64057671D01*
X194130910Y-64192513D01*
X194130908Y-64192524D01*
X194124500Y-64252131D01*
X107050500Y-64252131D01*
X107050500Y-64234108D01*
X107016392Y-64106814D01*
X107016390Y-64106811D01*
X107016390Y-64106809D01*
X106950503Y-63992690D01*
X106950501Y-63992688D01*
X106950500Y-63992686D01*
X106857314Y-63899500D01*
X106857311Y-63899498D01*
X106857309Y-63899496D01*
X106743189Y-63833609D01*
X106743191Y-63833609D01*
X106693799Y-63820375D01*
X106615892Y-63799500D01*
X106484108Y-63799500D01*
X106406200Y-63820375D01*
X106356809Y-63833609D01*
X106242690Y-63899496D01*
X106149496Y-63992690D01*
X106083609Y-64106809D01*
X106083608Y-64106814D01*
X106049500Y-64234108D01*
X100500500Y-64234108D01*
X100500500Y-62134108D01*
X106049500Y-62134108D01*
X106049500Y-62265892D01*
X106060598Y-62307309D01*
X106083609Y-62393190D01*
X106149496Y-62507309D01*
X106149498Y-62507311D01*
X106149500Y-62507314D01*
X106242686Y-62600500D01*
X106242688Y-62600501D01*
X106242690Y-62600503D01*
X106356810Y-62666390D01*
X106356808Y-62666390D01*
X106356812Y-62666391D01*
X106356814Y-62666392D01*
X106484108Y-62700500D01*
X106484110Y-62700500D01*
X106615890Y-62700500D01*
X106615892Y-62700500D01*
X106743186Y-62666392D01*
X106743188Y-62666390D01*
X106743190Y-62666390D01*
X106857309Y-62600503D01*
X106857309Y-62600502D01*
X106857314Y-62600500D01*
X106950500Y-62507314D01*
X106967680Y-62477558D01*
X107016390Y-62393190D01*
X107016390Y-62393188D01*
X107016392Y-62393186D01*
X107050500Y-62265892D01*
X107050500Y-62134108D01*
X107021352Y-62025327D01*
X109609500Y-62025327D01*
X109609500Y-63774672D01*
X109609501Y-63774684D01*
X109624033Y-63847736D01*
X109624035Y-63847742D01*
X109679397Y-63930599D01*
X109679400Y-63930602D01*
X109743455Y-63973401D01*
X109762260Y-63985966D01*
X109817808Y-63997015D01*
X109835315Y-64000498D01*
X109835320Y-64000498D01*
X109835326Y-64000500D01*
X109835327Y-64000500D01*
X111584673Y-64000500D01*
X111584674Y-64000500D01*
X111657740Y-63985966D01*
X111740601Y-63930601D01*
X111795966Y-63847740D01*
X111810500Y-63774674D01*
X111810500Y-62813384D01*
X112149500Y-62813384D01*
X112149500Y-62986614D01*
X112176597Y-63157702D01*
X112176598Y-63157706D01*
X112230123Y-63322438D01*
X112230125Y-63322441D01*
X112286107Y-63432314D01*
X112308768Y-63476788D01*
X112410586Y-63616928D01*
X112533072Y-63739414D01*
X112673212Y-63841232D01*
X112827555Y-63919873D01*
X112827557Y-63919873D01*
X112827558Y-63919874D01*
X112827561Y-63919876D01*
X112992293Y-63973401D01*
X112992297Y-63973402D01*
X113163386Y-64000500D01*
X113163389Y-64000500D01*
X113336614Y-64000500D01*
X113507702Y-63973402D01*
X113507706Y-63973401D01*
X113672438Y-63919876D01*
X113672440Y-63919874D01*
X113672445Y-63919873D01*
X113826788Y-63841232D01*
X113966928Y-63739414D01*
X114089414Y-63616928D01*
X114191232Y-63476788D01*
X114269873Y-63322445D01*
X114269874Y-63322440D01*
X114269876Y-63322438D01*
X114323401Y-63157706D01*
X114323402Y-63157702D01*
X114350500Y-62986614D01*
X114350500Y-62813384D01*
X114689500Y-62813384D01*
X114689500Y-62986614D01*
X114716597Y-63157702D01*
X114716598Y-63157706D01*
X114770123Y-63322438D01*
X114770125Y-63322441D01*
X114826107Y-63432314D01*
X114848768Y-63476788D01*
X114950586Y-63616928D01*
X115073072Y-63739414D01*
X115213212Y-63841232D01*
X115367555Y-63919873D01*
X115367557Y-63919873D01*
X115367558Y-63919874D01*
X115367561Y-63919876D01*
X115532293Y-63973401D01*
X115532297Y-63973402D01*
X115703386Y-64000500D01*
X115703389Y-64000500D01*
X115876614Y-64000500D01*
X115967834Y-63986052D01*
X117951052Y-63986052D01*
X117951052Y-63986053D01*
X118060709Y-64021683D01*
X118060711Y-64021684D01*
X118239490Y-64050000D01*
X118420510Y-64050000D01*
X118599288Y-64021684D01*
X118599290Y-64021683D01*
X118708946Y-63986053D01*
X118329999Y-63607106D01*
X117951052Y-63986052D01*
X115967834Y-63986052D01*
X116047702Y-63973402D01*
X116047706Y-63973401D01*
X116212438Y-63919876D01*
X116212440Y-63919874D01*
X116212445Y-63919873D01*
X116366788Y-63841232D01*
X116506928Y-63739414D01*
X116629414Y-63616928D01*
X116731232Y-63476788D01*
X116809873Y-63322445D01*
X116809874Y-63322440D01*
X116809876Y-63322438D01*
X116863401Y-63157706D01*
X116863402Y-63157702D01*
X116890500Y-62986614D01*
X116890500Y-62813385D01*
X116889883Y-62809489D01*
X117180000Y-62809489D01*
X117180000Y-62990510D01*
X117208315Y-63169287D01*
X117243946Y-63278946D01*
X117622894Y-62899999D01*
X117557069Y-62834174D01*
X117830000Y-62834174D01*
X117830000Y-62965826D01*
X117864075Y-63092993D01*
X117929901Y-63207007D01*
X118022993Y-63300099D01*
X118137007Y-63365925D01*
X118264174Y-63400000D01*
X118395826Y-63400000D01*
X118522993Y-63365925D01*
X118637007Y-63300099D01*
X118730099Y-63207007D01*
X118795925Y-63092993D01*
X118830000Y-62965826D01*
X118830000Y-62899999D01*
X119037106Y-62899999D01*
X119416053Y-63278946D01*
X119451683Y-63169290D01*
X119451684Y-63169288D01*
X119480000Y-62990510D01*
X119480000Y-62809489D01*
X119451684Y-62630711D01*
X119451683Y-62630709D01*
X119416053Y-62521052D01*
X119416052Y-62521052D01*
X119037106Y-62899999D01*
X118830000Y-62899999D01*
X118830000Y-62834174D01*
X118795925Y-62707007D01*
X118730099Y-62592993D01*
X118637007Y-62499901D01*
X118522993Y-62434075D01*
X118429817Y-62409108D01*
X173474500Y-62409108D01*
X173474500Y-62540892D01*
X173488460Y-62592993D01*
X173508608Y-62668187D01*
X173556132Y-62750500D01*
X173568853Y-62810348D01*
X173556132Y-62849500D01*
X173508608Y-62931812D01*
X173485869Y-63016676D01*
X173474500Y-63059108D01*
X173474500Y-63190892D01*
X173478818Y-63207007D01*
X173508609Y-63318190D01*
X173574496Y-63432309D01*
X173574498Y-63432311D01*
X173574500Y-63432314D01*
X173667686Y-63525500D01*
X173667688Y-63525501D01*
X173667690Y-63525503D01*
X173781810Y-63591390D01*
X173781808Y-63591390D01*
X173781812Y-63591391D01*
X173781814Y-63591392D01*
X173909108Y-63625500D01*
X173909110Y-63625500D01*
X174040890Y-63625500D01*
X174040892Y-63625500D01*
X174168186Y-63591392D01*
X174250500Y-63543867D01*
X174310348Y-63531146D01*
X174349499Y-63543867D01*
X174431814Y-63591392D01*
X174559108Y-63625500D01*
X174559110Y-63625500D01*
X174690890Y-63625500D01*
X174690892Y-63625500D01*
X174818186Y-63591392D01*
X174818188Y-63591390D01*
X174818190Y-63591390D01*
X174932309Y-63525503D01*
X174932309Y-63525502D01*
X174932314Y-63525500D01*
X175025500Y-63432314D01*
X175088933Y-63322445D01*
X175091390Y-63318190D01*
X175091390Y-63318188D01*
X175091392Y-63318186D01*
X175125500Y-63190892D01*
X175125500Y-63059108D01*
X175091392Y-62931814D01*
X175043867Y-62849499D01*
X175031146Y-62789652D01*
X175043868Y-62750499D01*
X175091392Y-62668186D01*
X175125500Y-62540892D01*
X175125500Y-62409108D01*
X175924500Y-62409108D01*
X175924500Y-62540892D01*
X175938460Y-62592993D01*
X175958608Y-62668187D01*
X176006132Y-62750500D01*
X176018853Y-62810348D01*
X176006132Y-62849500D01*
X175958608Y-62931812D01*
X175935869Y-63016676D01*
X175924500Y-63059108D01*
X175924500Y-63190892D01*
X175928818Y-63207007D01*
X175958609Y-63318190D01*
X176024496Y-63432309D01*
X176024498Y-63432311D01*
X176024500Y-63432314D01*
X176117686Y-63525500D01*
X176117688Y-63525501D01*
X176117690Y-63525503D01*
X176231810Y-63591390D01*
X176231808Y-63591390D01*
X176231812Y-63591391D01*
X176231814Y-63591392D01*
X176359108Y-63625500D01*
X176359110Y-63625500D01*
X176490890Y-63625500D01*
X176490892Y-63625500D01*
X176618186Y-63591392D01*
X176700500Y-63543867D01*
X176760348Y-63531146D01*
X176799499Y-63543867D01*
X176881814Y-63591392D01*
X177009108Y-63625500D01*
X177009110Y-63625500D01*
X177140890Y-63625500D01*
X177140892Y-63625500D01*
X177268186Y-63591392D01*
X177268188Y-63591390D01*
X177268190Y-63591390D01*
X177382309Y-63525503D01*
X177382309Y-63525502D01*
X177382314Y-63525500D01*
X177475500Y-63432314D01*
X177538933Y-63322445D01*
X177541390Y-63318190D01*
X177541390Y-63318188D01*
X177541392Y-63318186D01*
X177575500Y-63190892D01*
X177575500Y-63059108D01*
X177541392Y-62931814D01*
X177493867Y-62849499D01*
X177481146Y-62789652D01*
X177493868Y-62750499D01*
X177541392Y-62668186D01*
X177575500Y-62540892D01*
X177575500Y-62409108D01*
X177541392Y-62281814D01*
X177541390Y-62281811D01*
X177541390Y-62281809D01*
X177475503Y-62167690D01*
X177475501Y-62167688D01*
X177475500Y-62167686D01*
X177382314Y-62074500D01*
X177382311Y-62074498D01*
X177382309Y-62074496D01*
X177268189Y-62008609D01*
X177268191Y-62008609D01*
X177218799Y-61995375D01*
X177140892Y-61974500D01*
X177009108Y-61974500D01*
X176945461Y-61991554D01*
X176881812Y-62008608D01*
X176799500Y-62056132D01*
X176739652Y-62068853D01*
X176700500Y-62056132D01*
X176618187Y-62008608D01*
X176575754Y-61997238D01*
X176490892Y-61974500D01*
X176359108Y-61974500D01*
X176281200Y-61995375D01*
X176231809Y-62008609D01*
X176117690Y-62074496D01*
X176024496Y-62167690D01*
X175958609Y-62281809D01*
X175947515Y-62323214D01*
X175924500Y-62409108D01*
X175125500Y-62409108D01*
X175091392Y-62281814D01*
X175091390Y-62281811D01*
X175091390Y-62281809D01*
X175025503Y-62167690D01*
X175025501Y-62167688D01*
X175025500Y-62167686D01*
X174932314Y-62074500D01*
X174932311Y-62074498D01*
X174932309Y-62074496D01*
X174818189Y-62008609D01*
X174818191Y-62008609D01*
X174768799Y-61995375D01*
X174690892Y-61974500D01*
X174559108Y-61974500D01*
X174495461Y-61991554D01*
X174431812Y-62008608D01*
X174349500Y-62056132D01*
X174289652Y-62068853D01*
X174250500Y-62056132D01*
X174168187Y-62008608D01*
X174125754Y-61997238D01*
X174040892Y-61974500D01*
X173909108Y-61974500D01*
X173831200Y-61995375D01*
X173781809Y-62008609D01*
X173667690Y-62074496D01*
X173574496Y-62167690D01*
X173508609Y-62281809D01*
X173497515Y-62323214D01*
X173474500Y-62409108D01*
X118429817Y-62409108D01*
X118395826Y-62400000D01*
X118264174Y-62400000D01*
X118137007Y-62434075D01*
X118022993Y-62499901D01*
X117929901Y-62592993D01*
X117864075Y-62707007D01*
X117830000Y-62834174D01*
X117557069Y-62834174D01*
X117243946Y-62521051D01*
X117208315Y-62630712D01*
X117180000Y-62809489D01*
X116889883Y-62809489D01*
X116863402Y-62642297D01*
X116863401Y-62642293D01*
X116809876Y-62477561D01*
X116809874Y-62477558D01*
X116809873Y-62477557D01*
X116809873Y-62477555D01*
X116731232Y-62323212D01*
X116629414Y-62183072D01*
X116506928Y-62060586D01*
X116366788Y-61958768D01*
X116366787Y-61958767D01*
X116366785Y-61958766D01*
X116316129Y-61932956D01*
X116212441Y-61880125D01*
X116212438Y-61880123D01*
X116047706Y-61826598D01*
X116047702Y-61826597D01*
X115967825Y-61813946D01*
X117951051Y-61813946D01*
X118329999Y-62192893D01*
X118708946Y-61813946D01*
X118599287Y-61778315D01*
X118420510Y-61750000D01*
X118239490Y-61750000D01*
X118060712Y-61778315D01*
X117951051Y-61813946D01*
X115967825Y-61813946D01*
X115876614Y-61799500D01*
X115876611Y-61799500D01*
X115703389Y-61799500D01*
X115703386Y-61799500D01*
X115532297Y-61826597D01*
X115532293Y-61826598D01*
X115367561Y-61880123D01*
X115367558Y-61880125D01*
X115213214Y-61958766D01*
X115073073Y-62060585D01*
X114950585Y-62183073D01*
X114848766Y-62323214D01*
X114770125Y-62477558D01*
X114770123Y-62477561D01*
X114716598Y-62642293D01*
X114716597Y-62642297D01*
X114689501Y-62813378D01*
X114689500Y-62813384D01*
X114350500Y-62813384D01*
X114350499Y-62813378D01*
X114323402Y-62642297D01*
X114323401Y-62642293D01*
X114269876Y-62477561D01*
X114269874Y-62477558D01*
X114269873Y-62477557D01*
X114269873Y-62477555D01*
X114191232Y-62323212D01*
X114089414Y-62183072D01*
X113966928Y-62060586D01*
X113826788Y-61958768D01*
X113826787Y-61958767D01*
X113826785Y-61958766D01*
X113672441Y-61880125D01*
X113672438Y-61880123D01*
X113507706Y-61826598D01*
X113507702Y-61826597D01*
X113336614Y-61799500D01*
X113336611Y-61799500D01*
X113163389Y-61799500D01*
X113163386Y-61799500D01*
X112992297Y-61826597D01*
X112992293Y-61826598D01*
X112827561Y-61880123D01*
X112827558Y-61880125D01*
X112673214Y-61958766D01*
X112533073Y-62060585D01*
X112410585Y-62183073D01*
X112308766Y-62323214D01*
X112230125Y-62477558D01*
X112230123Y-62477561D01*
X112176598Y-62642293D01*
X112176597Y-62642297D01*
X112149501Y-62813378D01*
X112149500Y-62813384D01*
X111810500Y-62813384D01*
X111810500Y-62025326D01*
X111795966Y-61952260D01*
X111783838Y-61934109D01*
X111740602Y-61869400D01*
X111740599Y-61869397D01*
X111657742Y-61814035D01*
X111657740Y-61814034D01*
X111657737Y-61814033D01*
X111657736Y-61814033D01*
X111584684Y-61799501D01*
X111584674Y-61799500D01*
X109835326Y-61799500D01*
X109835325Y-61799500D01*
X109835315Y-61799501D01*
X109762263Y-61814033D01*
X109762257Y-61814035D01*
X109679400Y-61869397D01*
X109679397Y-61869400D01*
X109624035Y-61952257D01*
X109624033Y-61952263D01*
X109609501Y-62025315D01*
X109609500Y-62025327D01*
X107021352Y-62025327D01*
X107016392Y-62006814D01*
X107016390Y-62006811D01*
X107016390Y-62006809D01*
X106950503Y-61892690D01*
X106950501Y-61892688D01*
X106950500Y-61892686D01*
X106857314Y-61799500D01*
X106857311Y-61799498D01*
X106857309Y-61799496D01*
X106743189Y-61733609D01*
X106743191Y-61733609D01*
X106693799Y-61720375D01*
X106615892Y-61699500D01*
X106484108Y-61699500D01*
X106406200Y-61720375D01*
X106356809Y-61733609D01*
X106242690Y-61799496D01*
X106149496Y-61892690D01*
X106083609Y-62006809D01*
X106073085Y-62046085D01*
X106049500Y-62134108D01*
X100500500Y-62134108D01*
X100500500Y-61284108D01*
X179549500Y-61284108D01*
X179549500Y-61415892D01*
X179572238Y-61500754D01*
X179583608Y-61543187D01*
X179631132Y-61625500D01*
X179643853Y-61685348D01*
X179631132Y-61724500D01*
X179583608Y-61806812D01*
X179563964Y-61880127D01*
X179549500Y-61934108D01*
X179549500Y-62065892D01*
X179567778Y-62134108D01*
X179583609Y-62193190D01*
X179649496Y-62307309D01*
X179649498Y-62307311D01*
X179649500Y-62307314D01*
X179742686Y-62400500D01*
X179742688Y-62400501D01*
X179742690Y-62400503D01*
X179856810Y-62466390D01*
X179856808Y-62466390D01*
X179856812Y-62466391D01*
X179856814Y-62466392D01*
X179984108Y-62500500D01*
X179984110Y-62500500D01*
X180115890Y-62500500D01*
X180115892Y-62500500D01*
X180243186Y-62466392D01*
X180325500Y-62418867D01*
X180385348Y-62406146D01*
X180424499Y-62418867D01*
X180506814Y-62466392D01*
X180634108Y-62500500D01*
X180634110Y-62500500D01*
X180765890Y-62500500D01*
X180765892Y-62500500D01*
X180893186Y-62466392D01*
X180893188Y-62466390D01*
X180893190Y-62466390D01*
X181007309Y-62400503D01*
X181007309Y-62400502D01*
X181007314Y-62400500D01*
X181100500Y-62307314D01*
X181100503Y-62307309D01*
X181166390Y-62193190D01*
X181166390Y-62193188D01*
X181166392Y-62193186D01*
X181200500Y-62065892D01*
X181200500Y-61934108D01*
X181166392Y-61806814D01*
X181118867Y-61724499D01*
X181106146Y-61664652D01*
X181118868Y-61625499D01*
X181166392Y-61543186D01*
X181200500Y-61415892D01*
X181200500Y-61284108D01*
X181166392Y-61156814D01*
X181166390Y-61156811D01*
X181166390Y-61156809D01*
X181100503Y-61042690D01*
X181100501Y-61042688D01*
X181100500Y-61042686D01*
X181007314Y-60949500D01*
X181007311Y-60949498D01*
X181007309Y-60949496D01*
X180893189Y-60883609D01*
X180893191Y-60883609D01*
X180828927Y-60866390D01*
X180765892Y-60849500D01*
X180634108Y-60849500D01*
X180571073Y-60866390D01*
X180506812Y-60883608D01*
X180424500Y-60931132D01*
X180364652Y-60943853D01*
X180325500Y-60931132D01*
X180243187Y-60883608D01*
X180178934Y-60866392D01*
X180115892Y-60849500D01*
X179984108Y-60849500D01*
X179921073Y-60866390D01*
X179856809Y-60883609D01*
X179742690Y-60949496D01*
X179649496Y-61042690D01*
X179583609Y-61156809D01*
X179583608Y-61156814D01*
X179549500Y-61284108D01*
X100500500Y-61284108D01*
X100500500Y-60334108D01*
X105899500Y-60334108D01*
X105899500Y-60465892D01*
X105913512Y-60518186D01*
X105933609Y-60593190D01*
X105999496Y-60707309D01*
X105999498Y-60707311D01*
X105999500Y-60707314D01*
X106092686Y-60800500D01*
X106092688Y-60800501D01*
X106092690Y-60800503D01*
X106206810Y-60866390D01*
X106206808Y-60866390D01*
X106206812Y-60866391D01*
X106206814Y-60866392D01*
X106334108Y-60900500D01*
X106334110Y-60900500D01*
X106465890Y-60900500D01*
X106465892Y-60900500D01*
X106593186Y-60866392D01*
X106593188Y-60866390D01*
X106593190Y-60866390D01*
X106707309Y-60800503D01*
X106707309Y-60800502D01*
X106707314Y-60800500D01*
X106800500Y-60707314D01*
X106800503Y-60707309D01*
X106866390Y-60593190D01*
X106866390Y-60593188D01*
X106866392Y-60593186D01*
X106900500Y-60465892D01*
X106900500Y-60334108D01*
X106866392Y-60206814D01*
X106866390Y-60206811D01*
X106866390Y-60206809D01*
X106800503Y-60092690D01*
X106800501Y-60092688D01*
X106800500Y-60092686D01*
X106707314Y-59999500D01*
X106707311Y-59999498D01*
X106707309Y-59999496D01*
X106593189Y-59933609D01*
X106593191Y-59933609D01*
X106543799Y-59920375D01*
X106465892Y-59899500D01*
X106334108Y-59899500D01*
X106256200Y-59920375D01*
X106206809Y-59933609D01*
X106092690Y-59999496D01*
X105999496Y-60092690D01*
X105933609Y-60206809D01*
X105933608Y-60206814D01*
X105899500Y-60334108D01*
X100500500Y-60334108D01*
X100500500Y-59684108D01*
X159449500Y-59684108D01*
X159449500Y-59815892D01*
X159471902Y-59899500D01*
X159483608Y-59943187D01*
X159509481Y-59988001D01*
X159522202Y-60047850D01*
X159509481Y-60086999D01*
X159483608Y-60131812D01*
X159463513Y-60206809D01*
X159449500Y-60259108D01*
X159449500Y-60390892D01*
X159469596Y-60465892D01*
X159483609Y-60518190D01*
X159549496Y-60632309D01*
X159549498Y-60632311D01*
X159549500Y-60632314D01*
X159642686Y-60725500D01*
X159642688Y-60725501D01*
X159642690Y-60725503D01*
X159756810Y-60791390D01*
X159756808Y-60791390D01*
X159756812Y-60791391D01*
X159756814Y-60791392D01*
X159884108Y-60825500D01*
X159884110Y-60825500D01*
X160015890Y-60825500D01*
X160015892Y-60825500D01*
X160143186Y-60791392D01*
X160212999Y-60751084D01*
X160272848Y-60738363D01*
X160311999Y-60751084D01*
X160381814Y-60791392D01*
X160509108Y-60825500D01*
X160509110Y-60825500D01*
X160640890Y-60825500D01*
X160640892Y-60825500D01*
X160768186Y-60791392D01*
X160768188Y-60791390D01*
X160768190Y-60791390D01*
X160882309Y-60725503D01*
X160882309Y-60725502D01*
X160882314Y-60725500D01*
X160975500Y-60632314D01*
X161041392Y-60518186D01*
X161075500Y-60390892D01*
X161075500Y-60259108D01*
X161041392Y-60131814D01*
X161015518Y-60086999D01*
X161002796Y-60027154D01*
X161015519Y-59987998D01*
X161041390Y-59943189D01*
X161041391Y-59943187D01*
X161041392Y-59943186D01*
X161075500Y-59815892D01*
X161075500Y-59684108D01*
X161041392Y-59556814D01*
X161041390Y-59556811D01*
X161041390Y-59556809D01*
X160975503Y-59442690D01*
X160975501Y-59442688D01*
X160975500Y-59442686D01*
X160882314Y-59349500D01*
X160882311Y-59349498D01*
X160882309Y-59349496D01*
X160768189Y-59283609D01*
X160768191Y-59283609D01*
X160718799Y-59270375D01*
X160640892Y-59249500D01*
X160509108Y-59249500D01*
X160445461Y-59266554D01*
X160381812Y-59283608D01*
X160312000Y-59323915D01*
X160252151Y-59336636D01*
X160213000Y-59323915D01*
X160143187Y-59283608D01*
X160100754Y-59272238D01*
X160015892Y-59249500D01*
X159884108Y-59249500D01*
X159806200Y-59270375D01*
X159756809Y-59283609D01*
X159642690Y-59349496D01*
X159549496Y-59442690D01*
X159483609Y-59556809D01*
X159483608Y-59556814D01*
X159449500Y-59684108D01*
X100500500Y-59684108D01*
X100500500Y-57984108D01*
X163799500Y-57984108D01*
X163799500Y-58115892D01*
X163829579Y-58228151D01*
X163833609Y-58243190D01*
X163899496Y-58357309D01*
X163899498Y-58357311D01*
X163899500Y-58357314D01*
X163992686Y-58450500D01*
X163992688Y-58450501D01*
X163992690Y-58450503D01*
X164106810Y-58516390D01*
X164106808Y-58516390D01*
X164106812Y-58516391D01*
X164106814Y-58516392D01*
X164234108Y-58550500D01*
X164234110Y-58550500D01*
X164365890Y-58550500D01*
X164365892Y-58550500D01*
X164493186Y-58516392D01*
X164493188Y-58516390D01*
X164493190Y-58516390D01*
X164607309Y-58450503D01*
X164607309Y-58450502D01*
X164607314Y-58450500D01*
X164700500Y-58357314D01*
X164766392Y-58243186D01*
X164800500Y-58115892D01*
X164800500Y-57984108D01*
X164766392Y-57856814D01*
X164766390Y-57856811D01*
X164766390Y-57856809D01*
X164700503Y-57742690D01*
X164700501Y-57742688D01*
X164700500Y-57742686D01*
X164607314Y-57649500D01*
X164607311Y-57649498D01*
X164607309Y-57649496D01*
X164493189Y-57583609D01*
X164493191Y-57583609D01*
X164443799Y-57570375D01*
X164365892Y-57549500D01*
X164234108Y-57549500D01*
X164156200Y-57570375D01*
X164106809Y-57583609D01*
X163992690Y-57649496D01*
X163899496Y-57742690D01*
X163833609Y-57856809D01*
X163833608Y-57856814D01*
X163799500Y-57984108D01*
X100500500Y-57984108D01*
X100500500Y-56859108D01*
X113224500Y-56859108D01*
X113224500Y-56990892D01*
X113254579Y-57103151D01*
X113258609Y-57118190D01*
X113324496Y-57232309D01*
X113324498Y-57232311D01*
X113324500Y-57232314D01*
X113417686Y-57325500D01*
X113417688Y-57325501D01*
X113417690Y-57325503D01*
X113531810Y-57391390D01*
X113531808Y-57391390D01*
X113531812Y-57391391D01*
X113531814Y-57391392D01*
X113659108Y-57425500D01*
X113659110Y-57425500D01*
X113790890Y-57425500D01*
X113790892Y-57425500D01*
X113918186Y-57391392D01*
X113918188Y-57391390D01*
X113918190Y-57391390D01*
X114032309Y-57325503D01*
X114032309Y-57325502D01*
X114032314Y-57325500D01*
X114125500Y-57232314D01*
X114191392Y-57118186D01*
X114225500Y-56990892D01*
X114225500Y-56859108D01*
X114191392Y-56731814D01*
X114191390Y-56731811D01*
X114191390Y-56731809D01*
X114125503Y-56617690D01*
X114125501Y-56617688D01*
X114125500Y-56617686D01*
X114032314Y-56524500D01*
X114032311Y-56524498D01*
X114032309Y-56524496D01*
X113918189Y-56458609D01*
X113918191Y-56458609D01*
X113868799Y-56445375D01*
X113790892Y-56424500D01*
X113659108Y-56424500D01*
X113581200Y-56445375D01*
X113531809Y-56458609D01*
X113417690Y-56524496D01*
X113324496Y-56617690D01*
X113258609Y-56731809D01*
X113258608Y-56731814D01*
X113224500Y-56859108D01*
X100500500Y-56859108D01*
X100500500Y-54678994D01*
X129489500Y-54678994D01*
X129489500Y-54881005D01*
X129528908Y-55079124D01*
X129528910Y-55079130D01*
X129606213Y-55265755D01*
X129714455Y-55427751D01*
X129718442Y-55433718D01*
X129861282Y-55576558D01*
X130029244Y-55688786D01*
X130215873Y-55766091D01*
X130413997Y-55805500D01*
X130413998Y-55805500D01*
X130616002Y-55805500D01*
X130616003Y-55805500D01*
X130814127Y-55766091D01*
X131000756Y-55688786D01*
X131168718Y-55576558D01*
X131311558Y-55433718D01*
X131423786Y-55265756D01*
X131501091Y-55079127D01*
X131540500Y-54881003D01*
X131540500Y-54678997D01*
X131540499Y-54678994D01*
X134339500Y-54678994D01*
X134339500Y-54881005D01*
X134378908Y-55079124D01*
X134378910Y-55079130D01*
X134456213Y-55265755D01*
X134564455Y-55427751D01*
X134568442Y-55433718D01*
X134711282Y-55576558D01*
X134879244Y-55688786D01*
X135065873Y-55766091D01*
X135263997Y-55805500D01*
X135263998Y-55805500D01*
X135466002Y-55805500D01*
X135466003Y-55805500D01*
X135664127Y-55766091D01*
X135850756Y-55688786D01*
X136018718Y-55576558D01*
X136040226Y-55555050D01*
X166228558Y-55555050D01*
X166228558Y-55686834D01*
X166249794Y-55766089D01*
X166262667Y-55814132D01*
X166328554Y-55928251D01*
X166328556Y-55928253D01*
X166328558Y-55928256D01*
X166421744Y-56021442D01*
X166421746Y-56021443D01*
X166421748Y-56021445D01*
X166535868Y-56087332D01*
X166535866Y-56087332D01*
X166535870Y-56087333D01*
X166535872Y-56087334D01*
X166663166Y-56121442D01*
X166663168Y-56121442D01*
X166794948Y-56121442D01*
X166794950Y-56121442D01*
X166922244Y-56087334D01*
X166922246Y-56087332D01*
X166922248Y-56087332D01*
X167036367Y-56021445D01*
X167036367Y-56021444D01*
X167036372Y-56021442D01*
X167129558Y-55928256D01*
X167195450Y-55814128D01*
X167196795Y-55809108D01*
X180199500Y-55809108D01*
X180199500Y-55940892D01*
X180221083Y-56021442D01*
X180233608Y-56068187D01*
X180273915Y-56138000D01*
X180286636Y-56197849D01*
X180273915Y-56237000D01*
X180233608Y-56306812D01*
X180210869Y-56391676D01*
X180199500Y-56434108D01*
X180199500Y-56565892D01*
X180213378Y-56617686D01*
X180233608Y-56693187D01*
X180259481Y-56738001D01*
X180272202Y-56797850D01*
X180259481Y-56836999D01*
X180233608Y-56881812D01*
X180210869Y-56966676D01*
X180199500Y-57009108D01*
X180199500Y-57140892D01*
X180223995Y-57232309D01*
X180233609Y-57268190D01*
X180299496Y-57382309D01*
X180299498Y-57382311D01*
X180299500Y-57382314D01*
X180392686Y-57475500D01*
X180392688Y-57475501D01*
X180392690Y-57475503D01*
X180506810Y-57541390D01*
X180506808Y-57541390D01*
X180506812Y-57541391D01*
X180506814Y-57541392D01*
X180634108Y-57575500D01*
X180634110Y-57575500D01*
X180765890Y-57575500D01*
X180765892Y-57575500D01*
X180893186Y-57541392D01*
X180962999Y-57501084D01*
X181022848Y-57488363D01*
X181061999Y-57501084D01*
X181131814Y-57541392D01*
X181259108Y-57575500D01*
X181259110Y-57575500D01*
X181390890Y-57575500D01*
X181390892Y-57575500D01*
X181518186Y-57541392D01*
X181587999Y-57501084D01*
X181647848Y-57488363D01*
X181686999Y-57501084D01*
X181756814Y-57541392D01*
X181884108Y-57575500D01*
X181884110Y-57575500D01*
X182015890Y-57575500D01*
X182015892Y-57575500D01*
X182143186Y-57541392D01*
X182143188Y-57541390D01*
X182143190Y-57541390D01*
X182257309Y-57475503D01*
X182257309Y-57475502D01*
X182257314Y-57475500D01*
X182350500Y-57382314D01*
X182416392Y-57268186D01*
X182450500Y-57140892D01*
X182450500Y-57009108D01*
X182416392Y-56881814D01*
X182390518Y-56836999D01*
X182377796Y-56777154D01*
X182390519Y-56737998D01*
X182394090Y-56731814D01*
X182416392Y-56693186D01*
X182450500Y-56565892D01*
X182450500Y-56434108D01*
X182416392Y-56306814D01*
X182376084Y-56237000D01*
X182363363Y-56177152D01*
X182376085Y-56137999D01*
X182416392Y-56068186D01*
X182450500Y-55940892D01*
X182450500Y-55809108D01*
X182416392Y-55681814D01*
X182416390Y-55681811D01*
X182416390Y-55681809D01*
X182381368Y-55621150D01*
X182368646Y-55561302D01*
X182381366Y-55522152D01*
X182441392Y-55418186D01*
X182475500Y-55290892D01*
X182475500Y-55159108D01*
X182441392Y-55031814D01*
X182415518Y-54986999D01*
X182402796Y-54927154D01*
X182415519Y-54887998D01*
X182419557Y-54881005D01*
X182441392Y-54843186D01*
X182475500Y-54715892D01*
X182475500Y-54584108D01*
X182441392Y-54456814D01*
X182401084Y-54387000D01*
X182388363Y-54327152D01*
X182401085Y-54287999D01*
X182441392Y-54218186D01*
X182475500Y-54090892D01*
X182475500Y-53959108D01*
X182441392Y-53831814D01*
X182441390Y-53831811D01*
X182441390Y-53831809D01*
X182375503Y-53717690D01*
X182375501Y-53717688D01*
X182375500Y-53717686D01*
X182282314Y-53624500D01*
X182282311Y-53624498D01*
X182282309Y-53624496D01*
X182168189Y-53558609D01*
X182168191Y-53558609D01*
X182118799Y-53545375D01*
X182040892Y-53524500D01*
X181909108Y-53524500D01*
X181845461Y-53541554D01*
X181781812Y-53558608D01*
X181712000Y-53598915D01*
X181652151Y-53611636D01*
X181613000Y-53598915D01*
X181543187Y-53558608D01*
X181500754Y-53547238D01*
X181415892Y-53524500D01*
X181284108Y-53524500D01*
X181220461Y-53541554D01*
X181156812Y-53558608D01*
X181087000Y-53598915D01*
X181027151Y-53611636D01*
X180988000Y-53598915D01*
X180918187Y-53558608D01*
X180875754Y-53547238D01*
X180790892Y-53524500D01*
X180659108Y-53524500D01*
X180581200Y-53545375D01*
X180531809Y-53558609D01*
X180417690Y-53624496D01*
X180324496Y-53717690D01*
X180258609Y-53831809D01*
X180258608Y-53831814D01*
X180224500Y-53959108D01*
X180224500Y-54090892D01*
X180239284Y-54146066D01*
X180258608Y-54218187D01*
X180298915Y-54288000D01*
X180311636Y-54347849D01*
X180298915Y-54387000D01*
X180258608Y-54456812D01*
X180239761Y-54527154D01*
X180224500Y-54584108D01*
X180224500Y-54715892D01*
X180236080Y-54759108D01*
X180258608Y-54843187D01*
X180284481Y-54888001D01*
X180297202Y-54947850D01*
X180284481Y-54986999D01*
X180258608Y-55031812D01*
X180245930Y-55079130D01*
X180224500Y-55159108D01*
X180224500Y-55290892D01*
X180233773Y-55325500D01*
X180258609Y-55418190D01*
X180293631Y-55478849D01*
X180306353Y-55538697D01*
X180293632Y-55577849D01*
X180233608Y-55681812D01*
X180211027Y-55766089D01*
X180199500Y-55809108D01*
X167196795Y-55809108D01*
X167229558Y-55686834D01*
X167229558Y-55555050D01*
X167195450Y-55427756D01*
X167195448Y-55427753D01*
X167195448Y-55427751D01*
X167129561Y-55313632D01*
X167129559Y-55313630D01*
X167129558Y-55313628D01*
X167036372Y-55220442D01*
X167036369Y-55220440D01*
X167036367Y-55220438D01*
X166922247Y-55154551D01*
X166922249Y-55154551D01*
X166872857Y-55141317D01*
X166794950Y-55120442D01*
X166663166Y-55120442D01*
X166585258Y-55141317D01*
X166535867Y-55154551D01*
X166421748Y-55220438D01*
X166328554Y-55313632D01*
X166262667Y-55427751D01*
X166249054Y-55478557D01*
X166228558Y-55555050D01*
X136040226Y-55555050D01*
X136161558Y-55433718D01*
X136273786Y-55265756D01*
X136351091Y-55079127D01*
X136390500Y-54881003D01*
X136390500Y-54678997D01*
X136351091Y-54480873D01*
X136273786Y-54294244D01*
X136161558Y-54126282D01*
X136018718Y-53983442D01*
X135987550Y-53962616D01*
X135850755Y-53871213D01*
X135664130Y-53793910D01*
X135664124Y-53793908D01*
X135466005Y-53754500D01*
X135466003Y-53754500D01*
X135263997Y-53754500D01*
X135263994Y-53754500D01*
X135065875Y-53793908D01*
X135065869Y-53793910D01*
X134879244Y-53871213D01*
X134711285Y-53983439D01*
X134568439Y-54126285D01*
X134456213Y-54294244D01*
X134378910Y-54480869D01*
X134378908Y-54480875D01*
X134339500Y-54678994D01*
X131540499Y-54678994D01*
X131501091Y-54480873D01*
X131423786Y-54294244D01*
X131311558Y-54126282D01*
X131168718Y-53983442D01*
X131137550Y-53962616D01*
X131000755Y-53871213D01*
X130814130Y-53793910D01*
X130814124Y-53793908D01*
X130616005Y-53754500D01*
X130616003Y-53754500D01*
X130413997Y-53754500D01*
X130413994Y-53754500D01*
X130215875Y-53793908D01*
X130215869Y-53793910D01*
X130029244Y-53871213D01*
X129861285Y-53983439D01*
X129718439Y-54126285D01*
X129606213Y-54294244D01*
X129528910Y-54480869D01*
X129528908Y-54480875D01*
X129489500Y-54678994D01*
X100500500Y-54678994D01*
X100500500Y-53559108D01*
X152024500Y-53559108D01*
X152024500Y-53690892D01*
X152035840Y-53733212D01*
X152058608Y-53818187D01*
X152098915Y-53888000D01*
X152111636Y-53947849D01*
X152098915Y-53987000D01*
X152058608Y-54056812D01*
X152045457Y-54105893D01*
X152024500Y-54184108D01*
X152024500Y-54315892D01*
X152047238Y-54400754D01*
X152058608Y-54443187D01*
X152084481Y-54488001D01*
X152097202Y-54547850D01*
X152084481Y-54586999D01*
X152058608Y-54631812D01*
X152045966Y-54678994D01*
X152024500Y-54759108D01*
X152024500Y-54890892D01*
X152039762Y-54947850D01*
X152058609Y-55018190D01*
X152124496Y-55132309D01*
X152124498Y-55132311D01*
X152124500Y-55132314D01*
X152217686Y-55225500D01*
X152217688Y-55225501D01*
X152217690Y-55225503D01*
X152331810Y-55291390D01*
X152331808Y-55291390D01*
X152331812Y-55291391D01*
X152331814Y-55291392D01*
X152459108Y-55325500D01*
X152459110Y-55325500D01*
X152590890Y-55325500D01*
X152590892Y-55325500D01*
X152718186Y-55291392D01*
X152787999Y-55251084D01*
X152847848Y-55238363D01*
X152886999Y-55251084D01*
X152956814Y-55291392D01*
X153084108Y-55325500D01*
X153084110Y-55325500D01*
X153215890Y-55325500D01*
X153215892Y-55325500D01*
X153343186Y-55291392D01*
X153412999Y-55251084D01*
X153472848Y-55238363D01*
X153511999Y-55251084D01*
X153581814Y-55291392D01*
X153709108Y-55325500D01*
X153709110Y-55325500D01*
X153840890Y-55325500D01*
X153840892Y-55325500D01*
X153968186Y-55291392D01*
X153968188Y-55291390D01*
X153968190Y-55291390D01*
X154082309Y-55225503D01*
X154082309Y-55225502D01*
X154082314Y-55225500D01*
X154175500Y-55132314D01*
X154206208Y-55079127D01*
X154241390Y-55018190D01*
X154241390Y-55018188D01*
X154241392Y-55018186D01*
X154275500Y-54890892D01*
X154275500Y-54759108D01*
X154241392Y-54631814D01*
X154215518Y-54586999D01*
X154202796Y-54527154D01*
X154215519Y-54487998D01*
X154233524Y-54456814D01*
X154241392Y-54443186D01*
X154275500Y-54315892D01*
X154275500Y-54184108D01*
X154241392Y-54056814D01*
X154201084Y-53987000D01*
X154188363Y-53927152D01*
X154201085Y-53887999D01*
X154210776Y-53871214D01*
X154241392Y-53818186D01*
X154275500Y-53690892D01*
X154275500Y-53559108D01*
X154241392Y-53431814D01*
X154241390Y-53431811D01*
X154241390Y-53431809D01*
X154175503Y-53317690D01*
X154175501Y-53317688D01*
X154175500Y-53317686D01*
X154082314Y-53224500D01*
X154082311Y-53224498D01*
X154082309Y-53224496D01*
X153968189Y-53158609D01*
X153968191Y-53158609D01*
X153918799Y-53145375D01*
X153840892Y-53124500D01*
X153709108Y-53124500D01*
X153645461Y-53141554D01*
X153581812Y-53158608D01*
X153512000Y-53198915D01*
X153452151Y-53211636D01*
X153413000Y-53198915D01*
X153343187Y-53158608D01*
X153300754Y-53147238D01*
X153215892Y-53124500D01*
X153084108Y-53124500D01*
X153020461Y-53141554D01*
X152956812Y-53158608D01*
X152887000Y-53198915D01*
X152827151Y-53211636D01*
X152788000Y-53198915D01*
X152718187Y-53158608D01*
X152675754Y-53147238D01*
X152590892Y-53124500D01*
X152459108Y-53124500D01*
X152381200Y-53145375D01*
X152331809Y-53158609D01*
X152217690Y-53224496D01*
X152124496Y-53317690D01*
X152058609Y-53431809D01*
X152058608Y-53431814D01*
X152024500Y-53559108D01*
X100500500Y-53559108D01*
X100500500Y-52099000D01*
X100519407Y-52040809D01*
X100568907Y-52004845D01*
X100599500Y-52000000D01*
X101999999Y-52000000D01*
X102000000Y-52000000D01*
X102000000Y-50599500D01*
X102018907Y-50541309D01*
X102068407Y-50505345D01*
X102099000Y-50500500D01*
X129610588Y-50500500D01*
X129668779Y-50519407D01*
G37*
%TD.AperFunction*%
%TD*%
M02*
