%TF.GenerationSoftware,KiCad,Pcbnew,10.0.6*%
%TF.CreationDate,2026-10-02T12:46:37+02:00*%
%TF.ProjectId,engineering_plane,656e6769-6e65-4657-9269-6e675f706c61,rev?*%
%TF.SameCoordinates,Original*%
%TF.FileFunction,Soldermask,Top*%
%TF.FilePolarity,Negative*%
%FSLAX46Y46*%
G04 Gerber Fmt 4.6, Leading zero omitted, Abs format (unit mm)*
G04 Created by KiCad (PCBNEW 10.0.6) date 2026-10-02 12:46:37*
%MOMM*%
%LPD*%
G01*
G04 APERTURE LIST*
G04 Aperture macros list*
%AMRoundRect*
0 Rectangle with rounded corners*
0 $1 Rounding radius*
0 $2 $3 $4 $5 $6 $7 $8 $9 X,Y pos of 4 corners*
0 Add a 4 corners polygon primitive as box body*
4,1,4,$2,$3,$4,$5,$6,$7,$8,$9,$2,$3,0*
0 Add four circle primitives for the rounded corners*
1,1,$1+$1,$2,$3*
1,1,$1+$1,$4,$5*
1,1,$1+$1,$6,$7*
1,1,$1+$1,$8,$9*
0 Add four rect primitives between the rounded corners*
20,1,$1+$1,$2,$3,$4,$5,0*
20,1,$1+$1,$4,$5,$6,$7,0*
20,1,$1+$1,$6,$7,$8,$9,0*
20,1,$1+$1,$8,$9,$2,$3,0*%
%AMFreePoly0*
4,1,37,0.800000,0.796148,0.878414,0.796148,1.032228,0.765552,1.177117,0.705537,1.307515,0.618408,1.418408,0.507515,1.505537,0.377117,1.565552,0.232228,1.596148,0.078414,1.596148,-0.078414,1.565552,-0.232228,1.505537,-0.377117,1.418408,-0.507515,1.307515,-0.618408,1.177117,-0.705537,1.032228,-0.765552,0.878414,-0.796148,0.800000,-0.796148,0.800000,-0.800000,-1.400000,-0.800000,
-1.403843,-0.796157,-1.439018,-0.796157,-1.511114,-0.766294,-1.566294,-0.711114,-1.596157,-0.639018,-1.596157,-0.603843,-1.600000,-0.600000,-1.600000,0.600000,-1.596157,0.603843,-1.596157,0.639018,-1.566294,0.711114,-1.511114,0.766294,-1.439018,0.796157,-1.403843,0.796157,-1.400000,0.800000,0.800000,0.800000,0.800000,0.796148,0.800000,0.796148,$1*%
%AMFreePoly1*
4,1,37,1.403843,0.796157,1.439018,0.796157,1.511114,0.766294,1.566294,0.711114,1.596157,0.639018,1.596157,0.603843,1.600000,0.600000,1.600000,-0.600000,1.596157,-0.603843,1.596157,-0.639018,1.566294,-0.711114,1.511114,-0.766294,1.439018,-0.796157,1.403843,-0.796157,1.400000,-0.800000,-0.800000,-0.800000,-0.800000,-0.796148,-0.878414,-0.796148,-1.032228,-0.765552,-1.177117,-0.705537,
-1.307515,-0.618408,-1.418408,-0.507515,-1.505537,-0.377117,-1.565552,-0.232228,-1.596148,-0.078414,-1.596148,0.078414,-1.565552,0.232228,-1.505537,0.377117,-1.418408,0.507515,-1.307515,0.618408,-1.177117,0.705537,-1.032228,0.765552,-0.878414,0.796148,-0.800000,0.796148,-0.800000,0.800000,1.400000,0.800000,1.403843,0.796157,1.403843,0.796157,$1*%
G04 Aperture macros list end*
%ADD10RoundRect,0.250000X1.950000X1.000000X-1.950000X1.000000X-1.950000X-1.000000X1.950000X-1.000000X0*%
%ADD11FreePoly0,0.000000*%
%ADD12RoundRect,0.800000X-0.800000X-0.000010X0.800000X-0.000010X0.800000X0.000010X-0.800000X0.000010X0*%
%ADD13FreePoly1,0.000000*%
%ADD14R,0.300000X0.325000*%
%ADD15R,0.325000X0.300000*%
%ADD16RoundRect,0.508000X-0.000010X-0.000010X0.000010X-0.000010X0.000010X0.000010X-0.000010X0.000010X0*%
%ADD17R,1.700000X1.700000*%
%ADD18C,1.700000*%
%ADD19C,1.750000*%
%ADD20RoundRect,0.178000X-0.170000X0.140000X-0.170000X-0.140000X0.170000X-0.140000X0.170000X0.140000X0*%
%ADD21RoundRect,0.263000X-0.250000X0.225000X-0.250000X-0.225000X0.250000X-0.225000X0.250000X0.225000X0*%
%ADD22RoundRect,0.288000X-0.650000X0.325000X-0.650000X-0.325000X0.650000X-0.325000X0.650000X0.325000X0*%
%ADD23R,1.500000X2.200000*%
%ADD24R,1.350000X0.600000*%
%ADD25R,2.000000X1.200000*%
%ADD26RoundRect,0.178000X0.140000X0.170000X-0.140000X0.170000X-0.140000X-0.170000X0.140000X-0.170000X0*%
%ADD27RoundRect,0.250002X-1.699998X-1.699998X1.699998X-1.699998X1.699998X1.699998X-1.699998X1.699998X0*%
%ADD28RoundRect,0.238000X0.275000X-0.200000X0.275000X0.200000X-0.275000X0.200000X-0.275000X-0.200000X0*%
%ADD29RoundRect,0.288000X-0.325000X-0.650000X0.325000X-0.650000X0.325000X0.650000X-0.325000X0.650000X0*%
%ADD30RoundRect,0.263000X0.225000X0.250000X-0.225000X0.250000X-0.225000X-0.250000X0.225000X-0.250000X0*%
%ADD31R,0.250000X0.475000*%
%ADD32R,0.475000X0.250000*%
%ADD33R,1.710000X1.710000*%
%ADD34C,1.710000*%
%ADD35RoundRect,0.238000X-0.275000X0.200000X-0.275000X-0.200000X0.275000X-0.200000X0.275000X0.200000X0*%
%ADD36RoundRect,0.178000X0.170000X-0.140000X0.170000X0.140000X-0.170000X0.140000X-0.170000X-0.140000X0*%
%ADD37RoundRect,0.238000X0.200000X0.275000X-0.200000X0.275000X-0.200000X-0.275000X0.200000X-0.275000X0*%
%ADD38RoundRect,0.288000X-1.000000X-0.650000X1.000000X-0.650000X1.000000X0.650000X-1.000000X0.650000X0*%
%ADD39RoundRect,0.238000X-0.200000X-0.275000X0.200000X-0.275000X0.200000X0.275000X-0.200000X0.275000X0*%
%ADD40RoundRect,0.263000X0.250000X-0.225000X0.250000X0.225000X-0.250000X0.225000X-0.250000X-0.225000X0*%
%ADD41RoundRect,0.220000X0.255000X-0.220000X0.255000X0.220000X-0.255000X0.220000X-0.255000X-0.220000X0*%
%ADD42RoundRect,0.220000X-0.220000X-0.255000X0.220000X-0.255000X0.220000X0.255000X-0.220000X0.255000X0*%
%ADD43RoundRect,0.175750X-0.221250X0.551250X-0.221250X-0.551250X0.221250X-0.551250X0.221250X0.551250X0*%
%ADD44RoundRect,0.258000X0.220000X0.255000X-0.220000X0.255000X-0.220000X-0.255000X0.220000X-0.255000X0*%
%ADD45RoundRect,0.263000X-0.225000X-0.250000X0.225000X-0.250000X0.225000X0.250000X-0.225000X0.250000X0*%
%ADD46RoundRect,0.178000X-0.140000X-0.170000X0.140000X-0.170000X0.140000X0.170000X-0.140000X0.170000X0*%
%ADD47C,1.296000*%
%ADD48R,1.500000X0.800000*%
%ADD49R,1.500000X1.150000*%
%ADD50R,1.150000X1.500000*%
%ADD51R,1.700000X1.400000*%
%ADD52RoundRect,0.175750X0.221250X-0.551250X0.221250X0.551250X-0.221250X0.551250X-0.221250X-0.551250X0*%
%ADD53C,6.400000*%
%ADD54RoundRect,0.288000X0.650000X-0.325000X0.650000X0.325000X-0.650000X0.325000X-0.650000X-0.325000X0*%
%ADD55R,0.450000X0.300000*%
%ADD56R,0.300000X0.450000*%
%ADD57RoundRect,0.280500X0.457500X-0.242500X0.457500X0.242500X-0.457500X0.242500X-0.457500X-0.242500X0*%
%ADD58RoundRect,0.288000X-0.300000X-0.550000X0.300000X-0.550000X0.300000X0.550000X-0.300000X0.550000X0*%
%ADD59R,3.500000X2.000000*%
%ADD60RoundRect,0.200000X-0.200000X-0.275000X0.200000X-0.275000X0.200000X0.275000X-0.200000X0.275000X0*%
%ADD61RoundRect,0.250000X1.500000X0.550000X-1.500000X0.550000X-1.500000X-0.550000X1.500000X-0.550000X0*%
%ADD62RoundRect,0.288000X0.325000X0.650000X-0.325000X0.650000X-0.325000X-0.650000X0.325000X-0.650000X0*%
%ADD63RoundRect,0.288000X-0.550000X0.300000X-0.550000X-0.300000X0.550000X-0.300000X0.550000X0.300000X0*%
%ADD64R,0.650000X1.500000*%
%ADD65C,1.400000*%
%ADD66RoundRect,0.770000X-0.980000X0.980000X-0.980000X-0.980000X0.980000X-0.980000X0.980000X0.980000X0*%
%ADD67C,3.500000*%
%ADD68R,0.600000X1.350000*%
%ADD69R,1.200000X2.000000*%
G04 APERTURE END LIST*
D10*
%TO.C,C103*%
X161732500Y-87500000D03*
X170132500Y-87500000D03*
%TD*%
D11*
%TO.C,A801*%
X123250000Y-51620000D03*
D12*
X123250000Y-54160000D03*
D13*
X123250000Y-56700000D03*
D12*
X123250000Y-59240000D03*
X123250000Y-61780000D03*
X123250000Y-64320000D03*
X123250000Y-66860000D03*
D13*
X123250000Y-69400000D03*
D12*
X123250000Y-71940000D03*
X123250000Y-74480000D03*
X123250000Y-77020000D03*
X123250000Y-79560000D03*
D13*
X123250000Y-82100000D03*
D12*
X123250000Y-84640000D03*
X123250000Y-87180000D03*
X123250000Y-89720000D03*
X123250000Y-92260000D03*
D13*
X123250000Y-94800000D03*
D12*
X123250000Y-97340000D03*
X123250000Y-99880000D03*
X142630000Y-99880000D03*
X142630000Y-97340000D03*
D11*
X142630000Y-94800000D03*
D12*
X142630000Y-92260000D03*
X142630000Y-89720000D03*
X142630000Y-87180000D03*
X142630000Y-84640000D03*
D11*
X142630000Y-82100000D03*
D12*
X142630000Y-79560000D03*
X142630000Y-77020000D03*
X142630000Y-74480000D03*
X142630000Y-71940000D03*
D11*
X142630000Y-69400000D03*
D12*
X142630000Y-66860000D03*
X142630000Y-64320000D03*
X142630000Y-61780000D03*
X142630000Y-59240000D03*
D11*
X142630000Y-56700000D03*
D12*
X142630000Y-54160000D03*
X142630000Y-51620000D03*
%TD*%
D14*
%TO.C,U301*%
X150750000Y-78975000D03*
X151250000Y-78975000D03*
X151750000Y-78975000D03*
D15*
X152000000Y-79500000D03*
X152000000Y-80000000D03*
D14*
X151750000Y-80525000D03*
X151250000Y-80525000D03*
X150750000Y-80525000D03*
D15*
X150500000Y-80000000D03*
X150500000Y-79500000D03*
%TD*%
D16*
%TO.C,TP703*%
X187190685Y-99540685D03*
%TD*%
%TO.C,TP702*%
X187200000Y-97750000D03*
%TD*%
%TO.C,TP701*%
X190700000Y-55500000D03*
%TD*%
%TO.C,TP503*%
X112300000Y-101900000D03*
%TD*%
D17*
%TO.C,J801*%
X110710000Y-62900000D03*
D18*
X113250000Y-62900000D03*
X115790000Y-62900000D03*
X118330000Y-62900000D03*
%TD*%
D19*
%TO.C,J401*%
X169920000Y-100000000D03*
X172460000Y-100000000D03*
X175000000Y-100000000D03*
%TD*%
D20*
%TO.C,R601*%
X120904000Y-86926800D03*
X120904000Y-87926800D03*
%TD*%
D21*
%TO.C,C715*%
X184803800Y-97759600D03*
X184803800Y-99319600D03*
%TD*%
D20*
%TO.C,R407*%
X145948400Y-74074400D03*
X145948400Y-75074400D03*
%TD*%
D22*
%TO.C,C105*%
X167300000Y-57640000D03*
X167300000Y-60600000D03*
%TD*%
D20*
%TO.C,R604*%
X120904000Y-79256000D03*
X120904000Y-80256000D03*
%TD*%
D23*
%TO.C,L701*%
X182225000Y-61700000D03*
X188625000Y-61700000D03*
%TD*%
D20*
%TO.C,R605*%
X120954800Y-76665200D03*
X120954800Y-77665200D03*
%TD*%
D24*
%TO.C,J1301*%
X105475000Y-84225000D03*
X105475000Y-85225000D03*
X105475000Y-86225000D03*
X105475000Y-87225000D03*
D25*
X101800000Y-88525000D03*
X101800000Y-82925000D03*
%TD*%
D26*
%TO.C,C202*%
X150750000Y-69088000D03*
X149750000Y-69088000D03*
%TD*%
D27*
%TO.C,J102*%
X196325000Y-66000000D03*
%TD*%
D28*
%TO.C,R1001*%
X112400000Y-58470000D03*
X112400000Y-56830000D03*
%TD*%
D29*
%TO.C,C712*%
X174551800Y-83309800D03*
X177511800Y-83309800D03*
%TD*%
D30*
%TO.C,C710*%
X179494400Y-56883800D03*
X177934400Y-56883800D03*
%TD*%
D31*
%TO.C,IC201*%
X149250000Y-74113000D03*
X149750000Y-74113000D03*
X150250000Y-74113000D03*
X150750000Y-74113000D03*
D32*
X150913000Y-73450000D03*
X150913000Y-72950000D03*
X150913000Y-72450000D03*
D31*
X150750000Y-71788000D03*
X150250000Y-71788000D03*
X149750000Y-71788000D03*
X149250000Y-71788000D03*
D32*
X149087000Y-72450000D03*
X149087000Y-72950000D03*
X149087000Y-73450000D03*
%TD*%
D33*
%TO.C,J1101*%
X164550000Y-79640000D03*
D34*
X164550000Y-77100000D03*
X164550000Y-74560000D03*
%TD*%
D35*
%TO.C,R1002*%
X110900000Y-56830000D03*
X110900000Y-58470000D03*
%TD*%
D36*
%TO.C,C201*%
X152750000Y-73600000D03*
X152750000Y-72600000D03*
%TD*%
D26*
%TO.C,C503*%
X105500000Y-102050000D03*
X104500000Y-102050000D03*
%TD*%
D36*
%TO.C,C714*%
X178500000Y-89750000D03*
X178500000Y-88750000D03*
%TD*%
D37*
%TO.C,R901*%
X108975000Y-92600000D03*
X107335000Y-92600000D03*
%TD*%
D38*
%TO.C,D803*%
X146550000Y-54250000D03*
X150550000Y-54250000D03*
%TD*%
D39*
%TO.C,R902*%
X107335000Y-94100000D03*
X108975000Y-94100000D03*
%TD*%
D20*
%TO.C,R406*%
X146050000Y-99626800D03*
X146050000Y-100626800D03*
%TD*%
D40*
%TO.C,C718*%
X173925000Y-93805000D03*
X173925000Y-92245000D03*
%TD*%
D20*
%TO.C,C102*%
X145150000Y-72050000D03*
X145150000Y-73050000D03*
%TD*%
D36*
%TO.C,R603*%
X120954800Y-84681776D03*
X120954800Y-83681776D03*
%TD*%
D41*
%TO.C,FB501*%
X110900000Y-98890000D03*
X110900000Y-97310000D03*
%TD*%
D16*
%TO.C,TP201*%
X155450000Y-72175000D03*
%TD*%
D24*
%TO.C,J1201*%
X105350000Y-60375000D03*
X105350000Y-61375000D03*
X105350000Y-62375000D03*
X105350000Y-63375000D03*
D25*
X101675000Y-64675000D03*
X101675000Y-59075000D03*
%TD*%
D20*
%TO.C,R602*%
X119989600Y-86926800D03*
X119989600Y-87926800D03*
%TD*%
D42*
%TO.C,FB201*%
X150797200Y-67868800D03*
X152377200Y-67868800D03*
%TD*%
D43*
%TO.C,U702*%
X177109200Y-88022600D03*
X176159200Y-88022600D03*
X175209200Y-88022600D03*
X175209200Y-90532600D03*
X176159200Y-90532600D03*
X177109200Y-90532600D03*
%TD*%
D21*
%TO.C,C705*%
X174294800Y-59672000D03*
X174294800Y-61232000D03*
%TD*%
D44*
%TO.C,D804*%
X148330000Y-51500000D03*
X146750000Y-51500000D03*
%TD*%
D26*
%TO.C,R101*%
X174314600Y-70779800D03*
X173314600Y-70779800D03*
%TD*%
D45*
%TO.C,C713*%
X175295000Y-85100000D03*
X176855000Y-85100000D03*
%TD*%
D46*
%TO.C,R803*%
X116750000Y-98750000D03*
X117750000Y-98750000D03*
%TD*%
D36*
%TO.C,C303*%
X151663600Y-77250000D03*
X151663600Y-76250000D03*
%TD*%
%TO.C,R402*%
X145135600Y-100626800D03*
X145135600Y-99626800D03*
%TD*%
D28*
%TO.C,R704*%
X173825000Y-91145000D03*
X173825000Y-89505000D03*
%TD*%
D16*
%TO.C,TP801*%
X119400000Y-72750000D03*
%TD*%
D37*
%TO.C,R701*%
X179545000Y-55600000D03*
X177905000Y-55600000D03*
%TD*%
D22*
%TO.C,C717*%
X182975000Y-97720000D03*
X182975000Y-100680000D03*
%TD*%
D47*
%TO.C,H104*%
X101000000Y-51000000D03*
%TD*%
D48*
%TO.C,J601*%
X105050000Y-76625000D03*
X105050000Y-75525000D03*
X105050000Y-74425000D03*
X105050000Y-73325000D03*
X105050000Y-72225000D03*
X105050000Y-71125000D03*
X105050000Y-70025000D03*
X105050000Y-68925000D03*
D49*
X111900000Y-67350000D03*
D50*
X116625000Y-74525000D03*
D51*
X102150000Y-67475000D03*
X102150000Y-80375000D03*
D50*
X116625000Y-76825000D03*
X116625000Y-67925000D03*
%TD*%
D36*
%TO.C,R401*%
X145135600Y-98086800D03*
X145135600Y-97086800D03*
%TD*%
D52*
%TO.C,U701*%
X175800000Y-61255000D03*
X176750000Y-61255000D03*
X177700000Y-61255000D03*
X177700000Y-58745000D03*
X176750000Y-58745000D03*
X175800000Y-58745000D03*
%TD*%
D29*
%TO.C,C104*%
X167182800Y-95656400D03*
X170142800Y-95656400D03*
%TD*%
D53*
%TO.C,H106*%
X195000000Y-98000000D03*
%TD*%
D26*
%TO.C,C203*%
X150750000Y-69949200D03*
X149750000Y-69949200D03*
%TD*%
D54*
%TO.C,C601*%
X119634000Y-92412000D03*
X119634000Y-89452000D03*
%TD*%
D36*
%TO.C,R404*%
X145135600Y-67606800D03*
X145135600Y-66606800D03*
%TD*%
D46*
%TO.C,R606*%
X106450000Y-82650000D03*
X107450000Y-82650000D03*
%TD*%
D20*
%TO.C,C502*%
X109700000Y-100100000D03*
X109700000Y-101100000D03*
%TD*%
D55*
%TO.C,IC501*%
X107600000Y-99800000D03*
X107600000Y-99300000D03*
X107600000Y-98800000D03*
X107600000Y-98300000D03*
D56*
X107075000Y-97775000D03*
X106575000Y-97775000D03*
X106075000Y-97775000D03*
X105575000Y-97775000D03*
D55*
X105050000Y-98300000D03*
X105050000Y-98800000D03*
X105050000Y-99300000D03*
X105050000Y-99800000D03*
D56*
X105575000Y-100325000D03*
X106075000Y-100325000D03*
X106575000Y-100325000D03*
X107075000Y-100325000D03*
%TD*%
D20*
%TO.C,R408*%
X145999200Y-66606800D03*
X145999200Y-67606800D03*
%TD*%
D19*
%TO.C,J403*%
X174992000Y-53000000D03*
X172452000Y-53000000D03*
X169912000Y-53000000D03*
%TD*%
D57*
%TO.C,D801*%
X117250000Y-101940000D03*
X117250000Y-100060000D03*
%TD*%
D53*
%TO.C,H105*%
X195000000Y-55000000D03*
%TD*%
D40*
%TO.C,C707*%
X189125000Y-55485000D03*
X189125000Y-53925000D03*
%TD*%
D29*
%TO.C,C711*%
X174545000Y-80925000D03*
X177505000Y-80925000D03*
%TD*%
D26*
%TO.C,C704*%
X160250000Y-62550000D03*
X159250000Y-62550000D03*
%TD*%
D19*
%TO.C,J402*%
X159920000Y-100000000D03*
X162460000Y-100000000D03*
X165000000Y-100000000D03*
%TD*%
D20*
%TO.C,R1102*%
X145084800Y-92006800D03*
X145084800Y-93006800D03*
%TD*%
D16*
%TO.C,TP804*%
X147200000Y-84900000D03*
%TD*%
D24*
%TO.C,J901*%
X105375000Y-91600000D03*
X105375000Y-92600000D03*
X105375000Y-93600000D03*
X105375000Y-94600000D03*
D25*
X101700000Y-95900000D03*
X101700000Y-90300000D03*
%TD*%
D47*
%TO.C,H102*%
X101000000Y-102000000D03*
%TD*%
D30*
%TO.C,C703*%
X177550000Y-64500000D03*
X175990000Y-64500000D03*
%TD*%
D36*
%TO.C,R403*%
X145084800Y-75074400D03*
X145084800Y-74074400D03*
%TD*%
D47*
%TO.C,H103*%
X199000000Y-51000000D03*
%TD*%
D57*
%TO.C,D802*%
X119500000Y-101940000D03*
X119500000Y-100060000D03*
%TD*%
D20*
%TO.C,R405*%
X146050000Y-97086800D03*
X146050000Y-98086800D03*
%TD*%
D58*
%TO.C,D102*%
X170150000Y-68625000D03*
X172950000Y-68625000D03*
%TD*%
D36*
%TO.C,R805*%
X145500000Y-52000000D03*
X145500000Y-51000000D03*
%TD*%
D46*
%TO.C,C602*%
X118850000Y-93800000D03*
X119850000Y-93800000D03*
%TD*%
D20*
%TO.C,R102*%
X172400000Y-70800000D03*
X172400000Y-71800000D03*
%TD*%
D59*
%TO.C,L702*%
X185625000Y-85850000D03*
X185625000Y-94850000D03*
%TD*%
D21*
%TO.C,C501*%
X103145800Y-98716600D03*
X103145800Y-100276600D03*
%TD*%
D20*
%TO.C,R806*%
X145050000Y-86900000D03*
X145050000Y-87900000D03*
%TD*%
%TO.C,R807*%
X145100000Y-84350000D03*
X145100000Y-85350000D03*
%TD*%
D60*
%TO.C,R702*%
X174925000Y-56975000D03*
X176575000Y-56975000D03*
%TD*%
D16*
%TO.C,TP502*%
X112300000Y-100300000D03*
%TD*%
D61*
%TO.C,C101*%
X179350000Y-75050000D03*
X173950000Y-75050000D03*
%TD*%
D16*
%TO.C,TP501*%
X110900000Y-95900000D03*
%TD*%
%TO.C,TP802*%
X119400000Y-75000000D03*
%TD*%
D20*
%TO.C,R802*%
X120900000Y-71750000D03*
X120900000Y-72750000D03*
%TD*%
D62*
%TO.C,C702*%
X178250000Y-66250000D03*
X175290000Y-66250000D03*
%TD*%
D36*
%TO.C,C302*%
X150800000Y-77250000D03*
X150800000Y-76250000D03*
%TD*%
D22*
%TO.C,C716*%
X180638200Y-97720000D03*
X180638200Y-100680000D03*
%TD*%
D28*
%TO.C,R703*%
X175175000Y-93745000D03*
X175175000Y-92105000D03*
%TD*%
D54*
%TO.C,C709*%
X184746200Y-55585000D03*
X184746200Y-52625000D03*
%TD*%
D21*
%TO.C,C504*%
X110800000Y-100320000D03*
X110800000Y-101880000D03*
%TD*%
D20*
%TO.C,C301*%
X148750000Y-79500000D03*
X148750000Y-80500000D03*
%TD*%
D26*
%TO.C,C706*%
X160050000Y-68600000D03*
X159050000Y-68600000D03*
%TD*%
D19*
%TO.C,J404*%
X164992000Y-53000000D03*
X162452000Y-53000000D03*
X159912000Y-53000000D03*
%TD*%
D54*
%TO.C,C708*%
X187246200Y-55585000D03*
X187246200Y-52625000D03*
%TD*%
D46*
%TO.C,R804*%
X119000000Y-98750000D03*
X120000000Y-98750000D03*
%TD*%
D53*
%TO.C,H101*%
X105000000Y-55000000D03*
%TD*%
D63*
%TO.C,D101*%
X182750000Y-75200000D03*
X182750000Y-78000000D03*
%TD*%
D42*
%TO.C,FB301*%
X152823600Y-76950000D03*
X154403600Y-76950000D03*
%TD*%
D20*
%TO.C,R607*%
X118750000Y-68200000D03*
X118750000Y-69200000D03*
%TD*%
%TO.C,R1101*%
X145948400Y-92006800D03*
X145948400Y-93006800D03*
%TD*%
D27*
%TO.C,J103*%
X196325000Y-87150000D03*
%TD*%
D64*
%TO.C,IC701*%
X160150000Y-64200000D03*
X159200000Y-64200000D03*
X158250000Y-64200000D03*
X158250000Y-66800000D03*
X160150000Y-66800000D03*
%TD*%
D65*
%TO.C,J101*%
X196425000Y-71075000D03*
X196425000Y-82075000D03*
D66*
X186425000Y-79075000D03*
D67*
X186425000Y-74075000D03*
%TD*%
D16*
%TO.C,TP202*%
X152100000Y-69550000D03*
%TD*%
D20*
%TO.C,R801*%
X120950000Y-74300000D03*
X120950000Y-75300000D03*
%TD*%
D16*
%TO.C,TP803*%
X147200000Y-87400000D03*
%TD*%
D68*
%TO.C,J1001*%
X114000000Y-55325000D03*
X113000000Y-55325000D03*
X112000000Y-55325000D03*
X111000000Y-55325000D03*
D69*
X109700000Y-51650000D03*
X115300000Y-51650000D03*
%TD*%
D62*
%TO.C,C701*%
X178250000Y-68750000D03*
X175290000Y-68750000D03*
%TD*%
M02*
