M48
; DRILL file KiCad 10.0.6 date 2026-10-03T15:10:05
; FORMAT={-:-/ absolute / inch / decimal}
; #@! TF.CreationDate,2026-10-03T15:10:05+02:00
; #@! TF.GenerationSoftware,Kicad,Pcbnew,10.0.6
; #@! TF.FileFunction,Plated,1,4,PTH
FMAT,2
INCH
; #@! TA.AperFunction,Plated,PTH,ViaDrill
T1C0.0118
; #@! TA.AperFunction,Plated,PTH,ComponentDrill
T2C0.0394
; #@! TA.AperFunction,Plated,PTH,ComponentDrill
T3C0.0449
; #@! TA.AperFunction,Plated,PTH,ComponentDrill
T4C0.0469
; #@! TA.AperFunction,Plated,PTH,ComponentDrill
T5C0.0748
; #@! TA.AperFunction,Plated,PTH,ComponentDrill
T6C0.0984
; #@! TA.AperFunction,Plated,PTH,ComponentDrill
T7C0.1260
%
G90
G05
T1
X4.0217Y-2.7146
X4.0217Y-3.9173
X4.0217Y-3.9469
X4.0531Y-3.9941
X4.0541Y-3.2195
X4.0719Y-3.8396
X4.0807Y-4.0177
X4.1476Y-2.5413
X4.1545Y-3.4695
X4.1614Y-3.2539
X4.1693Y-3.565
X4.1732Y-3.7618
X4.189Y-2.378
X4.1949Y-2.4488
X4.1949Y-2.5315
X4.1959Y-4.0187
X4.1988Y-2.8012
X4.1988Y-2.8858
X4.2156Y-3.9961
X4.2283Y-3.3159
X4.2323Y-3.1732
X4.2323Y-3.2835
X4.253Y-4.003
X4.2874Y-4.0059
X4.3671Y-3.1683
X4.3976Y-3.2283
X4.4154Y-3.2559
X4.4291Y-3.8307
X4.4764Y-2.6811
X4.4764Y-4.0118
X4.4774Y-2.2411
X4.5256Y-2.1949
X4.5315Y-2.9656
X4.5433Y-3.3091
X4.5442Y-2.824
X4.5512Y-4.0128
X4.622Y-2.748
X4.6358Y-2.7146
X4.6378Y-2.9291
X4.6378Y-3.6929
X4.6398Y-3.5217
X4.6398Y-3.6378
X4.6417Y-2.8642
X4.6417Y-2.9547
X4.6526Y-3.0699
X4.6713Y-3.1791
X4.6762Y-2.6506
X4.7244Y-2.7724
X4.7244Y-3.3839
X4.7293Y-3.0896
X4.7313Y-2.9902
X4.7441Y-2.6528
X4.7628Y-4.0128
X4.7638Y-2.7805
X4.7638Y-2.8947
X4.7638Y-3.7421
X4.7677Y-3.6811
X4.9469Y-3.2421
X4.9547Y-2.7421
X4.9567Y-2.2421
X5.5157Y-2.2441
X5.7126Y-3.2854
X5.7165Y-3.2323
X5.7185Y-2.8022
X5.7205Y-3.5325
X5.7323Y-3.7421
X5.7411Y-3.3898
X5.7441Y-2.876
X5.7461Y-2.9941
X5.748Y-2.6949
X5.7736Y-4.0
X5.7756Y-3.0965
X5.7874Y-3.8976
X5.8022Y-2.8524
X5.8268Y-3.1476
X5.8268Y-3.2579
X5.8465Y-2.9879
X5.8465Y-3.0295
X5.8465Y-3.2005
X5.8563Y-3.1004
X5.8671Y-2.7549
X5.8686Y-2.723
X5.8799Y-3.2343
X5.8898Y-2.0157
X5.8898Y-3.9626
X5.8976Y-3.002
X5.935Y-4.0079
X6.0025Y-2.9862
X6.0049Y-2.1112
X6.0049Y-2.1358
X6.0049Y-2.1585
X6.0295Y-2.1112
X6.0295Y-2.1358
X6.0295Y-2.1585
X6.0472Y-3.0709
X6.0472Y-3.1496
X6.0472Y-3.1752
X6.0482Y-2.6713
X6.0541Y-2.1112
X6.0541Y-2.1358
X6.0541Y-2.1585
X6.061Y-2.8386
X6.1201Y-2.8986
X6.1226Y-3.0305
X6.128Y-3.2165
X6.2264Y-2.7008
X6.2549Y-3.4075
X6.2549Y-3.4331
X6.2549Y-3.4606
X6.2549Y-3.4862
X6.2677Y-2.5797
X6.2697Y-2.4321
X6.2815Y-2.7352
X6.2815Y-2.7598
X6.2815Y-2.7825
X6.2972Y-2.3524
X6.2972Y-2.375
X6.3061Y-2.7352
X6.3061Y-2.7598
X6.3061Y-2.7825
X6.3091Y-3.373
X6.3091Y-3.5167
X6.3219Y-2.3524
X6.3219Y-2.375
X6.3307Y-2.7352
X6.3307Y-2.7598
X6.3307Y-2.7825
X6.3366Y-3.373
X6.3366Y-3.5167
X6.3642Y-3.373
X6.3642Y-3.5167
X6.3888Y-3.373
X6.3888Y-3.5167
X6.4173Y-3.373
X6.4173Y-3.5167
X6.4449Y-3.373
X6.4449Y-3.5167
X6.4685Y-2.2854
X6.4774Y-3.4045
X6.4774Y-3.4301
X6.4774Y-3.4577
X6.4774Y-3.4833
X6.5641Y-2.1898
X6.5866Y-2.4419
X6.7579Y-2.9163
X6.7579Y-2.9439
X6.7579Y-2.9724
X6.7579Y-2.997
X6.7592Y-2.7874
X6.7628Y-2.3947
X6.7628Y-2.4193
X6.7628Y-2.4429
X6.7628Y-2.4665
X6.7628Y-2.4892
X6.7628Y-2.5138
X6.7628Y-2.5374
X6.7628Y-2.561
X6.7736Y-3.7667
X6.7776Y-2.8986
X6.7815Y-3.0098
X6.7864Y-2.8593
X6.8051Y-2.8986
X6.8061Y-3.5236
X6.8091Y-3.0098
X6.8327Y-2.8986
X6.8376Y-3.0098
X6.8406Y-2.2431
X6.8494Y-2.4596
X6.8494Y-2.4852
X6.8553Y-2.5719
X6.8553Y-2.5965
X6.8553Y-2.6201
X6.8553Y-2.6437
X6.8553Y-2.6663
X6.8553Y-2.6909
X6.8553Y-2.7146
X6.8553Y-2.7382
X6.875Y-2.4596
X6.875Y-2.4852
X6.9232Y-3.3898
X6.9232Y-3.4154
X6.9459Y-2.4596
X6.9459Y-2.4852
X6.9488Y-3.3898
X6.9488Y-3.4154
X6.9715Y-2.4596
X6.9715Y-2.4852
X7.0266Y-3.4016
X7.0394Y-3.1545
X7.0394Y-3.1791
X7.0394Y-3.2028
X7.0394Y-3.2264
X7.0394Y-3.249
X7.0394Y-3.2736
X7.0394Y-3.2972
X7.0394Y-3.3209
X7.0886Y-2.4154
X7.0886Y-2.4409
X7.1122Y-4.0118
X7.1142Y-2.1998
X7.1142Y-2.2244
X7.1142Y-2.247
X7.1142Y-2.4154
X7.1142Y-2.4409
X7.1152Y-2.127
X7.1152Y-2.1516
X7.1152Y-2.1742
X7.1388Y-2.1998
X7.1388Y-2.2244
X7.1388Y-2.247
X7.1398Y-2.127
X7.1398Y-2.1516
X7.1398Y-2.1742
X7.1634Y-2.1998
X7.1634Y-2.2244
X7.1634Y-2.247
X7.1644Y-2.127
X7.1644Y-2.1516
X7.1644Y-2.1742
X7.1651Y-3.373
X7.1651Y-3.3986
X7.1907Y-3.373
X7.1907Y-3.3986
X7.2047Y-4.0138
X7.2726Y-2.0187
X7.2776Y-3.9685
X7.3711Y-2.0207
X7.4459Y-2.0768
T2
X4.3587Y-2.4764
X4.4587Y-2.4764
X4.5587Y-2.4764
X4.6587Y-2.4764
X7.7333Y-2.7982
X7.7333Y-3.2313
T3
X6.4783Y-2.9354
X6.4783Y-3.0354
X6.4783Y-3.1354
T4
X6.2957Y-2.0866
X6.2961Y-3.937
X6.3957Y-2.0866
X6.3961Y-3.937
X6.4957Y-2.0866
X6.4961Y-3.937
X6.6894Y-2.0866
X6.6898Y-3.937
X6.7894Y-2.0866
X6.7898Y-3.937
X6.8894Y-2.0866
X6.8898Y-3.937
T5
X7.3396Y-2.9163
X7.3396Y-3.1132
T6
X7.7293Y-2.5984
X7.7293Y-3.4311
T7
X4.1339Y-2.1654
X7.6772Y-2.1654
X7.6772Y-3.8583
M30
