%TF.GenerationSoftware,KiCad,Pcbnew,10.0.6*%
%TF.CreationDate,2026-10-02T12:46:37+02:00*%
%TF.ProjectId,engineering_plane,656e6769-6e65-4657-9269-6e675f706c61,rev?*%
%TF.SameCoordinates,Original*%
%TF.FileFunction,Legend,Top*%
%TF.FilePolarity,Positive*%
%FSLAX46Y46*%
G04 Gerber Fmt 4.6, Leading zero omitted, Abs format (unit mm)*
G04 Created by KiCad (PCBNEW 10.0.6) date 2026-10-02 12:46:37*
%MOMM*%
%LPD*%
G01*
G04 APERTURE LIST*
G04 Aperture macros list*
%AMRoundRect*
0 Rectangle with rounded corners*
0 $1 Rounding radius*
0 $2 $3 $4 $5 $6 $7 $8 $9 X,Y pos of 4 corners*
0 Add a 4 corners polygon primitive as box body*
4,1,4,$2,$3,$4,$5,$6,$7,$8,$9,$2,$3,0*
0 Add four circle primitives for the rounded corners*
1,1,$1+$1,$2,$3*
1,1,$1+$1,$4,$5*
1,1,$1+$1,$6,$7*
1,1,$1+$1,$8,$9*
0 Add four rect primitives between the rounded corners*
20,1,$1+$1,$2,$3,$4,$5,0*
20,1,$1+$1,$4,$5,$6,$7,0*
20,1,$1+$1,$6,$7,$8,$9,0*
20,1,$1+$1,$8,$9,$2,$3,0*%
%AMFreePoly0*
4,1,37,0.800000,0.796148,0.878414,0.796148,1.032228,0.765552,1.177117,0.705537,1.307515,0.618408,1.418408,0.507515,1.505537,0.377117,1.565552,0.232228,1.596148,0.078414,1.596148,-0.078414,1.565552,-0.232228,1.505537,-0.377117,1.418408,-0.507515,1.307515,-0.618408,1.177117,-0.705537,1.032228,-0.765552,0.878414,-0.796148,0.800000,-0.796148,0.800000,-0.800000,-1.400000,-0.800000,
-1.403843,-0.796157,-1.439018,-0.796157,-1.511114,-0.766294,-1.566294,-0.711114,-1.596157,-0.639018,-1.596157,-0.603843,-1.600000,-0.600000,-1.600000,0.600000,-1.596157,0.603843,-1.596157,0.639018,-1.566294,0.711114,-1.511114,0.766294,-1.439018,0.796157,-1.403843,0.796157,-1.400000,0.800000,0.800000,0.800000,0.800000,0.796148,0.800000,0.796148,$1*%
%AMFreePoly1*
4,1,37,1.403843,0.796157,1.439018,0.796157,1.511114,0.766294,1.566294,0.711114,1.596157,0.639018,1.596157,0.603843,1.600000,0.600000,1.600000,-0.600000,1.596157,-0.603843,1.596157,-0.639018,1.566294,-0.711114,1.511114,-0.766294,1.439018,-0.796157,1.403843,-0.796157,1.400000,-0.800000,-0.800000,-0.800000,-0.800000,-0.796148,-0.878414,-0.796148,-1.032228,-0.765552,-1.177117,-0.705537,
-1.307515,-0.618408,-1.418408,-0.507515,-1.505537,-0.377117,-1.565552,-0.232228,-1.596148,-0.078414,-1.596148,0.078414,-1.565552,0.232228,-1.505537,0.377117,-1.418408,0.507515,-1.307515,0.618408,-1.177117,0.705537,-1.032228,0.765552,-0.878414,0.796148,-0.800000,0.796148,-0.800000,0.800000,1.400000,0.800000,1.403843,0.796157,1.403843,0.796157,$1*%
G04 Aperture macros list end*
%ADD10C,0.150000*%
%ADD11C,0.300000*%
%ADD12C,0.254000*%
%ADD13C,0.120000*%
%ADD14C,0.100000*%
%ADD15C,0.200000*%
%ADD16C,0.161000*%
%ADD17C,0.203200*%
%ADD18C,0.127000*%
%ADD19RoundRect,0.250000X1.950000X1.000000X-1.950000X1.000000X-1.950000X-1.000000X1.950000X-1.000000X0*%
%ADD20C,2.200000*%
%ADD21C,1.850000*%
%ADD22FreePoly0,0.000000*%
%ADD23RoundRect,0.800000X-0.800000X-0.000010X0.800000X-0.000010X0.800000X0.000010X-0.800000X0.000010X0*%
%ADD24FreePoly1,0.000000*%
%ADD25R,0.300000X0.325000*%
%ADD26R,0.325000X0.300000*%
%ADD27RoundRect,0.508000X-0.000010X-0.000010X0.000010X-0.000010X0.000010X0.000010X-0.000010X0.000010X0*%
%ADD28R,1.700000X1.700000*%
%ADD29C,1.700000*%
%ADD30C,1.750000*%
%ADD31RoundRect,0.178000X-0.170000X0.140000X-0.170000X-0.140000X0.170000X-0.140000X0.170000X0.140000X0*%
%ADD32RoundRect,0.263000X-0.250000X0.225000X-0.250000X-0.225000X0.250000X-0.225000X0.250000X0.225000X0*%
%ADD33RoundRect,0.288000X-0.650000X0.325000X-0.650000X-0.325000X0.650000X-0.325000X0.650000X0.325000X0*%
%ADD34R,1.500000X2.200000*%
%ADD35R,1.350000X0.600000*%
%ADD36R,2.000000X1.200000*%
%ADD37RoundRect,0.178000X0.140000X0.170000X-0.140000X0.170000X-0.140000X-0.170000X0.140000X-0.170000X0*%
%ADD38RoundRect,0.250002X-1.699998X-1.699998X1.699998X-1.699998X1.699998X1.699998X-1.699998X1.699998X0*%
%ADD39RoundRect,0.238000X0.275000X-0.200000X0.275000X0.200000X-0.275000X0.200000X-0.275000X-0.200000X0*%
%ADD40RoundRect,0.288000X-0.325000X-0.650000X0.325000X-0.650000X0.325000X0.650000X-0.325000X0.650000X0*%
%ADD41RoundRect,0.263000X0.225000X0.250000X-0.225000X0.250000X-0.225000X-0.250000X0.225000X-0.250000X0*%
%ADD42R,0.250000X0.475000*%
%ADD43R,0.475000X0.250000*%
%ADD44R,1.710000X1.710000*%
%ADD45C,1.710000*%
%ADD46RoundRect,0.238000X-0.275000X0.200000X-0.275000X-0.200000X0.275000X-0.200000X0.275000X0.200000X0*%
%ADD47RoundRect,0.178000X0.170000X-0.140000X0.170000X0.140000X-0.170000X0.140000X-0.170000X-0.140000X0*%
%ADD48RoundRect,0.238000X0.200000X0.275000X-0.200000X0.275000X-0.200000X-0.275000X0.200000X-0.275000X0*%
%ADD49RoundRect,0.288000X-1.000000X-0.650000X1.000000X-0.650000X1.000000X0.650000X-1.000000X0.650000X0*%
%ADD50RoundRect,0.238000X-0.200000X-0.275000X0.200000X-0.275000X0.200000X0.275000X-0.200000X0.275000X0*%
%ADD51RoundRect,0.263000X0.250000X-0.225000X0.250000X0.225000X-0.250000X0.225000X-0.250000X-0.225000X0*%
%ADD52RoundRect,0.220000X0.255000X-0.220000X0.255000X0.220000X-0.255000X0.220000X-0.255000X-0.220000X0*%
%ADD53RoundRect,0.220000X-0.220000X-0.255000X0.220000X-0.255000X0.220000X0.255000X-0.220000X0.255000X0*%
%ADD54RoundRect,0.175750X-0.221250X0.551250X-0.221250X-0.551250X0.221250X-0.551250X0.221250X0.551250X0*%
%ADD55RoundRect,0.258000X0.220000X0.255000X-0.220000X0.255000X-0.220000X-0.255000X0.220000X-0.255000X0*%
%ADD56RoundRect,0.263000X-0.225000X-0.250000X0.225000X-0.250000X0.225000X0.250000X-0.225000X0.250000X0*%
%ADD57RoundRect,0.178000X-0.140000X-0.170000X0.140000X-0.170000X0.140000X0.170000X-0.140000X0.170000X0*%
%ADD58C,1.296000*%
%ADD59R,1.500000X0.800000*%
%ADD60R,1.500000X1.150000*%
%ADD61R,1.150000X1.500000*%
%ADD62R,1.700000X1.400000*%
%ADD63RoundRect,0.175750X0.221250X-0.551250X0.221250X0.551250X-0.221250X0.551250X-0.221250X-0.551250X0*%
%ADD64C,6.400000*%
%ADD65RoundRect,0.288000X0.650000X-0.325000X0.650000X0.325000X-0.650000X0.325000X-0.650000X-0.325000X0*%
%ADD66R,0.450000X0.300000*%
%ADD67R,0.300000X0.450000*%
%ADD68RoundRect,0.280500X0.457500X-0.242500X0.457500X0.242500X-0.457500X0.242500X-0.457500X-0.242500X0*%
%ADD69RoundRect,0.288000X-0.300000X-0.550000X0.300000X-0.550000X0.300000X0.550000X-0.300000X0.550000X0*%
%ADD70R,3.500000X2.000000*%
%ADD71RoundRect,0.200000X-0.200000X-0.275000X0.200000X-0.275000X0.200000X0.275000X-0.200000X0.275000X0*%
%ADD72RoundRect,0.250000X1.500000X0.550000X-1.500000X0.550000X-1.500000X-0.550000X1.500000X-0.550000X0*%
%ADD73RoundRect,0.288000X0.325000X0.650000X-0.325000X0.650000X-0.325000X-0.650000X0.325000X-0.650000X0*%
%ADD74RoundRect,0.288000X-0.550000X0.300000X-0.550000X-0.300000X0.550000X-0.300000X0.550000X0.300000X0*%
%ADD75R,0.650000X1.500000*%
%ADD76C,1.400000*%
%ADD77RoundRect,0.770000X-0.980000X0.980000X-0.980000X-0.980000X0.980000X-0.980000X0.980000X0.980000X0*%
%ADD78C,3.500000*%
%ADD79R,0.600000X1.350000*%
%ADD80R,1.200000X2.000000*%
G04 APERTURE END LIST*
D10*
X107719819Y-65263220D02*
X106719819Y-65263220D01*
X106719819Y-65263220D02*
X106719819Y-65025125D01*
X106719819Y-65025125D02*
X106767438Y-64882268D01*
X106767438Y-64882268D02*
X106862676Y-64787030D01*
X106862676Y-64787030D02*
X106957914Y-64739411D01*
X106957914Y-64739411D02*
X107148390Y-64691792D01*
X107148390Y-64691792D02*
X107291247Y-64691792D01*
X107291247Y-64691792D02*
X107481723Y-64739411D01*
X107481723Y-64739411D02*
X107576961Y-64787030D01*
X107576961Y-64787030D02*
X107672200Y-64882268D01*
X107672200Y-64882268D02*
X107719819Y-65025125D01*
X107719819Y-65025125D02*
X107719819Y-65263220D01*
X107719819Y-64263220D02*
X107053152Y-64263220D01*
X106719819Y-64263220D02*
X106767438Y-64310839D01*
X106767438Y-64310839D02*
X106815057Y-64263220D01*
X106815057Y-64263220D02*
X106767438Y-64215601D01*
X106767438Y-64215601D02*
X106719819Y-64263220D01*
X106719819Y-64263220D02*
X106815057Y-64263220D01*
X107053152Y-63929887D02*
X107053152Y-63548935D01*
X107719819Y-63787030D02*
X106862676Y-63787030D01*
X106862676Y-63787030D02*
X106767438Y-63739411D01*
X106767438Y-63739411D02*
X106719819Y-63644173D01*
X106719819Y-63644173D02*
X106719819Y-63548935D01*
X107053152Y-63358458D02*
X107053152Y-62977506D01*
X107719819Y-63215601D02*
X106862676Y-63215601D01*
X106862676Y-63215601D02*
X106767438Y-63167982D01*
X106767438Y-63167982D02*
X106719819Y-63072744D01*
X106719819Y-63072744D02*
X106719819Y-62977506D01*
X107719819Y-62644172D02*
X106719819Y-62644172D01*
X106719819Y-62644172D02*
X106719819Y-62263220D01*
X106719819Y-62263220D02*
X106767438Y-62167982D01*
X106767438Y-62167982D02*
X106815057Y-62120363D01*
X106815057Y-62120363D02*
X106910295Y-62072744D01*
X106910295Y-62072744D02*
X107053152Y-62072744D01*
X107053152Y-62072744D02*
X107148390Y-62120363D01*
X107148390Y-62120363D02*
X107196009Y-62167982D01*
X107196009Y-62167982D02*
X107243628Y-62263220D01*
X107243628Y-62263220D02*
X107243628Y-62644172D01*
X107719819Y-61644172D02*
X107053152Y-61644172D01*
X107243628Y-61644172D02*
X107148390Y-61596553D01*
X107148390Y-61596553D02*
X107100771Y-61548934D01*
X107100771Y-61548934D02*
X107053152Y-61453696D01*
X107053152Y-61453696D02*
X107053152Y-61358458D01*
X107672200Y-60644172D02*
X107719819Y-60739410D01*
X107719819Y-60739410D02*
X107719819Y-60929886D01*
X107719819Y-60929886D02*
X107672200Y-61025124D01*
X107672200Y-61025124D02*
X107576961Y-61072743D01*
X107576961Y-61072743D02*
X107196009Y-61072743D01*
X107196009Y-61072743D02*
X107100771Y-61025124D01*
X107100771Y-61025124D02*
X107053152Y-60929886D01*
X107053152Y-60929886D02*
X107053152Y-60739410D01*
X107053152Y-60739410D02*
X107100771Y-60644172D01*
X107100771Y-60644172D02*
X107196009Y-60596553D01*
X107196009Y-60596553D02*
X107291247Y-60596553D01*
X107291247Y-60596553D02*
X107386485Y-61072743D01*
X107672200Y-60215600D02*
X107719819Y-60120362D01*
X107719819Y-60120362D02*
X107719819Y-59929886D01*
X107719819Y-59929886D02*
X107672200Y-59834648D01*
X107672200Y-59834648D02*
X107576961Y-59787029D01*
X107576961Y-59787029D02*
X107529342Y-59787029D01*
X107529342Y-59787029D02*
X107434104Y-59834648D01*
X107434104Y-59834648D02*
X107386485Y-59929886D01*
X107386485Y-59929886D02*
X107386485Y-60072743D01*
X107386485Y-60072743D02*
X107338866Y-60167981D01*
X107338866Y-60167981D02*
X107243628Y-60215600D01*
X107243628Y-60215600D02*
X107196009Y-60215600D01*
X107196009Y-60215600D02*
X107100771Y-60167981D01*
X107100771Y-60167981D02*
X107053152Y-60072743D01*
X107053152Y-60072743D02*
X107053152Y-59929886D01*
X107053152Y-59929886D02*
X107100771Y-59834648D01*
X107672200Y-59406076D02*
X107719819Y-59310838D01*
X107719819Y-59310838D02*
X107719819Y-59120362D01*
X107719819Y-59120362D02*
X107672200Y-59025124D01*
X107672200Y-59025124D02*
X107576961Y-58977505D01*
X107576961Y-58977505D02*
X107529342Y-58977505D01*
X107529342Y-58977505D02*
X107434104Y-59025124D01*
X107434104Y-59025124D02*
X107386485Y-59120362D01*
X107386485Y-59120362D02*
X107386485Y-59263219D01*
X107386485Y-59263219D02*
X107338866Y-59358457D01*
X107338866Y-59358457D02*
X107243628Y-59406076D01*
X107243628Y-59406076D02*
X107196009Y-59406076D01*
X107196009Y-59406076D02*
X107100771Y-59358457D01*
X107100771Y-59358457D02*
X107053152Y-59263219D01*
X107053152Y-59263219D02*
X107053152Y-59120362D01*
X107053152Y-59120362D02*
X107100771Y-59025124D01*
X107385588Y-90642438D02*
X107290350Y-90594819D01*
X107290350Y-90594819D02*
X107147493Y-90594819D01*
X107147493Y-90594819D02*
X107004636Y-90642438D01*
X107004636Y-90642438D02*
X106909398Y-90737676D01*
X106909398Y-90737676D02*
X106861779Y-90832914D01*
X106861779Y-90832914D02*
X106814160Y-91023390D01*
X106814160Y-91023390D02*
X106814160Y-91166247D01*
X106814160Y-91166247D02*
X106861779Y-91356723D01*
X106861779Y-91356723D02*
X106909398Y-91451961D01*
X106909398Y-91451961D02*
X107004636Y-91547200D01*
X107004636Y-91547200D02*
X107147493Y-91594819D01*
X107147493Y-91594819D02*
X107242731Y-91594819D01*
X107242731Y-91594819D02*
X107385588Y-91547200D01*
X107385588Y-91547200D02*
X107433207Y-91499580D01*
X107433207Y-91499580D02*
X107433207Y-91166247D01*
X107433207Y-91166247D02*
X107242731Y-91166247D01*
X107861779Y-91594819D02*
X107861779Y-90594819D01*
X107861779Y-90594819D02*
X108242731Y-90594819D01*
X108242731Y-90594819D02*
X108337969Y-90642438D01*
X108337969Y-90642438D02*
X108385588Y-90690057D01*
X108385588Y-90690057D02*
X108433207Y-90785295D01*
X108433207Y-90785295D02*
X108433207Y-90928152D01*
X108433207Y-90928152D02*
X108385588Y-91023390D01*
X108385588Y-91023390D02*
X108337969Y-91071009D01*
X108337969Y-91071009D02*
X108242731Y-91118628D01*
X108242731Y-91118628D02*
X107861779Y-91118628D01*
X108814160Y-91547200D02*
X108957017Y-91594819D01*
X108957017Y-91594819D02*
X109195112Y-91594819D01*
X109195112Y-91594819D02*
X109290350Y-91547200D01*
X109290350Y-91547200D02*
X109337969Y-91499580D01*
X109337969Y-91499580D02*
X109385588Y-91404342D01*
X109385588Y-91404342D02*
X109385588Y-91309104D01*
X109385588Y-91309104D02*
X109337969Y-91213866D01*
X109337969Y-91213866D02*
X109290350Y-91166247D01*
X109290350Y-91166247D02*
X109195112Y-91118628D01*
X109195112Y-91118628D02*
X109004636Y-91071009D01*
X109004636Y-91071009D02*
X108909398Y-91023390D01*
X108909398Y-91023390D02*
X108861779Y-90975771D01*
X108861779Y-90975771D02*
X108814160Y-90880533D01*
X108814160Y-90880533D02*
X108814160Y-90785295D01*
X108814160Y-90785295D02*
X108861779Y-90690057D01*
X108861779Y-90690057D02*
X108909398Y-90642438D01*
X108909398Y-90642438D02*
X109004636Y-90594819D01*
X109004636Y-90594819D02*
X109242731Y-90594819D01*
X109242731Y-90594819D02*
X109385588Y-90642438D01*
X108046009Y-88629887D02*
X108093628Y-88487030D01*
X108093628Y-88487030D02*
X108141247Y-88439411D01*
X108141247Y-88439411D02*
X108236485Y-88391792D01*
X108236485Y-88391792D02*
X108379342Y-88391792D01*
X108379342Y-88391792D02*
X108474580Y-88439411D01*
X108474580Y-88439411D02*
X108522200Y-88487030D01*
X108522200Y-88487030D02*
X108569819Y-88582268D01*
X108569819Y-88582268D02*
X108569819Y-88963220D01*
X108569819Y-88963220D02*
X107569819Y-88963220D01*
X107569819Y-88963220D02*
X107569819Y-88629887D01*
X107569819Y-88629887D02*
X107617438Y-88534649D01*
X107617438Y-88534649D02*
X107665057Y-88487030D01*
X107665057Y-88487030D02*
X107760295Y-88439411D01*
X107760295Y-88439411D02*
X107855533Y-88439411D01*
X107855533Y-88439411D02*
X107950771Y-88487030D01*
X107950771Y-88487030D02*
X107998390Y-88534649D01*
X107998390Y-88534649D02*
X108046009Y-88629887D01*
X108046009Y-88629887D02*
X108046009Y-88963220D01*
X108569819Y-87963220D02*
X107569819Y-87963220D01*
X108188866Y-87867982D02*
X108569819Y-87582268D01*
X107903152Y-87582268D02*
X108284104Y-87963220D01*
X107903152Y-87153696D02*
X108903152Y-87153696D01*
X107950771Y-87153696D02*
X107903152Y-87058458D01*
X107903152Y-87058458D02*
X107903152Y-86867982D01*
X107903152Y-86867982D02*
X107950771Y-86772744D01*
X107950771Y-86772744D02*
X107998390Y-86725125D01*
X107998390Y-86725125D02*
X108093628Y-86677506D01*
X108093628Y-86677506D02*
X108379342Y-86677506D01*
X108379342Y-86677506D02*
X108474580Y-86725125D01*
X108474580Y-86725125D02*
X108522200Y-86772744D01*
X108522200Y-86772744D02*
X108569819Y-86867982D01*
X108569819Y-86867982D02*
X108569819Y-87058458D01*
X108569819Y-87058458D02*
X108522200Y-87153696D01*
X108665057Y-86487030D02*
X108665057Y-85725125D01*
X108569819Y-85487029D02*
X107569819Y-85487029D01*
X107665057Y-85058458D02*
X107617438Y-85010839D01*
X107617438Y-85010839D02*
X107569819Y-84915601D01*
X107569819Y-84915601D02*
X107569819Y-84677506D01*
X107569819Y-84677506D02*
X107617438Y-84582268D01*
X107617438Y-84582268D02*
X107665057Y-84534649D01*
X107665057Y-84534649D02*
X107760295Y-84487030D01*
X107760295Y-84487030D02*
X107855533Y-84487030D01*
X107855533Y-84487030D02*
X107998390Y-84534649D01*
X107998390Y-84534649D02*
X108569819Y-85106077D01*
X108569819Y-85106077D02*
X108569819Y-84487030D01*
X108474580Y-83487030D02*
X108522200Y-83534649D01*
X108522200Y-83534649D02*
X108569819Y-83677506D01*
X108569819Y-83677506D02*
X108569819Y-83772744D01*
X108569819Y-83772744D02*
X108522200Y-83915601D01*
X108522200Y-83915601D02*
X108426961Y-84010839D01*
X108426961Y-84010839D02*
X108331723Y-84058458D01*
X108331723Y-84058458D02*
X108141247Y-84106077D01*
X108141247Y-84106077D02*
X107998390Y-84106077D01*
X107998390Y-84106077D02*
X107807914Y-84058458D01*
X107807914Y-84058458D02*
X107712676Y-84010839D01*
X107712676Y-84010839D02*
X107617438Y-83915601D01*
X107617438Y-83915601D02*
X107569819Y-83772744D01*
X107569819Y-83772744D02*
X107569819Y-83677506D01*
X107569819Y-83677506D02*
X107617438Y-83534649D01*
X107617438Y-83534649D02*
X107665057Y-83487030D01*
X117719819Y-58291792D02*
X117243628Y-58625125D01*
X117719819Y-58863220D02*
X116719819Y-58863220D01*
X116719819Y-58863220D02*
X116719819Y-58482268D01*
X116719819Y-58482268D02*
X116767438Y-58387030D01*
X116767438Y-58387030D02*
X116815057Y-58339411D01*
X116815057Y-58339411D02*
X116910295Y-58291792D01*
X116910295Y-58291792D02*
X117053152Y-58291792D01*
X117053152Y-58291792D02*
X117148390Y-58339411D01*
X117148390Y-58339411D02*
X117196009Y-58387030D01*
X117196009Y-58387030D02*
X117243628Y-58482268D01*
X117243628Y-58482268D02*
X117243628Y-58863220D01*
X117624580Y-57291792D02*
X117672200Y-57339411D01*
X117672200Y-57339411D02*
X117719819Y-57482268D01*
X117719819Y-57482268D02*
X117719819Y-57577506D01*
X117719819Y-57577506D02*
X117672200Y-57720363D01*
X117672200Y-57720363D02*
X117576961Y-57815601D01*
X117576961Y-57815601D02*
X117481723Y-57863220D01*
X117481723Y-57863220D02*
X117291247Y-57910839D01*
X117291247Y-57910839D02*
X117148390Y-57910839D01*
X117148390Y-57910839D02*
X116957914Y-57863220D01*
X116957914Y-57863220D02*
X116862676Y-57815601D01*
X116862676Y-57815601D02*
X116767438Y-57720363D01*
X116767438Y-57720363D02*
X116719819Y-57577506D01*
X116719819Y-57577506D02*
X116719819Y-57482268D01*
X116719819Y-57482268D02*
X116767438Y-57339411D01*
X116767438Y-57339411D02*
X116815057Y-57291792D01*
X117815057Y-57101316D02*
X117815057Y-56339411D01*
X117434104Y-56148934D02*
X117434104Y-55672744D01*
X117719819Y-56244172D02*
X116719819Y-55910839D01*
X116719819Y-55910839D02*
X117719819Y-55577506D01*
X117053152Y-55244172D02*
X117719819Y-55244172D01*
X117148390Y-55244172D02*
X117100771Y-55196553D01*
X117100771Y-55196553D02*
X117053152Y-55101315D01*
X117053152Y-55101315D02*
X117053152Y-54958458D01*
X117053152Y-54958458D02*
X117100771Y-54863220D01*
X117100771Y-54863220D02*
X117196009Y-54815601D01*
X117196009Y-54815601D02*
X117719819Y-54815601D01*
X117053152Y-54482267D02*
X117053152Y-54101315D01*
X116719819Y-54339410D02*
X117576961Y-54339410D01*
X117576961Y-54339410D02*
X117672200Y-54291791D01*
X117672200Y-54291791D02*
X117719819Y-54196553D01*
X117719819Y-54196553D02*
X117719819Y-54101315D01*
X117672200Y-53387029D02*
X117719819Y-53482267D01*
X117719819Y-53482267D02*
X117719819Y-53672743D01*
X117719819Y-53672743D02*
X117672200Y-53767981D01*
X117672200Y-53767981D02*
X117576961Y-53815600D01*
X117576961Y-53815600D02*
X117196009Y-53815600D01*
X117196009Y-53815600D02*
X117100771Y-53767981D01*
X117100771Y-53767981D02*
X117053152Y-53672743D01*
X117053152Y-53672743D02*
X117053152Y-53482267D01*
X117053152Y-53482267D02*
X117100771Y-53387029D01*
X117100771Y-53387029D02*
X117196009Y-53339410D01*
X117196009Y-53339410D02*
X117291247Y-53339410D01*
X117291247Y-53339410D02*
X117386485Y-53815600D01*
X117053152Y-52910838D02*
X117719819Y-52910838D01*
X117148390Y-52910838D02*
X117100771Y-52863219D01*
X117100771Y-52863219D02*
X117053152Y-52767981D01*
X117053152Y-52767981D02*
X117053152Y-52625124D01*
X117053152Y-52625124D02*
X117100771Y-52529886D01*
X117100771Y-52529886D02*
X117196009Y-52482267D01*
X117196009Y-52482267D02*
X117719819Y-52482267D01*
X117053152Y-52006076D02*
X117719819Y-52006076D01*
X117148390Y-52006076D02*
X117100771Y-51958457D01*
X117100771Y-51958457D02*
X117053152Y-51863219D01*
X117053152Y-51863219D02*
X117053152Y-51720362D01*
X117053152Y-51720362D02*
X117100771Y-51625124D01*
X117100771Y-51625124D02*
X117196009Y-51577505D01*
X117196009Y-51577505D02*
X117719819Y-51577505D01*
X117719819Y-50672743D02*
X117196009Y-50672743D01*
X117196009Y-50672743D02*
X117100771Y-50720362D01*
X117100771Y-50720362D02*
X117053152Y-50815600D01*
X117053152Y-50815600D02*
X117053152Y-51006076D01*
X117053152Y-51006076D02*
X117100771Y-51101314D01*
X117672200Y-50672743D02*
X117719819Y-50767981D01*
X117719819Y-50767981D02*
X117719819Y-51006076D01*
X117719819Y-51006076D02*
X117672200Y-51101314D01*
X117672200Y-51101314D02*
X117576961Y-51148933D01*
X117576961Y-51148933D02*
X117481723Y-51148933D01*
X117481723Y-51148933D02*
X117386485Y-51101314D01*
X117386485Y-51101314D02*
X117338866Y-51006076D01*
X117338866Y-51006076D02*
X117338866Y-50767981D01*
X117338866Y-50767981D02*
X117291247Y-50672743D01*
D11*
X195779510Y-61929400D02*
X196922368Y-61929400D01*
X196350939Y-62500828D02*
X196350939Y-61357971D01*
D10*
G36*
X189733018Y-51419505D02*
G01*
X189672425Y-51415711D01*
X189622762Y-51405203D01*
X189582168Y-51388962D01*
X189549103Y-51367481D01*
X189521352Y-51339525D01*
X189497669Y-51303290D01*
X189478217Y-51257189D01*
X189463618Y-51199198D01*
X189623744Y-51175653D01*
X189633005Y-51214767D01*
X189645402Y-51243644D01*
X189660331Y-51264459D01*
X189679907Y-51280156D01*
X189704059Y-51289835D01*
X189734141Y-51293280D01*
X189764606Y-51289420D01*
X189788379Y-51278623D01*
X189807072Y-51260991D01*
X189820167Y-51238127D01*
X189828759Y-51207984D01*
X189831936Y-51168521D01*
X189831936Y-50764152D01*
X189678405Y-50764152D01*
X189678405Y-50637928D01*
X189992599Y-50637928D01*
X189992599Y-51164613D01*
X189987851Y-51224378D01*
X189974483Y-51274480D01*
X189953277Y-51316663D01*
X189924260Y-51352240D01*
X189888283Y-51380684D01*
X189845404Y-51401575D01*
X189794249Y-51414797D01*
X189733018Y-51419505D01*
G37*
G36*
X190143688Y-51407000D02*
G01*
X190143688Y-50637928D01*
X190304888Y-50637928D01*
X190304888Y-51282387D01*
X190718049Y-51282387D01*
X190718049Y-51407000D01*
X190143688Y-51407000D01*
G37*
G36*
X191187142Y-51292694D02*
G01*
X191234187Y-51288497D01*
X191274662Y-51276504D01*
X191309821Y-51257089D01*
X191340542Y-51229905D01*
X191367259Y-51193924D01*
X191389912Y-51147516D01*
X191530352Y-51200272D01*
X191504039Y-51253888D01*
X191473107Y-51298615D01*
X191437596Y-51335526D01*
X191397240Y-51365381D01*
X191352555Y-51388497D01*
X191303147Y-51405381D01*
X191248292Y-51415865D01*
X191187142Y-51419505D01*
X191111966Y-51414740D01*
X191047065Y-51401228D01*
X190990897Y-51379801D01*
X190942183Y-51350807D01*
X190899961Y-51314090D01*
X190864827Y-51270588D01*
X190836941Y-51220466D01*
X190816264Y-51162740D01*
X190803205Y-51096147D01*
X190798601Y-51019191D01*
X190803112Y-50941632D01*
X190815844Y-50875153D01*
X190835888Y-50818141D01*
X190862752Y-50769223D01*
X190896395Y-50727321D01*
X190937038Y-50692072D01*
X190984519Y-50664085D01*
X191039886Y-50643283D01*
X191104517Y-50630094D01*
X191180059Y-50625422D01*
X191248448Y-50629256D01*
X191307144Y-50640072D01*
X191357533Y-50657083D01*
X191400806Y-50679840D01*
X191439875Y-50709898D01*
X191472634Y-50746096D01*
X191499498Y-50789074D01*
X191520485Y-50839819D01*
X191378433Y-50878653D01*
X191362583Y-50842657D01*
X191339242Y-50812158D01*
X191307651Y-50786427D01*
X191271120Y-50767714D01*
X191230023Y-50756222D01*
X191183332Y-50752233D01*
X191129371Y-50756957D01*
X191084874Y-50770203D01*
X191047999Y-50791236D01*
X191017442Y-50820230D01*
X190994183Y-50855261D01*
X190976522Y-50898826D01*
X190965040Y-50952737D01*
X190960875Y-51019191D01*
X190965135Y-51086640D01*
X190976907Y-51141642D01*
X190995067Y-51186352D01*
X191019054Y-51222547D01*
X191050529Y-51252592D01*
X191088119Y-51274279D01*
X191133063Y-51287868D01*
X191187142Y-51292694D01*
G37*
G36*
X191847184Y-51419505D02*
G01*
X191786591Y-51415711D01*
X191736928Y-51405203D01*
X191696334Y-51388962D01*
X191663269Y-51367481D01*
X191635518Y-51339525D01*
X191611835Y-51303290D01*
X191592383Y-51257189D01*
X191577784Y-51199198D01*
X191737910Y-51175653D01*
X191747171Y-51214767D01*
X191759568Y-51243644D01*
X191774497Y-51264459D01*
X191794073Y-51280156D01*
X191818225Y-51289835D01*
X191848307Y-51293280D01*
X191878772Y-51289420D01*
X191902545Y-51278623D01*
X191921238Y-51260991D01*
X191934334Y-51238127D01*
X191942925Y-51207984D01*
X191946102Y-51168521D01*
X191946102Y-50764152D01*
X191792571Y-50764152D01*
X191792571Y-50637928D01*
X192106765Y-50637928D01*
X192106765Y-51164613D01*
X192102017Y-51224378D01*
X192088649Y-51274480D01*
X192067443Y-51316663D01*
X192038426Y-51352240D01*
X192002449Y-51380684D01*
X191959571Y-51401575D01*
X191908415Y-51414797D01*
X191847184Y-51419505D01*
G37*
G36*
X192257854Y-51407000D02*
G01*
X192257854Y-50637928D01*
X192419054Y-50637928D01*
X192419054Y-51282387D01*
X192832215Y-51282387D01*
X192832215Y-51407000D01*
X192257854Y-51407000D01*
G37*
G36*
X193301308Y-51292694D02*
G01*
X193348353Y-51288497D01*
X193388829Y-51276504D01*
X193423987Y-51257089D01*
X193454709Y-51229905D01*
X193481425Y-51193924D01*
X193504079Y-51147516D01*
X193644518Y-51200272D01*
X193618205Y-51253888D01*
X193587274Y-51298615D01*
X193551762Y-51335526D01*
X193511406Y-51365381D01*
X193466721Y-51388497D01*
X193417313Y-51405381D01*
X193362458Y-51415865D01*
X193301308Y-51419505D01*
X193226132Y-51414740D01*
X193161231Y-51401228D01*
X193105063Y-51379801D01*
X193056349Y-51350807D01*
X193014127Y-51314090D01*
X192978993Y-51270588D01*
X192951107Y-51220466D01*
X192930430Y-51162740D01*
X192917372Y-51096147D01*
X192912767Y-51019191D01*
X192917278Y-50941632D01*
X192930011Y-50875153D01*
X192950054Y-50818141D01*
X192976918Y-50769223D01*
X193010561Y-50727321D01*
X193051204Y-50692072D01*
X193098685Y-50664085D01*
X193154052Y-50643283D01*
X193218683Y-50630094D01*
X193294225Y-50625422D01*
X193362614Y-50629256D01*
X193421310Y-50640072D01*
X193471699Y-50657083D01*
X193514972Y-50679840D01*
X193554041Y-50709898D01*
X193586800Y-50746096D01*
X193613664Y-50789074D01*
X193634651Y-50839819D01*
X193492599Y-50878653D01*
X193476749Y-50842657D01*
X193453408Y-50812158D01*
X193421818Y-50786427D01*
X193385286Y-50767714D01*
X193344189Y-50756222D01*
X193297498Y-50752233D01*
X193243537Y-50756957D01*
X193199040Y-50770203D01*
X193162165Y-50791236D01*
X193131608Y-50820230D01*
X193108349Y-50855261D01*
X193090689Y-50898826D01*
X193079206Y-50952737D01*
X193075042Y-51019191D01*
X193079301Y-51086640D01*
X193091073Y-51141642D01*
X193109233Y-51186352D01*
X193133220Y-51222547D01*
X193164696Y-51252592D01*
X193202285Y-51274279D01*
X193247229Y-51287868D01*
X193301308Y-51292694D01*
G37*
G36*
X193961350Y-51419505D02*
G01*
X193900757Y-51415711D01*
X193851094Y-51405203D01*
X193810500Y-51388962D01*
X193777435Y-51367481D01*
X193749684Y-51339525D01*
X193726001Y-51303290D01*
X193706549Y-51257189D01*
X193691950Y-51199198D01*
X193852076Y-51175653D01*
X193861337Y-51214767D01*
X193873734Y-51243644D01*
X193888663Y-51264459D01*
X193908239Y-51280156D01*
X193932391Y-51289835D01*
X193962474Y-51293280D01*
X193992939Y-51289420D01*
X194016711Y-51278623D01*
X194035404Y-51260991D01*
X194048500Y-51238127D01*
X194057091Y-51207984D01*
X194060268Y-51168521D01*
X194060268Y-50764152D01*
X193906737Y-50764152D01*
X193906737Y-50637928D01*
X194220931Y-50637928D01*
X194220931Y-51164613D01*
X194216183Y-51224378D01*
X194202815Y-51274480D01*
X194181609Y-51316663D01*
X194152592Y-51352240D01*
X194116615Y-51380684D01*
X194073737Y-51401575D01*
X194022581Y-51414797D01*
X193961350Y-51419505D01*
G37*
G36*
X194372020Y-51407000D02*
G01*
X194372020Y-50637928D01*
X194533220Y-50637928D01*
X194533220Y-51282387D01*
X194946381Y-51282387D01*
X194946381Y-51407000D01*
X194372020Y-51407000D01*
G37*
G36*
X195415474Y-51292694D02*
G01*
X195462519Y-51288497D01*
X195502995Y-51276504D01*
X195538153Y-51257089D01*
X195568875Y-51229905D01*
X195595591Y-51193924D01*
X195618245Y-51147516D01*
X195758684Y-51200272D01*
X195732371Y-51253888D01*
X195701440Y-51298615D01*
X195665928Y-51335526D01*
X195625572Y-51365381D01*
X195580887Y-51388497D01*
X195531479Y-51405381D01*
X195476624Y-51415865D01*
X195415474Y-51419505D01*
X195340298Y-51414740D01*
X195275397Y-51401228D01*
X195219229Y-51379801D01*
X195170516Y-51350807D01*
X195128293Y-51314090D01*
X195093160Y-51270588D01*
X195065273Y-51220466D01*
X195044596Y-51162740D01*
X195031538Y-51096147D01*
X195026933Y-51019191D01*
X195031444Y-50941632D01*
X195044177Y-50875153D01*
X195064220Y-50818141D01*
X195091084Y-50769223D01*
X195124728Y-50727321D01*
X195165370Y-50692072D01*
X195212851Y-50664085D01*
X195268219Y-50643283D01*
X195332850Y-50630094D01*
X195408391Y-50625422D01*
X195476780Y-50629256D01*
X195535476Y-50640072D01*
X195585865Y-50657083D01*
X195629138Y-50679840D01*
X195668207Y-50709898D01*
X195700966Y-50746096D01*
X195727830Y-50789074D01*
X195748817Y-50839819D01*
X195606765Y-50878653D01*
X195590915Y-50842657D01*
X195567574Y-50812158D01*
X195535984Y-50786427D01*
X195499452Y-50767714D01*
X195458355Y-50756222D01*
X195411664Y-50752233D01*
X195357703Y-50756957D01*
X195313207Y-50770203D01*
X195276331Y-50791236D01*
X195245774Y-50820230D01*
X195222515Y-50855261D01*
X195204855Y-50898826D01*
X195193372Y-50952737D01*
X195189208Y-51019191D01*
X195193467Y-51086640D01*
X195205239Y-51141642D01*
X195223399Y-51186352D01*
X195247386Y-51222547D01*
X195278862Y-51252592D01*
X195316451Y-51274279D01*
X195361395Y-51287868D01*
X195415474Y-51292694D01*
G37*
G36*
X196075516Y-51419505D02*
G01*
X196014923Y-51415711D01*
X195965260Y-51405203D01*
X195924666Y-51388962D01*
X195891601Y-51367481D01*
X195863850Y-51339525D01*
X195840167Y-51303290D01*
X195820715Y-51257189D01*
X195806116Y-51199198D01*
X195966242Y-51175653D01*
X195975503Y-51214767D01*
X195987900Y-51243644D01*
X196002829Y-51264459D01*
X196022405Y-51280156D01*
X196046557Y-51289835D01*
X196076640Y-51293280D01*
X196107105Y-51289420D01*
X196130877Y-51278623D01*
X196149571Y-51260991D01*
X196162666Y-51238127D01*
X196171257Y-51207984D01*
X196174434Y-51168521D01*
X196174434Y-50764152D01*
X196020903Y-50764152D01*
X196020903Y-50637928D01*
X196335097Y-50637928D01*
X196335097Y-51164613D01*
X196330349Y-51224378D01*
X196316981Y-51274480D01*
X196295775Y-51316663D01*
X196266758Y-51352240D01*
X196230781Y-51380684D01*
X196187903Y-51401575D01*
X196136747Y-51414797D01*
X196075516Y-51419505D01*
G37*
G36*
X196486186Y-51407000D02*
G01*
X196486186Y-50637928D01*
X196647386Y-50637928D01*
X196647386Y-51282387D01*
X197060547Y-51282387D01*
X197060547Y-51407000D01*
X196486186Y-51407000D01*
G37*
G36*
X197529640Y-51292694D02*
G01*
X197576685Y-51288497D01*
X197617161Y-51276504D01*
X197652319Y-51257089D01*
X197683041Y-51229905D01*
X197709757Y-51193924D01*
X197732411Y-51147516D01*
X197872850Y-51200272D01*
X197846537Y-51253888D01*
X197815606Y-51298615D01*
X197780094Y-51335526D01*
X197739738Y-51365381D01*
X197695053Y-51388497D01*
X197645645Y-51405381D01*
X197590790Y-51415865D01*
X197529640Y-51419505D01*
X197454465Y-51414740D01*
X197389563Y-51401228D01*
X197333395Y-51379801D01*
X197284682Y-51350807D01*
X197242460Y-51314090D01*
X197207326Y-51270588D01*
X197179439Y-51220466D01*
X197158762Y-51162740D01*
X197145704Y-51096147D01*
X197141099Y-51019191D01*
X197145610Y-50941632D01*
X197158343Y-50875153D01*
X197178386Y-50818141D01*
X197205251Y-50769223D01*
X197238894Y-50727321D01*
X197279536Y-50692072D01*
X197327018Y-50664085D01*
X197382385Y-50643283D01*
X197447016Y-50630094D01*
X197522557Y-50625422D01*
X197590946Y-50629256D01*
X197649642Y-50640072D01*
X197700031Y-50657083D01*
X197743304Y-50679840D01*
X197782374Y-50709898D01*
X197815133Y-50746096D01*
X197841996Y-50789074D01*
X197862983Y-50839819D01*
X197720931Y-50878653D01*
X197705081Y-50842657D01*
X197681740Y-50812158D01*
X197650150Y-50786427D01*
X197613618Y-50767714D01*
X197572521Y-50756222D01*
X197525830Y-50752233D01*
X197471869Y-50756957D01*
X197427373Y-50770203D01*
X197390497Y-50791236D01*
X197359940Y-50820230D01*
X197336681Y-50855261D01*
X197319021Y-50898826D01*
X197307538Y-50952737D01*
X197303374Y-51019191D01*
X197307633Y-51086640D01*
X197319405Y-51141642D01*
X197337565Y-51186352D01*
X197361552Y-51222547D01*
X197393028Y-51252592D01*
X197430617Y-51274279D01*
X197475562Y-51287868D01*
X197529640Y-51292694D01*
G37*
D12*
X193524318Y-93071190D02*
X193524318Y-93675952D01*
X193524318Y-93675952D02*
X192254318Y-93675952D01*
X192254318Y-92768809D02*
X192254318Y-91922142D01*
X192254318Y-91922142D02*
X193524318Y-92466428D01*
X192254318Y-91196428D02*
X192254318Y-91075475D01*
X192254318Y-91075475D02*
X192314794Y-90954523D01*
X192314794Y-90954523D02*
X192375270Y-90894047D01*
X192375270Y-90894047D02*
X192496222Y-90833571D01*
X192496222Y-90833571D02*
X192738127Y-90773094D01*
X192738127Y-90773094D02*
X193040508Y-90773094D01*
X193040508Y-90773094D02*
X193282413Y-90833571D01*
X193282413Y-90833571D02*
X193403365Y-90894047D01*
X193403365Y-90894047D02*
X193463842Y-90954523D01*
X193463842Y-90954523D02*
X193524318Y-91075475D01*
X193524318Y-91075475D02*
X193524318Y-91196428D01*
X193524318Y-91196428D02*
X193463842Y-91317380D01*
X193463842Y-91317380D02*
X193403365Y-91377856D01*
X193403365Y-91377856D02*
X193282413Y-91438333D01*
X193282413Y-91438333D02*
X193040508Y-91498809D01*
X193040508Y-91498809D02*
X192738127Y-91498809D01*
X192738127Y-91498809D02*
X192496222Y-91438333D01*
X192496222Y-91438333D02*
X192375270Y-91377856D01*
X192375270Y-91377856D02*
X192314794Y-91317380D01*
X192314794Y-91317380D02*
X192254318Y-91196428D01*
X192375270Y-90289285D02*
X192314794Y-90228809D01*
X192314794Y-90228809D02*
X192254318Y-90107856D01*
X192254318Y-90107856D02*
X192254318Y-89805475D01*
X192254318Y-89805475D02*
X192314794Y-89684523D01*
X192314794Y-89684523D02*
X192375270Y-89624047D01*
X192375270Y-89624047D02*
X192496222Y-89563570D01*
X192496222Y-89563570D02*
X192617175Y-89563570D01*
X192617175Y-89563570D02*
X192798603Y-89624047D01*
X192798603Y-89624047D02*
X193524318Y-90349761D01*
X193524318Y-90349761D02*
X193524318Y-89563570D01*
D10*
X175530952Y-79759580D02*
X175483333Y-79807200D01*
X175483333Y-79807200D02*
X175340476Y-79854819D01*
X175340476Y-79854819D02*
X175245238Y-79854819D01*
X175245238Y-79854819D02*
X175102381Y-79807200D01*
X175102381Y-79807200D02*
X175007143Y-79711961D01*
X175007143Y-79711961D02*
X174959524Y-79616723D01*
X174959524Y-79616723D02*
X174911905Y-79426247D01*
X174911905Y-79426247D02*
X174911905Y-79283390D01*
X174911905Y-79283390D02*
X174959524Y-79092914D01*
X174959524Y-79092914D02*
X175007143Y-78997676D01*
X175007143Y-78997676D02*
X175102381Y-78902438D01*
X175102381Y-78902438D02*
X175245238Y-78854819D01*
X175245238Y-78854819D02*
X175340476Y-78854819D01*
X175340476Y-78854819D02*
X175483333Y-78902438D01*
X175483333Y-78902438D02*
X175530952Y-78950057D01*
X176483333Y-79854819D02*
X175911905Y-79854819D01*
X176197619Y-79854819D02*
X176197619Y-78854819D01*
X176197619Y-78854819D02*
X176102381Y-78997676D01*
X176102381Y-78997676D02*
X176007143Y-79092914D01*
X176007143Y-79092914D02*
X175911905Y-79140533D01*
X177102381Y-78854819D02*
X177197619Y-78854819D01*
X177197619Y-78854819D02*
X177292857Y-78902438D01*
X177292857Y-78902438D02*
X177340476Y-78950057D01*
X177340476Y-78950057D02*
X177388095Y-79045295D01*
X177388095Y-79045295D02*
X177435714Y-79235771D01*
X177435714Y-79235771D02*
X177435714Y-79473866D01*
X177435714Y-79473866D02*
X177388095Y-79664342D01*
X177388095Y-79664342D02*
X177340476Y-79759580D01*
X177340476Y-79759580D02*
X177292857Y-79807200D01*
X177292857Y-79807200D02*
X177197619Y-79854819D01*
X177197619Y-79854819D02*
X177102381Y-79854819D01*
X177102381Y-79854819D02*
X177007143Y-79807200D01*
X177007143Y-79807200D02*
X176959524Y-79759580D01*
X176959524Y-79759580D02*
X176911905Y-79664342D01*
X176911905Y-79664342D02*
X176864286Y-79473866D01*
X176864286Y-79473866D02*
X176864286Y-79235771D01*
X176864286Y-79235771D02*
X176911905Y-79045295D01*
X176911905Y-79045295D02*
X176959524Y-78950057D01*
X176959524Y-78950057D02*
X177007143Y-78902438D01*
X177007143Y-78902438D02*
X177102381Y-78854819D01*
X178388095Y-79854819D02*
X177816667Y-79854819D01*
X178102381Y-79854819D02*
X178102381Y-78854819D01*
X178102381Y-78854819D02*
X178007143Y-78997676D01*
X178007143Y-78997676D02*
X177911905Y-79092914D01*
X177911905Y-79092914D02*
X177816667Y-79140533D01*
D12*
X162899318Y-67799286D02*
X161629318Y-67799286D01*
X162778365Y-66468809D02*
X162838842Y-66529285D01*
X162838842Y-66529285D02*
X162899318Y-66710714D01*
X162899318Y-66710714D02*
X162899318Y-66831666D01*
X162899318Y-66831666D02*
X162838842Y-67013095D01*
X162838842Y-67013095D02*
X162717889Y-67134047D01*
X162717889Y-67134047D02*
X162596937Y-67194524D01*
X162596937Y-67194524D02*
X162355032Y-67255000D01*
X162355032Y-67255000D02*
X162173603Y-67255000D01*
X162173603Y-67255000D02*
X161931699Y-67194524D01*
X161931699Y-67194524D02*
X161810746Y-67134047D01*
X161810746Y-67134047D02*
X161689794Y-67013095D01*
X161689794Y-67013095D02*
X161629318Y-66831666D01*
X161629318Y-66831666D02*
X161629318Y-66710714D01*
X161629318Y-66710714D02*
X161689794Y-66529285D01*
X161689794Y-66529285D02*
X161750270Y-66468809D01*
X161629318Y-66045476D02*
X161629318Y-65198809D01*
X161629318Y-65198809D02*
X162899318Y-65743095D01*
X161629318Y-64473095D02*
X161629318Y-64352142D01*
X161629318Y-64352142D02*
X161689794Y-64231190D01*
X161689794Y-64231190D02*
X161750270Y-64170714D01*
X161750270Y-64170714D02*
X161871222Y-64110238D01*
X161871222Y-64110238D02*
X162113127Y-64049761D01*
X162113127Y-64049761D02*
X162415508Y-64049761D01*
X162415508Y-64049761D02*
X162657413Y-64110238D01*
X162657413Y-64110238D02*
X162778365Y-64170714D01*
X162778365Y-64170714D02*
X162838842Y-64231190D01*
X162838842Y-64231190D02*
X162899318Y-64352142D01*
X162899318Y-64352142D02*
X162899318Y-64473095D01*
X162899318Y-64473095D02*
X162838842Y-64594047D01*
X162838842Y-64594047D02*
X162778365Y-64654523D01*
X162778365Y-64654523D02*
X162657413Y-64715000D01*
X162657413Y-64715000D02*
X162415508Y-64775476D01*
X162415508Y-64775476D02*
X162113127Y-64775476D01*
X162113127Y-64775476D02*
X161871222Y-64715000D01*
X161871222Y-64715000D02*
X161750270Y-64654523D01*
X161750270Y-64654523D02*
X161689794Y-64594047D01*
X161689794Y-64594047D02*
X161629318Y-64473095D01*
X162899318Y-62840237D02*
X162899318Y-63565952D01*
X162899318Y-63203095D02*
X161629318Y-63203095D01*
X161629318Y-63203095D02*
X161810746Y-63324047D01*
X161810746Y-63324047D02*
X161931699Y-63444999D01*
X161931699Y-63444999D02*
X161992175Y-63565952D01*
D10*
X186539700Y-71646428D02*
X186539700Y-70503571D01*
X187111128Y-71074999D02*
X185968271Y-71074999D01*
X186539700Y-82946428D02*
X186539700Y-81803571D01*
%TO.C,C103*%
D13*
X172782500Y-90260000D02*
X171532500Y-90260000D01*
X172157500Y-90885000D02*
X172157500Y-89635000D01*
X171292500Y-91795563D02*
X171292500Y-89010000D01*
X171292500Y-91795563D02*
X170228063Y-92860000D01*
X171292500Y-83204437D02*
X171292500Y-85990000D01*
X171292500Y-83204437D02*
X170228063Y-82140000D01*
X170228063Y-92860000D02*
X160572500Y-92860000D01*
X170228063Y-82140000D02*
X160572500Y-82140000D01*
X160572500Y-92860000D02*
X160572500Y-89010000D01*
X160572500Y-82140000D02*
X160572500Y-85990000D01*
%TO.C,A801*%
X122330000Y-52680000D02*
X121850000Y-52680000D01*
X122330000Y-52680000D02*
X122330000Y-53100000D01*
X122330000Y-55220000D02*
X122330000Y-55640000D01*
X122330000Y-57760000D02*
X122330000Y-58180000D01*
X122330000Y-60300000D02*
X122330000Y-60720000D01*
X122330000Y-62840000D02*
X122330000Y-63260000D01*
X122330000Y-65380000D02*
X122330000Y-65800000D01*
X122330000Y-67920000D02*
X122330000Y-68340000D01*
X122330000Y-70460000D02*
X122330000Y-70880000D01*
X122330000Y-73000000D02*
X122330000Y-73420000D01*
X122330000Y-75540000D02*
X122330000Y-75960000D01*
X122330000Y-78080000D02*
X122330000Y-78500000D01*
X122330000Y-80620000D02*
X122330000Y-81040000D01*
X122330000Y-83160000D02*
X122330000Y-83580000D01*
X122330000Y-85700000D02*
X122330000Y-86120000D01*
X122330000Y-88240000D02*
X122330000Y-88660000D01*
X122330000Y-90780000D02*
X122330000Y-91200000D01*
X122330000Y-93320000D02*
X122330000Y-93740000D01*
X122330000Y-95860000D02*
X122330000Y-96280000D01*
X122330000Y-98400000D02*
X122330000Y-98820000D01*
X122360324Y-50560000D02*
X121850000Y-50560000D01*
X122940000Y-50140000D02*
X125430000Y-50140000D01*
X122940000Y-101360000D02*
X126777939Y-101360000D01*
X125430000Y-50140000D02*
X126777940Y-50140000D01*
X127702061Y-50140000D02*
X128705000Y-50140000D01*
X128705000Y-50140000D02*
X137175000Y-50140000D01*
X129040000Y-50140000D02*
X129040000Y-51056000D01*
X129040000Y-53444000D02*
X129040000Y-54660000D01*
X129040000Y-54660000D02*
X129336090Y-54660000D01*
X129340000Y-101360000D02*
X127702061Y-101360000D01*
X131693910Y-54660000D02*
X134186090Y-54660000D01*
X136540000Y-101360000D02*
X129340000Y-101360000D01*
X136543910Y-54660000D02*
X136840000Y-54660000D01*
X136840000Y-50140000D02*
X136840000Y-51056000D01*
X136840000Y-53444000D02*
X136840000Y-54660000D01*
X137175000Y-50140000D02*
X138177939Y-50140000D01*
X138177939Y-101360000D02*
X136540000Y-101360000D01*
X139102061Y-50140000D02*
X140450000Y-50140000D01*
X139102061Y-101360000D02*
X142940000Y-101360000D01*
X142940000Y-50140000D02*
X140450000Y-50140000D01*
X143550000Y-52680000D02*
X143550000Y-53100000D01*
X143550000Y-55220000D02*
X143550000Y-55640000D01*
X143550000Y-57760000D02*
X143550000Y-58180000D01*
X143550000Y-60300000D02*
X143550000Y-60720000D01*
X143550000Y-62840000D02*
X143550000Y-63260000D01*
X143550000Y-65380000D02*
X143550000Y-65800000D01*
X143550000Y-67920000D02*
X143550000Y-68340000D01*
X143550000Y-70460000D02*
X143550000Y-70880000D01*
X143550000Y-73000000D02*
X143550000Y-73420000D01*
X143550000Y-75540000D02*
X143550000Y-75960000D01*
X143550000Y-78080000D02*
X143550000Y-78500000D01*
X143550000Y-80620000D02*
X143550000Y-81040000D01*
X143550000Y-83160000D02*
X143550000Y-83580000D01*
X143550000Y-85700000D02*
X143550000Y-86120000D01*
X143550000Y-88240000D02*
X143550000Y-88660000D01*
X143550000Y-90780000D02*
X143550000Y-91200000D01*
X143550000Y-93320000D02*
X143550000Y-93740000D01*
X143550000Y-95860000D02*
X143550000Y-96280000D01*
X143550000Y-98400000D02*
X143550000Y-98820000D01*
X122360324Y-50560000D02*
G75*
G02*
X122940000Y-50140000I579692J-190051D01*
G01*
X122940000Y-101360000D02*
G75*
G02*
X122360324Y-100939937I1J610002D01*
G01*
X142940000Y-50140000D02*
G75*
G02*
X143519676Y-50560063I0J-610000D01*
G01*
X143519676Y-100939937D02*
G75*
G02*
X142940000Y-101360069I-579676J189837D01*
G01*
%TO.C,U301*%
D14*
X149650000Y-79500000D02*
G75*
G02*
X149550000Y-79500000I-50000J0D01*
G01*
X149550000Y-79500000D02*
G75*
G02*
X149650000Y-79500000I50000J0D01*
G01*
X149650000Y-79500000D02*
X149650000Y-79500000D01*
X149550000Y-79500000D02*
X149550000Y-79500000D01*
%TO.C,J801*%
D13*
X109330000Y-64280000D02*
X109330000Y-62900000D01*
X110710000Y-64280000D02*
X109330000Y-64280000D01*
X111980000Y-61520000D02*
X119710000Y-61520000D01*
X111980000Y-64280000D02*
X111980000Y-61520000D01*
X111980000Y-64280000D02*
X119710000Y-64280000D01*
X119710000Y-64280000D02*
X119710000Y-61520000D01*
%TO.C,J401*%
D15*
X168725000Y-103050000D02*
X176196000Y-103050000D01*
X168725000Y-114410000D02*
X168725000Y-103050000D01*
D16*
X169751000Y-97961000D02*
X169751000Y-97961000D01*
X169912000Y-97961000D02*
X169912000Y-97961000D01*
D15*
X176196000Y-103050000D02*
X176196000Y-114410000D01*
X176196000Y-114410000D02*
X168725000Y-114410000D01*
D16*
X169751000Y-97961000D02*
G75*
G02*
X169912000Y-97961000I80500J0D01*
G01*
X169912000Y-97961000D02*
G75*
G02*
X169751000Y-97961000I-80500J0D01*
G01*
%TO.C,L701*%
D13*
X181725000Y-58000000D02*
X189125000Y-58000000D01*
X181725000Y-60300000D02*
X181725000Y-58000000D01*
X181725000Y-65400000D02*
X181725000Y-63100000D01*
X189125000Y-58000000D02*
X189125000Y-60300000D01*
X189125000Y-63100000D02*
X189125000Y-65400000D01*
X189125000Y-65400000D02*
X181725000Y-65400000D01*
%TO.C,J1301*%
D17*
X100875000Y-84225000D02*
X100875000Y-87225000D01*
X103475000Y-82725000D02*
X105125000Y-82725000D01*
X105125000Y-82725000D02*
X105125000Y-83475000D01*
X105125000Y-87975000D02*
X105125000Y-88725000D01*
X105125000Y-88725000D02*
X103475000Y-88725000D01*
%TO.C,IC201*%
D14*
X149250000Y-74850000D02*
X149250000Y-74850000D01*
X149250000Y-74950000D02*
X149250000Y-74950000D01*
X149250000Y-74850000D02*
G75*
G02*
X149250000Y-74950000I0J-50000D01*
G01*
X149250000Y-74950000D02*
G75*
G02*
X149250000Y-74850000I0J50000D01*
G01*
%TO.C,J1101*%
D15*
X161450000Y-73365000D02*
X167800000Y-73365000D01*
X161450000Y-80835000D02*
X161450000Y-73365000D01*
D14*
X164550000Y-81440000D02*
X164550000Y-81440000D01*
X164550000Y-81540000D02*
X164550000Y-81540000D01*
D15*
X167800000Y-73365000D02*
X167800000Y-80835000D01*
X167800000Y-80835000D02*
X161450000Y-80835000D01*
D14*
X164550000Y-81440000D02*
G75*
G02*
X164550000Y-81540000I0J-50000D01*
G01*
X164550000Y-81540000D02*
G75*
G02*
X164550000Y-81440000I0J50000D01*
G01*
%TO.C,D803*%
D10*
X145040000Y-52600000D02*
X145040000Y-55900000D01*
X145040000Y-52600000D02*
X150550000Y-52600000D01*
X145040000Y-55900000D02*
X150550000Y-55900000D01*
%TO.C,FB501*%
X110390000Y-98260000D02*
X110390000Y-97940000D01*
X111410000Y-98260000D02*
X111410000Y-97940000D01*
%TO.C,J1201*%
D17*
X100750000Y-60375000D02*
X100750000Y-63375000D01*
X103350000Y-58875000D02*
X105000000Y-58875000D01*
X105000000Y-58875000D02*
X105000000Y-59625000D01*
X105000000Y-64125000D02*
X105000000Y-64875000D01*
X105000000Y-64875000D02*
X103350000Y-64875000D01*
%TO.C,FB201*%
D10*
X151427200Y-67358800D02*
X151747200Y-67358800D01*
X151427200Y-68378800D02*
X151747200Y-68378800D01*
%TO.C,U702*%
D18*
X174594200Y-88477600D02*
X174594200Y-90077600D01*
X177724200Y-88477600D02*
X177724200Y-90077600D01*
D15*
X177459200Y-86877600D02*
G75*
G02*
X177259200Y-86877600I-100000J0D01*
G01*
X177259200Y-86877600D02*
G75*
G02*
X177459200Y-86877600I100000J0D01*
G01*
%TO.C,D804*%
D10*
X146740000Y-52230000D02*
X149030000Y-52230000D01*
X149030000Y-50770000D02*
X146740000Y-50770000D01*
X149030000Y-52230000D02*
X149030000Y-50770000D01*
%TO.C,J601*%
D14*
X101450000Y-79263000D02*
X101450000Y-68463000D01*
X103400000Y-66963000D02*
X110800000Y-66963000D01*
X103400000Y-80763000D02*
X116950000Y-80763000D01*
D15*
X105000000Y-81463000D02*
X105000000Y-81463000D01*
X105200000Y-81463000D02*
X105200000Y-81463000D01*
D14*
X113000000Y-66963000D02*
X115600000Y-66963000D01*
X116950000Y-73326000D02*
X116950000Y-69063000D01*
X116950000Y-80763000D02*
X116950000Y-78063000D01*
D15*
X105000000Y-81463000D02*
G75*
G02*
X105200000Y-81463000I100000J0D01*
G01*
X105200000Y-81463000D02*
G75*
G02*
X105000000Y-81463000I-100000J0D01*
G01*
%TO.C,U701*%
D18*
X175185000Y-60800000D02*
X175185000Y-59200000D01*
X178315000Y-60800000D02*
X178315000Y-59200000D01*
D15*
X175650000Y-62400000D02*
G75*
G02*
X175450000Y-62400000I-100000J0D01*
G01*
X175450000Y-62400000D02*
G75*
G02*
X175650000Y-62400000I100000J0D01*
G01*
%TO.C,IC501*%
D14*
X104825000Y-97550000D02*
X104825000Y-98050000D01*
X104825000Y-100050000D02*
X104825000Y-100550000D01*
X104825000Y-100550000D02*
X105325000Y-100550000D01*
X105325000Y-97550000D02*
X104825000Y-97550000D01*
X107825000Y-97550000D02*
X107325000Y-97550000D01*
X107825000Y-98050000D02*
X107825000Y-97550000D01*
X107825000Y-100250000D02*
X107825000Y-100550000D01*
X107825000Y-100550000D02*
X107325000Y-100550000D01*
X108125000Y-99850000D02*
X108125000Y-99850000D01*
X108125000Y-99950000D02*
X108125000Y-99950000D01*
X108125000Y-99850000D02*
G75*
G02*
X108125000Y-99950000I0J-50000D01*
G01*
X108125000Y-99950000D02*
G75*
G02*
X108125000Y-99850000I0J50000D01*
G01*
%TO.C,J403*%
D15*
X168716000Y-38590000D02*
X176187000Y-38590000D01*
X168716000Y-49950000D02*
X168716000Y-38590000D01*
D16*
X175000000Y-55039000D02*
X175000000Y-55039000D01*
X175161000Y-55039000D02*
X175161000Y-55039000D01*
D15*
X176187000Y-38590000D02*
X176187000Y-49950000D01*
X176187000Y-49950000D02*
X168716000Y-49950000D01*
D16*
X175000000Y-55039000D02*
G75*
G02*
X175161000Y-55039000I80500J0D01*
G01*
X175161000Y-55039000D02*
G75*
G02*
X175000000Y-55039000I-80500J0D01*
G01*
%TO.C,D801*%
D10*
X116290000Y-100000000D02*
X116290000Y-102690000D01*
X116290000Y-102690000D02*
X118210000Y-102690000D01*
X118210000Y-102690000D02*
X118210000Y-100000000D01*
%TO.C,J402*%
D15*
X158725000Y-103050000D02*
X166196000Y-103050000D01*
X158725000Y-114410000D02*
X158725000Y-103050000D01*
D16*
X159751000Y-97961000D02*
X159751000Y-97961000D01*
X159912000Y-97961000D02*
X159912000Y-97961000D01*
D15*
X166196000Y-103050000D02*
X166196000Y-114410000D01*
X166196000Y-114410000D02*
X158725000Y-114410000D01*
D16*
X159751000Y-97961000D02*
G75*
G02*
X159912000Y-97961000I80500J0D01*
G01*
X159912000Y-97961000D02*
G75*
G02*
X159751000Y-97961000I-80500J0D01*
G01*
%TO.C,J901*%
D17*
X100775000Y-91600000D02*
X100775000Y-94600000D01*
X103375000Y-90100000D02*
X105025000Y-90100000D01*
X105025000Y-90100000D02*
X105025000Y-90850000D01*
X105025000Y-95350000D02*
X105025000Y-96100000D01*
X105025000Y-96100000D02*
X103375000Y-96100000D01*
%TO.C,D802*%
D10*
X118540000Y-100000000D02*
X118540000Y-102690000D01*
X118540000Y-102690000D02*
X120460000Y-102690000D01*
X120460000Y-102690000D02*
X120460000Y-100000000D01*
%TO.C,D102*%
X169340000Y-67625000D02*
X169340000Y-69625000D01*
X169340000Y-67625000D02*
X173200000Y-67625000D01*
X169340000Y-69625000D02*
X173200000Y-69625000D01*
%TO.C,L702*%
D18*
X180625000Y-86150000D02*
X181425000Y-85350000D01*
X180625000Y-95350000D02*
X180625000Y-86150000D01*
X181425000Y-85350000D02*
X183425000Y-85350000D01*
X183425000Y-95350000D02*
X180625000Y-95350000D01*
D15*
X185625000Y-84550000D02*
X185625000Y-84550000D01*
X185825000Y-84550000D02*
X185825000Y-84550000D01*
D18*
X187825000Y-85350000D02*
X190625000Y-85350000D01*
X190625000Y-85350000D02*
X190625000Y-95350000D01*
X190625000Y-95350000D02*
X187825000Y-95350000D01*
D15*
X185625000Y-84550000D02*
G75*
G02*
X185825000Y-84550000I100000J0D01*
G01*
X185825000Y-84550000D02*
G75*
G02*
X185625000Y-84550000I-100000J0D01*
G01*
%TO.C,R702*%
D13*
X175512742Y-56452500D02*
X175987258Y-56452500D01*
X175512742Y-57497500D02*
X175987258Y-57497500D01*
%TO.C,C101*%
X173240000Y-71640000D02*
X173240000Y-73990000D01*
X173240000Y-78460000D02*
X173240000Y-76110000D01*
X178995563Y-71640000D02*
X173240000Y-71640000D01*
X178995563Y-78460000D02*
X173240000Y-78460000D01*
X180060000Y-72704437D02*
X178995563Y-71640000D01*
X180060000Y-72704437D02*
X180060000Y-73990000D01*
X180060000Y-77395563D02*
X178995563Y-78460000D01*
X180060000Y-77395563D02*
X180060000Y-76110000D01*
X180693750Y-77291250D02*
X180693750Y-76503750D01*
X181087500Y-76897500D02*
X180300000Y-76897500D01*
%TO.C,J404*%
D15*
X158716000Y-38590000D02*
X166187000Y-38590000D01*
X158716000Y-49950000D02*
X158716000Y-38590000D01*
D16*
X165000000Y-55039000D02*
X165000000Y-55039000D01*
X165161000Y-55039000D02*
X165161000Y-55039000D01*
D15*
X166187000Y-38590000D02*
X166187000Y-49950000D01*
X166187000Y-49950000D02*
X158716000Y-49950000D01*
D16*
X165000000Y-55039000D02*
G75*
G02*
X165161000Y-55039000I80500J0D01*
G01*
X165161000Y-55039000D02*
G75*
G02*
X165000000Y-55039000I-80500J0D01*
G01*
%TO.C,D101*%
D10*
X181750000Y-74390000D02*
X181750000Y-78250000D01*
X183750000Y-74390000D02*
X181750000Y-74390000D01*
X183750000Y-74390000D02*
X183750000Y-78250000D01*
%TO.C,FB301*%
X153453600Y-76440000D02*
X153773600Y-76440000D01*
X153453600Y-77460000D02*
X153773600Y-77460000D01*
%TO.C,IC701*%
D15*
X157750000Y-65300000D02*
X160650000Y-65300000D01*
X157750000Y-65700000D02*
X157750000Y-65300000D01*
X160650000Y-65300000D02*
X160650000Y-65700000D01*
X160650000Y-65700000D02*
X157750000Y-65700000D01*
X160725000Y-63450000D02*
X160725000Y-64950000D01*
%TO.C,J101*%
D13*
X190415000Y-71515000D02*
X190415000Y-81635000D01*
X195315000Y-70925000D02*
X195315000Y-71515000D01*
X195315000Y-71515000D02*
X190415000Y-71515000D01*
X195315000Y-81635000D02*
X190415000Y-81635000D01*
X195315000Y-81635000D02*
X195315000Y-82225000D01*
X197535000Y-70925000D02*
X197535000Y-71515000D01*
X197535000Y-81635000D02*
X197535000Y-82225000D01*
X199635000Y-71515000D02*
X197535000Y-71515000D01*
X199635000Y-71515000D02*
X199635000Y-81635000D01*
X199635000Y-81635000D02*
X197535000Y-81635000D01*
X195315000Y-70925000D02*
G75*
G02*
X197535000Y-70925000I1110000J0D01*
G01*
X197535000Y-82225000D02*
G75*
G02*
X195315000Y-82225000I-1110000J0D01*
G01*
%TO.C,J1001*%
D17*
X109500000Y-54975000D02*
X109500000Y-53325000D01*
X110250000Y-54975000D02*
X109500000Y-54975000D01*
X114000000Y-50725000D02*
X111000000Y-50725000D01*
X115500000Y-53325000D02*
X115500000Y-54975000D01*
X115500000Y-54975000D02*
X114750000Y-54975000D01*
%TD*%
%LPC*%
D19*
%TO.C,C103*%
X161732500Y-87500000D03*
X170132500Y-87500000D03*
%TD*%
D20*
%TO.C,A801*%
X130215000Y-51750000D03*
D21*
X130515000Y-54780000D03*
X135365000Y-54780000D03*
D20*
X135665000Y-51750000D03*
D22*
X123250000Y-51620000D03*
D23*
X123250000Y-54160000D03*
D24*
X123250000Y-56700000D03*
D23*
X123250000Y-59240000D03*
X123250000Y-61780000D03*
X123250000Y-64320000D03*
X123250000Y-66860000D03*
D24*
X123250000Y-69400000D03*
D23*
X123250000Y-71940000D03*
X123250000Y-74480000D03*
X123250000Y-77020000D03*
X123250000Y-79560000D03*
D24*
X123250000Y-82100000D03*
D23*
X123250000Y-84640000D03*
X123250000Y-87180000D03*
X123250000Y-89720000D03*
X123250000Y-92260000D03*
D24*
X123250000Y-94800000D03*
D23*
X123250000Y-97340000D03*
X123250000Y-99880000D03*
X142630000Y-99880000D03*
X142630000Y-97340000D03*
D22*
X142630000Y-94800000D03*
D23*
X142630000Y-92260000D03*
X142630000Y-89720000D03*
X142630000Y-87180000D03*
X142630000Y-84640000D03*
D22*
X142630000Y-82100000D03*
D23*
X142630000Y-79560000D03*
X142630000Y-77020000D03*
X142630000Y-74480000D03*
X142630000Y-71940000D03*
D22*
X142630000Y-69400000D03*
D23*
X142630000Y-66860000D03*
X142630000Y-64320000D03*
X142630000Y-61780000D03*
X142630000Y-59240000D03*
D22*
X142630000Y-56700000D03*
D23*
X142630000Y-54160000D03*
X142630000Y-51620000D03*
%TD*%
D25*
%TO.C,U301*%
X150750000Y-78975000D03*
X151250000Y-78975000D03*
X151750000Y-78975000D03*
D26*
X152000000Y-79500000D03*
X152000000Y-80000000D03*
D25*
X151750000Y-80525000D03*
X151250000Y-80525000D03*
X150750000Y-80525000D03*
D26*
X150500000Y-80000000D03*
X150500000Y-79500000D03*
%TD*%
D27*
%TO.C,TP703*%
X187190685Y-99540685D03*
%TD*%
%TO.C,TP702*%
X187200000Y-97750000D03*
%TD*%
%TO.C,TP701*%
X190700000Y-55500000D03*
%TD*%
%TO.C,TP503*%
X112300000Y-101900000D03*
%TD*%
D28*
%TO.C,J801*%
X110710000Y-62900000D03*
D29*
X113250000Y-62900000D03*
X115790000Y-62900000D03*
X118330000Y-62900000D03*
%TD*%
D30*
%TO.C,J401*%
X169920000Y-100000000D03*
X172460000Y-100000000D03*
X175000000Y-100000000D03*
%TD*%
D31*
%TO.C,R601*%
X120904000Y-86926800D03*
X120904000Y-87926800D03*
%TD*%
D32*
%TO.C,C715*%
X184803800Y-97759600D03*
X184803800Y-99319600D03*
%TD*%
D31*
%TO.C,R407*%
X145948400Y-74074400D03*
X145948400Y-75074400D03*
%TD*%
D33*
%TO.C,C105*%
X167300000Y-57640000D03*
X167300000Y-60600000D03*
%TD*%
D31*
%TO.C,R604*%
X120904000Y-79256000D03*
X120904000Y-80256000D03*
%TD*%
D34*
%TO.C,L701*%
X182225000Y-61700000D03*
X188625000Y-61700000D03*
%TD*%
D31*
%TO.C,R605*%
X120954800Y-76665200D03*
X120954800Y-77665200D03*
%TD*%
D35*
%TO.C,J1301*%
X105475000Y-84225000D03*
X105475000Y-85225000D03*
X105475000Y-86225000D03*
X105475000Y-87225000D03*
D36*
X101800000Y-88525000D03*
X101800000Y-82925000D03*
%TD*%
D37*
%TO.C,C202*%
X150750000Y-69088000D03*
X149750000Y-69088000D03*
%TD*%
D38*
%TO.C,J102*%
X196325000Y-66000000D03*
%TD*%
D39*
%TO.C,R1001*%
X112400000Y-58470000D03*
X112400000Y-56830000D03*
%TD*%
D40*
%TO.C,C712*%
X174551800Y-83309800D03*
X177511800Y-83309800D03*
%TD*%
D41*
%TO.C,C710*%
X179494400Y-56883800D03*
X177934400Y-56883800D03*
%TD*%
D42*
%TO.C,IC201*%
X149250000Y-74113000D03*
X149750000Y-74113000D03*
X150250000Y-74113000D03*
X150750000Y-74113000D03*
D43*
X150913000Y-73450000D03*
X150913000Y-72950000D03*
X150913000Y-72450000D03*
D42*
X150750000Y-71788000D03*
X150250000Y-71788000D03*
X149750000Y-71788000D03*
X149250000Y-71788000D03*
D43*
X149087000Y-72450000D03*
X149087000Y-72950000D03*
X149087000Y-73450000D03*
%TD*%
D44*
%TO.C,J1101*%
X164550000Y-79640000D03*
D45*
X164550000Y-77100000D03*
X164550000Y-74560000D03*
%TD*%
D46*
%TO.C,R1002*%
X110900000Y-56830000D03*
X110900000Y-58470000D03*
%TD*%
D47*
%TO.C,C201*%
X152750000Y-73600000D03*
X152750000Y-72600000D03*
%TD*%
D37*
%TO.C,C503*%
X105500000Y-102050000D03*
X104500000Y-102050000D03*
%TD*%
D47*
%TO.C,C714*%
X178500000Y-89750000D03*
X178500000Y-88750000D03*
%TD*%
D48*
%TO.C,R901*%
X108975000Y-92600000D03*
X107335000Y-92600000D03*
%TD*%
D49*
%TO.C,D803*%
X146550000Y-54250000D03*
X150550000Y-54250000D03*
%TD*%
D50*
%TO.C,R902*%
X107335000Y-94100000D03*
X108975000Y-94100000D03*
%TD*%
D31*
%TO.C,R406*%
X146050000Y-99626800D03*
X146050000Y-100626800D03*
%TD*%
D51*
%TO.C,C718*%
X173925000Y-93805000D03*
X173925000Y-92245000D03*
%TD*%
D31*
%TO.C,C102*%
X145150000Y-72050000D03*
X145150000Y-73050000D03*
%TD*%
D47*
%TO.C,R603*%
X120954800Y-84681776D03*
X120954800Y-83681776D03*
%TD*%
D52*
%TO.C,FB501*%
X110900000Y-98890000D03*
X110900000Y-97310000D03*
%TD*%
D27*
%TO.C,TP201*%
X155450000Y-72175000D03*
%TD*%
D35*
%TO.C,J1201*%
X105350000Y-60375000D03*
X105350000Y-61375000D03*
X105350000Y-62375000D03*
X105350000Y-63375000D03*
D36*
X101675000Y-64675000D03*
X101675000Y-59075000D03*
%TD*%
D31*
%TO.C,R602*%
X119989600Y-86926800D03*
X119989600Y-87926800D03*
%TD*%
D53*
%TO.C,FB201*%
X150797200Y-67868800D03*
X152377200Y-67868800D03*
%TD*%
D54*
%TO.C,U702*%
X177109200Y-88022600D03*
X176159200Y-88022600D03*
X175209200Y-88022600D03*
X175209200Y-90532600D03*
X176159200Y-90532600D03*
X177109200Y-90532600D03*
%TD*%
D32*
%TO.C,C705*%
X174294800Y-59672000D03*
X174294800Y-61232000D03*
%TD*%
D55*
%TO.C,D804*%
X148330000Y-51500000D03*
X146750000Y-51500000D03*
%TD*%
D37*
%TO.C,R101*%
X174314600Y-70779800D03*
X173314600Y-70779800D03*
%TD*%
D56*
%TO.C,C713*%
X175295000Y-85100000D03*
X176855000Y-85100000D03*
%TD*%
D57*
%TO.C,R803*%
X116750000Y-98750000D03*
X117750000Y-98750000D03*
%TD*%
D47*
%TO.C,C303*%
X151663600Y-77250000D03*
X151663600Y-76250000D03*
%TD*%
%TO.C,R402*%
X145135600Y-100626800D03*
X145135600Y-99626800D03*
%TD*%
D39*
%TO.C,R704*%
X173825000Y-91145000D03*
X173825000Y-89505000D03*
%TD*%
D27*
%TO.C,TP801*%
X119400000Y-72750000D03*
%TD*%
D48*
%TO.C,R701*%
X179545000Y-55600000D03*
X177905000Y-55600000D03*
%TD*%
D33*
%TO.C,C717*%
X182975000Y-97720000D03*
X182975000Y-100680000D03*
%TD*%
D58*
%TO.C,H104*%
X101000000Y-51000000D03*
%TD*%
D59*
%TO.C,J601*%
X105050000Y-76625000D03*
X105050000Y-75525000D03*
X105050000Y-74425000D03*
X105050000Y-73325000D03*
X105050000Y-72225000D03*
X105050000Y-71125000D03*
X105050000Y-70025000D03*
X105050000Y-68925000D03*
D60*
X111900000Y-67350000D03*
D61*
X116625000Y-74525000D03*
D62*
X102150000Y-67475000D03*
X102150000Y-80375000D03*
D61*
X116625000Y-76825000D03*
X116625000Y-67925000D03*
%TD*%
D47*
%TO.C,R401*%
X145135600Y-98086800D03*
X145135600Y-97086800D03*
%TD*%
D63*
%TO.C,U701*%
X175800000Y-61255000D03*
X176750000Y-61255000D03*
X177700000Y-61255000D03*
X177700000Y-58745000D03*
X176750000Y-58745000D03*
X175800000Y-58745000D03*
%TD*%
D40*
%TO.C,C104*%
X167182800Y-95656400D03*
X170142800Y-95656400D03*
%TD*%
D64*
%TO.C,H106*%
X195000000Y-98000000D03*
%TD*%
D37*
%TO.C,C203*%
X150750000Y-69949200D03*
X149750000Y-69949200D03*
%TD*%
D65*
%TO.C,C601*%
X119634000Y-92412000D03*
X119634000Y-89452000D03*
%TD*%
D47*
%TO.C,R404*%
X145135600Y-67606800D03*
X145135600Y-66606800D03*
%TD*%
D57*
%TO.C,R606*%
X106450000Y-82650000D03*
X107450000Y-82650000D03*
%TD*%
D31*
%TO.C,C502*%
X109700000Y-100100000D03*
X109700000Y-101100000D03*
%TD*%
D66*
%TO.C,IC501*%
X107600000Y-99800000D03*
X107600000Y-99300000D03*
X107600000Y-98800000D03*
X107600000Y-98300000D03*
D67*
X107075000Y-97775000D03*
X106575000Y-97775000D03*
X106075000Y-97775000D03*
X105575000Y-97775000D03*
D66*
X105050000Y-98300000D03*
X105050000Y-98800000D03*
X105050000Y-99300000D03*
X105050000Y-99800000D03*
D67*
X105575000Y-100325000D03*
X106075000Y-100325000D03*
X106575000Y-100325000D03*
X107075000Y-100325000D03*
%TD*%
D31*
%TO.C,R408*%
X145999200Y-66606800D03*
X145999200Y-67606800D03*
%TD*%
D30*
%TO.C,J403*%
X174992000Y-53000000D03*
X172452000Y-53000000D03*
X169912000Y-53000000D03*
%TD*%
D68*
%TO.C,D801*%
X117250000Y-101940000D03*
X117250000Y-100060000D03*
%TD*%
D64*
%TO.C,H105*%
X195000000Y-55000000D03*
%TD*%
D51*
%TO.C,C707*%
X189125000Y-55485000D03*
X189125000Y-53925000D03*
%TD*%
D40*
%TO.C,C711*%
X174545000Y-80925000D03*
X177505000Y-80925000D03*
%TD*%
D37*
%TO.C,C704*%
X160250000Y-62550000D03*
X159250000Y-62550000D03*
%TD*%
D30*
%TO.C,J402*%
X159920000Y-100000000D03*
X162460000Y-100000000D03*
X165000000Y-100000000D03*
%TD*%
D31*
%TO.C,R1102*%
X145084800Y-92006800D03*
X145084800Y-93006800D03*
%TD*%
D27*
%TO.C,TP804*%
X147200000Y-84900000D03*
%TD*%
D35*
%TO.C,J901*%
X105375000Y-91600000D03*
X105375000Y-92600000D03*
X105375000Y-93600000D03*
X105375000Y-94600000D03*
D36*
X101700000Y-95900000D03*
X101700000Y-90300000D03*
%TD*%
D58*
%TO.C,H102*%
X101000000Y-102000000D03*
%TD*%
D41*
%TO.C,C703*%
X177550000Y-64500000D03*
X175990000Y-64500000D03*
%TD*%
D47*
%TO.C,R403*%
X145084800Y-75074400D03*
X145084800Y-74074400D03*
%TD*%
D58*
%TO.C,H103*%
X199000000Y-51000000D03*
%TD*%
D68*
%TO.C,D802*%
X119500000Y-101940000D03*
X119500000Y-100060000D03*
%TD*%
D31*
%TO.C,R405*%
X146050000Y-97086800D03*
X146050000Y-98086800D03*
%TD*%
D69*
%TO.C,D102*%
X170150000Y-68625000D03*
X172950000Y-68625000D03*
%TD*%
D47*
%TO.C,R805*%
X145500000Y-52000000D03*
X145500000Y-51000000D03*
%TD*%
D57*
%TO.C,C602*%
X118850000Y-93800000D03*
X119850000Y-93800000D03*
%TD*%
D31*
%TO.C,R102*%
X172400000Y-70800000D03*
X172400000Y-71800000D03*
%TD*%
D70*
%TO.C,L702*%
X185625000Y-85850000D03*
X185625000Y-94850000D03*
%TD*%
D32*
%TO.C,C501*%
X103145800Y-98716600D03*
X103145800Y-100276600D03*
%TD*%
D31*
%TO.C,R806*%
X145050000Y-86900000D03*
X145050000Y-87900000D03*
%TD*%
%TO.C,R807*%
X145100000Y-84350000D03*
X145100000Y-85350000D03*
%TD*%
D71*
%TO.C,R702*%
X174925000Y-56975000D03*
X176575000Y-56975000D03*
%TD*%
D27*
%TO.C,TP502*%
X112300000Y-100300000D03*
%TD*%
D72*
%TO.C,C101*%
X179350000Y-75050000D03*
X173950000Y-75050000D03*
%TD*%
D27*
%TO.C,TP501*%
X110900000Y-95900000D03*
%TD*%
%TO.C,TP802*%
X119400000Y-75000000D03*
%TD*%
D31*
%TO.C,R802*%
X120900000Y-71750000D03*
X120900000Y-72750000D03*
%TD*%
D73*
%TO.C,C702*%
X178250000Y-66250000D03*
X175290000Y-66250000D03*
%TD*%
D47*
%TO.C,C302*%
X150800000Y-77250000D03*
X150800000Y-76250000D03*
%TD*%
D33*
%TO.C,C716*%
X180638200Y-97720000D03*
X180638200Y-100680000D03*
%TD*%
D39*
%TO.C,R703*%
X175175000Y-93745000D03*
X175175000Y-92105000D03*
%TD*%
D65*
%TO.C,C709*%
X184746200Y-55585000D03*
X184746200Y-52625000D03*
%TD*%
D32*
%TO.C,C504*%
X110800000Y-100320000D03*
X110800000Y-101880000D03*
%TD*%
D31*
%TO.C,C301*%
X148750000Y-79500000D03*
X148750000Y-80500000D03*
%TD*%
D37*
%TO.C,C706*%
X160050000Y-68600000D03*
X159050000Y-68600000D03*
%TD*%
D30*
%TO.C,J404*%
X164992000Y-53000000D03*
X162452000Y-53000000D03*
X159912000Y-53000000D03*
%TD*%
D65*
%TO.C,C708*%
X187246200Y-55585000D03*
X187246200Y-52625000D03*
%TD*%
D57*
%TO.C,R804*%
X119000000Y-98750000D03*
X120000000Y-98750000D03*
%TD*%
D64*
%TO.C,H101*%
X105000000Y-55000000D03*
%TD*%
D74*
%TO.C,D101*%
X182750000Y-75200000D03*
X182750000Y-78000000D03*
%TD*%
D53*
%TO.C,FB301*%
X152823600Y-76950000D03*
X154403600Y-76950000D03*
%TD*%
D31*
%TO.C,R607*%
X118750000Y-68200000D03*
X118750000Y-69200000D03*
%TD*%
%TO.C,R1101*%
X145948400Y-92006800D03*
X145948400Y-93006800D03*
%TD*%
D38*
%TO.C,J103*%
X196325000Y-87150000D03*
%TD*%
D75*
%TO.C,IC701*%
X160150000Y-64200000D03*
X159200000Y-64200000D03*
X158250000Y-64200000D03*
X158250000Y-66800000D03*
X160150000Y-66800000D03*
%TD*%
D76*
%TO.C,J101*%
X196425000Y-71075000D03*
X196425000Y-82075000D03*
D77*
X186425000Y-79075000D03*
D78*
X186425000Y-74075000D03*
%TD*%
D27*
%TO.C,TP202*%
X152100000Y-69550000D03*
%TD*%
D31*
%TO.C,R801*%
X120950000Y-74300000D03*
X120950000Y-75300000D03*
%TD*%
D27*
%TO.C,TP803*%
X147200000Y-87400000D03*
%TD*%
D79*
%TO.C,J1001*%
X114000000Y-55325000D03*
X113000000Y-55325000D03*
X112000000Y-55325000D03*
X111000000Y-55325000D03*
D80*
X109700000Y-51650000D03*
X115300000Y-51650000D03*
%TD*%
D73*
%TO.C,C701*%
X178250000Y-68750000D03*
X175290000Y-68750000D03*
%TD*%
%LPD*%
M02*
